ISO-10303-21;
HEADER;
FILE_DESCRIPTION (( 'STEP AP214' ),
    '1' );
FILE_NAME ('Eje.STEP',
    '2026-05-03T19:47:18',
    ( '' ),
    ( '' ),
    'SwSTEP 2.0',
    'SolidWorks 2025',
    '' );
FILE_SCHEMA (( 'AUTOMOTIVE_DESIGN' ));
ENDSEC;

DATA;
#1 = EDGE_LOOP ( 'NONE', ( #16, #153, #141, #106 ) ) ;
#2 = CARTESIAN_POINT ( 'NONE',  ( 35.00035697176092242, 3.329567496006752059, -2.223202352423922168 ) ) ;
#3 = UNCERTAINTY_MEASURE_WITH_UNIT (LENGTH_MEASURE( 1.000000000000000082E-05 ), #130, 'distance_accuracy_value', 'NONE');
#4 = CARTESIAN_POINT ( 'NONE',  ( 34.03853176766219235, 4.006384813064070016, -0.1061017339555119926 ) ) ;
#5 = CARTESIAN_POINT ( 'NONE',  ( 32.83660625109531850, 3.970580178752671774, 0.4860523854487681095 ) ) ;
#6 = VERTEX_POINT ( 'NONE', #205 ) ;
#7 = ORIENTED_EDGE ( 'NONE', *, *, #59, .F. ) ;
#8 = CARTESIAN_POINT ( 'NONE',  ( 30.08499143582262647, 3.022315998056844144, -2.625326107872037351 ) ) ;
#9 = CARTESIAN_POINT ( 'NONE',  ( 30.13429991381092776, 2.914266527579796318, -2.744394170306442504 ) ) ;
#10 = UNCERTAINTY_MEASURE_WITH_UNIT (LENGTH_MEASURE( 1.000000000000000082E-05 ), #54, 'distance_accuracy_value', 'NONE');
#11 = DIRECTION ( 'NONE',  ( -1.000000000000000000, 0.000000000000000000, 0.000000000000000000 ) ) ;
#12 = CARTESIAN_POINT ( 'NONE',  ( 30.01808634619456484, 3.226492180924098729, -2.369911258089748340 ) ) ;
#13 = LINE ( 'NONE', #209, #145 ) ;
#14 = CARTESIAN_POINT ( 'NONE',  ( 54.80000000000000426, 0.000000000000000000, 0.000000000000000000 ) ) ;
#15 = CARTESIAN_POINT ( 'NONE',  ( 32.50000000000002842, 1.467154482749033484, -0.8950407613196320611 ) ) ;
#16 = ORIENTED_EDGE ( 'NONE', *, *, #252, .F. ) ;
#17 = CARTESIAN_POINT ( 'NONE',  ( 54.80000000000000426, 4.898587196589411843E-16, -3.999999999999999112 ) ) ;
#18 = EDGE_CURVE ( 'NONE', #113, #24, #188, .T. ) ;
#19 = DIRECTION ( 'NONE',  ( 2.073619932194005165E-15, -0.8536838131812209962, 0.5207916542268801186 ) ) ;
#20 = CIRCLE ( 'NONE', #247, 3.999999999999999112 ) ;
#21 = APPLICATION_CONTEXT ( 'automotive_design' ) ;
#22 = EDGE_LOOP ( 'NONE', ( #180, #182, #108, #236 ) ) ;
#23 = VERTEX_POINT ( 'NONE', #222 ) ;
#24 = VERTEX_POINT ( 'NONE', #223 ) ;
#25 = CIRCLE ( 'NONE', #95, 3.999999999999999112 ) ;
#26 = EDGE_CURVE ( 'NONE', #24, #113, #215, .T. ) ;
#27 = EDGE_LOOP ( 'NONE', ( #7, #39 ) ) ;
#28 = ORIENTED_EDGE ( 'NONE', *, *, #169, .F. ) ;
#29 = CIRCLE ( 'NONE', #121, 2.500000000001123990 ) ;
#30 = CARTESIAN_POINT ( 'NONE',  ( 30.51939448290296397, 3.954896060225987497, -0.6157493678477167220 ) ) ;
#31 = DIRECTION ( 'NONE',  ( 0.000000000000000000, 0.000000000000000000, 1.000000000000000000 ) ) ;
#32 = DIRECTION ( 'NONE',  ( -2.073619932194005165E-15, 0.8536838131812208852, -0.5207916542268801186 ) ) ;
#33 =( GEOMETRIC_REPRESENTATION_CONTEXT ( 3 ) GLOBAL_UNCERTAINTY_ASSIGNED_CONTEXT ( ( #10 ) ) GLOBAL_UNIT_ASSIGNED_CONTEXT ( ( #54, #152, #175 ) ) REPRESENTATION_CONTEXT ( 'NONE', 'WORKASPACE' ) );
#34 = DIRECTION ( 'NONE',  ( -2.073619932194005165E-15, 0.8536838131812208852, -0.5207916542268801186 ) ) ;
#35 =( GEOMETRIC_REPRESENTATION_CONTEXT ( 3 ) GLOBAL_UNCERTAINTY_ASSIGNED_CONTEXT ( ( #3 ) ) GLOBAL_UNIT_ASSIGNED_CONTEXT ( ( #130, #132, #151 ) ) REPRESENTATION_CONTEXT ( 'NONE', 'WORKASPACE' ) );
#36 = CARTESIAN_POINT ( 'NONE',  ( 75.00000000000000000, 4.898587196589411843E-16, -3.999999999999999112 ) ) ;
#37 = DIRECTION ( 'NONE',  ( 0.000000000000000000, 0.000000000000000000, 1.000000000000000000 ) ) ;
#38 = DIRECTION ( 'NONE',  ( -1.000000000000000000, -0.000000000000000000, -0.000000000000000000 ) ) ;
#39 = ORIENTED_EDGE ( 'NONE', *, *, #218, .F. ) ;
#40 = CARTESIAN_POINT ( 'NONE',  ( 32.50000000000002842, 2.769133618316819589, 1.239168771634380217 ) ) ;
#41 = CARTESIAN_POINT ( 'NONE',  ( 0.000000000000000000, 0.000000000000000000, 0.000000000000000000 ) ) ;
#42 = CARTESIAN_POINT ( 'NONE',  ( 34.98331901009039058, 3.232315192062722886, -2.362048914631845520 ) ) ;
#43 = CARTESIAN_POINT ( 'NONE',  ( 32.33056156739674236, 1.363647716723912051, -3.760380952067708726 ) ) ;
#44 = CARTESIAN_POINT ( 'NONE',  ( 31.23635622310548854, 1.747302489409711335, -3.599692277595855749 ) ) ;
#45 = VERTEX_POINT ( 'NONE', #230 ) ;
#46 = VECTOR ( 'NONE', #63, 1000.000000000000227 ) ;
#47 = EDGE_LOOP ( 'NONE', ( #68, #92 ) ) ;
#48 = CARTESIAN_POINT ( 'NONE',  ( 30.26362751406348295, 2.690198709018377432, -2.964368341110776406 ) ) ;
#49 = ADVANCED_FACE ( 'NONE', ( #165, #170 ), #67, .T. ) ;
#50 = DIRECTION ( 'NONE',  ( -1.000000000000000000, -0.000000000000000000, -0.000000000000000000 ) ) ;
#51 = FACE_OUTER_BOUND ( 'NONE', #22, .T. ) ;
#52 = CARTESIAN_POINT ( 'NONE',  ( 32.50000000000002842, 1.467154482749033484, -0.8950407613196320611 ) ) ;
#53 = PLANE ( 'NONE',  #116 ) ;
#54 =( LENGTH_UNIT ( ) NAMED_UNIT ( * ) SI_UNIT ( .MILLI., .METRE. ) );
#55 = ADVANCED_FACE ( 'NONE', ( #51 ), #146, .F. ) ;
#56 = CARTESIAN_POINT ( 'NONE',  ( 33.32467360951630297, 1.522355888341333952, -3.699781099739921864 ) ) ;
#57 = CARTESIAN_POINT ( 'NONE',  ( 34.86463601187546857, 3.774531046071727403, -1.333026380912765374 ) ) ;
#58 = CARTESIAN_POINT ( 'NONE',  ( 31.83766628062264914, 1.463002096103179106, -3.723089579695283202 ) ) ;
#59 = EDGE_CURVE ( 'NONE', #6, #23, #85, .T. ) ;
#60 = CARTESIAN_POINT ( 'NONE',  ( 33.16159601099741394, 3.979886441105997541, 0.4028123548312411151 ) ) ;
#61 = CARTESIAN_POINT ( 'NONE',  ( 34.73679465423851553, 3.866398942153571383, -1.036823596414766069 ) ) ;
#62 = PRODUCT_RELATED_PRODUCT_CATEGORY ( 'part', '', ( #173 ) ) ;
#63 = DIRECTION ( 'NONE',  ( -2.073619932194005165E-15, 0.8536838131812208852, -0.5207916542268801186 ) ) ;
#64 = CARTESIAN_POINT ( 'NONE',  ( 32.50000000000002842, 3.967605987857726113, 0.5080381138413849751 ) ) ;
#65 = DIRECTION ( 'NONE',  ( 0.000000000000000000, -0.5207916542268801186, -0.8536838131812208852 ) ) ;
#66 = LINE ( 'NONE', #187, #243 ) ;
#67 = CYLINDRICAL_SURFACE ( 'NONE', #122, 3.999999999999999112 ) ;
#68 = ORIENTED_EDGE ( 'NONE', *, *, #78, .F. ) ;
#69 = DIRECTION ( 'NONE',  ( -1.000000000000000000, 0.000000000000000000, 0.000000000000000000 ) ) ;
#70 = AXIS2_PLACEMENT_3D ( 'NONE', #52, #251, #65 ) ;
#71 = SURFACE_SIDE_STYLE ('',( #192 ) ) ;
#72 = CARTESIAN_POINT ( 'NONE',  ( 33.76310296056133353, 1.746954328824278813, -3.599863535804340930 ) ) ;
#73 = CARTESIAN_POINT ( 'NONE',  ( 34.91529569169706093, 3.716958122939526099, -1.487002887276689389 ) ) ;
#74 = CARTESIAN_POINT ( 'NONE',  ( 34.37601201441359677, 3.973148498419181163, -0.4792548607829759666 ) ) ;
#75 = CARTESIAN_POINT ( 'NONE',  ( 32.50000000000002842, 1.363647716723912495, -3.760380952067710059 ) ) ;
#76 = CARTESIAN_POINT ( 'NONE',  ( 32.50000000000002842, 3.967605987857726113, 0.5080381138413849751 ) ) ;
#77 = AXIS2_PLACEMENT_3D ( 'NONE', #107, #261, #89 ) ;
#78 = EDGE_CURVE ( 'NONE', #242, #225, #25, .T. ) ;
#79 = CARTESIAN_POINT ( 'NONE',  ( 31.37455762548444582, 3.996532746159477512, 0.1838805984642220837 ) ) ;
#80 = APPLICATION_CONTEXT ( 'automotive_design' ) ;
#81 = CARTESIAN_POINT ( 'NONE',  ( 30.13267128070188505, 3.771948446153039924, -1.340388373631757224 ) ) ;
#82 = CARTESIAN_POINT ( 'NONE',  ( 32.33005629020474458, 3.967605987857725225, 0.5080381138413864184 ) ) ;
#83 = AXIS2_PLACEMENT_3D ( 'NONE', #154, #38, #195 ) ;
#84 = CARTESIAN_POINT ( 'NONE',  ( 30.62096853960377629, 3.972729710335530129, -0.4829138837255604333 ) ) ;
#85 = CIRCLE ( 'NONE', #210, 3.999999999999999112 ) ;
#86 = CARTESIAN_POINT ( 'NONE',  ( 30.00031307567527250, 3.324156872415666264, -2.231267348492302904 ) ) ;
#87 = CARTESIAN_POINT ( 'NONE',  ( 32.50000000000002842, 1.467154482749033484, -0.8950407613196320611 ) ) ;
#88 = DIRECTION ( 'NONE',  ( 1.000000000000000000, 0.000000000000000000, 0.000000000000000000 ) ) ;
#89 = DIRECTION ( 'NONE',  ( 0.000000000000000000, 0.000000000000000000, -1.000000000000000000 ) ) ;
#90 = CARTESIAN_POINT ( 'NONE',  ( -75.00000000000000000, 0.000000000000000000, 0.000000000000000000 ) ) ;
#91 = CIRCLE ( 'NONE', #253, 2.500000000001123990 ) ;
#92 = ORIENTED_EDGE ( 'NONE', *, *, #148, .F. ) ;
#93 = ADVANCED_FACE ( 'NONE', ( #102 ), #167, .F. ) ;
#94 = ORIENTED_EDGE ( 'NONE', *, *, #98, .F. ) ;
#95 = AXIS2_PLACEMENT_3D ( 'NONE', #255, #11, #149 ) ;
#96 = EDGE_LOOP ( 'NONE', ( #97, #138, #131, #194 ) ) ;
#97 = ORIENTED_EDGE ( 'NONE', *, *, #117, .F. ) ;
#98 = EDGE_CURVE ( 'NONE', #242, #6, #66, .T. ) ;
#99 = CARTESIAN_POINT ( 'NONE',  ( 30.33867776919857917, 3.900984777301380824, -0.8959173502387387522 ) ) ;
#100 = CARTESIAN_POINT ( 'NONE',  ( 30.84675539950023193, 3.995206104938292757, -0.2326270610683918716 ) ) ;
#101 = DIRECTION ( 'NONE',  ( 0.000000000000000000, 0.5207916542268800075, 0.8536838131812209962 ) ) ;
#102 = FACE_OUTER_BOUND ( 'NONE', #178, .T. ) ;
#103 = CARTESIAN_POINT ( 'NONE',  ( 54.80000000000000426, -5.000000000000000000, -24.77074010335364207 ) ) ;
#104 = COLOUR_RGB ( '',0.7921568627450980005, 0.8196078431372548767, 0.9333333333333333481 ) ;
#105 = PLANE ( 'NONE',  #77 ) ;
#106 = ORIENTED_EDGE ( 'NONE', *, *, #59, .T. ) ;
#107 = CARTESIAN_POINT ( 'NONE',  ( -75.00000000000000000, 0.000000000000000000, 0.000000000000000000 ) ) ;
#108 = ORIENTED_EDGE ( 'NONE', *, *, #26, .T. ) ;
#109 = EDGE_CURVE ( 'NONE', #213, #113, #168, .T. ) ;
#110 = DIRECTION ( 'NONE',  ( 0.000000000000000000, 0.000000000000000000, -1.000000000000000000 ) ) ;
#111 = DIRECTION ( 'NONE',  ( 1.000000000000000000, 0.000000000000000000, 0.000000000000000000 ) ) ;
#112 = CARTESIAN_POINT ( 'NONE',  ( 34.86698773739770019, 2.916975556047668672, -2.741462251823414409 ) ) ;
#113 = VERTEX_POINT ( 'NONE', #125 ) ;
#114 = AXIS2_PLACEMENT_3D ( 'NONE', #41, #220, #111 ) ;
#115 = CARTESIAN_POINT ( 'NONE',  ( 34.98226801182887158, 3.582592012331399012, -1.786614045515874771 ) ) ;
#116 = AXIS2_PLACEMENT_3D ( 'NONE', #103, #142, #212 ) ;
#117 = EDGE_CURVE ( 'NONE', #45, #24, #13, .T. ) ;
#118 = CARTESIAN_POINT ( 'NONE',  ( 33.16454711552136558, 1.463731857255981428, -3.722804378989327034 ) ) ;
#119 = CARTESIAN_POINT ( 'NONE',  ( 34.15244899588635974, 2.034217994651932315, -3.446389145972856394 ) ) ;
#120 = CARTESIAN_POINT ( 'NONE',  ( 30.34131161871891180, 2.578039701514652560, -3.061638655239764972 ) ) ;
#121 = AXIS2_PLACEMENT_3D ( 'NONE', #150, #259, #171 ) ;
#122 = AXIS2_PLACEMENT_3D ( 'NONE', #208, #50, #31 ) ;
#123 = CARTESIAN_POINT ( 'NONE',  ( 30.26000311935772302, 3.864716196203775045, -1.043170549528570801 ) ) ;
#124 = CARTESIAN_POINT ( 'NONE',  ( 31.83361855642390026, 3.980054055151004633, 0.4012018038833777278 ) ) ;
#125 = CARTESIAN_POINT ( 'NONE',  ( 32.50000000000002842, 3.967605987857726113, 0.5080381138413849751 ) ) ;
#126 = CARTESIAN_POINT ( 'NONE',  ( 32.50000000000002842, 1.467154482749033484, -0.8950407613196320611 ) ) ;
#127 = DIRECTION ( 'NONE',  ( 0.000000000000000000, -0.5207916542268800075, -0.8536838131812208852 ) ) ;
#128 = CYLINDRICAL_SURFACE ( 'NONE', #83, 3.999999999999999112 ) ;
#129 = ORIENTED_EDGE ( 'NONE', *, *, #218, .T. ) ;
#130 =( LENGTH_UNIT ( ) NAMED_UNIT ( * ) SI_UNIT ( .MILLI., .METRE. ) );
#131 = ORIENTED_EDGE ( 'NONE', *, *, #109, .T. ) ;
#132 =( NAMED_UNIT ( * ) PLANE_ANGLE_UNIT ( ) SI_UNIT ( $, .RADIAN. ) );
#133 = DIRECTION ( 'NONE',  ( 0.000000000000000000, 0.5207916542268800075, 0.8536838131812209962 ) ) ;
#134 = ORIENTED_EDGE ( 'NONE', *, *, #239, .F. ) ;
#135 = CARTESIAN_POINT ( 'NONE',  ( 34.65957738077919714, 3.901635453157448197, -0.8929536927761407838 ) ) ;
#136 = CARTESIAN_POINT ( 'NONE',  ( 34.02805701099227065, 1.932088471549747721, -3.503983596068362516 ) ) ;
#137 = CARTESIAN_POINT ( 'NONE',  ( 31.67861488515992008, 1.521010750340202611, -3.700334230553430359 ) ) ;
#138 = ORIENTED_EDGE ( 'NONE', *, *, #239, .T. ) ;
#139 = ADVANCED_FACE ( 'NONE', ( #211 ), #53, .F. ) ;
#140 = MECHANICAL_DESIGN_GEOMETRIC_PRESENTATION_REPRESENTATION (  '', ( #159 ), #35 ) ;
#141 = ORIENTED_EDGE ( 'NONE', *, *, #98, .T. ) ;
#142 = DIRECTION ( 'NONE',  ( -1.000000000000000000, 0.000000000000000000, 0.000000000000000000 ) ) ;
#143 = PRODUCT_DEFINITION_SHAPE ( 'NONE', 'NONE',  #257 ) ;
#144 = CARTESIAN_POINT ( 'NONE',  ( 30.01635829140536060, 3.578345574917986660, -1.795219723416267454 ) ) ;
#145 = VECTOR ( 'NONE', #34, 1000.000000000000227 ) ;
#146 = CYLINDRICAL_SURFACE ( 'NONE', #203, 2.500000000001124434 ) ;
#147 = CARTESIAN_POINT ( 'NONE',  ( 31.67590129747854633, 3.986323673783533916, 0.3395727218866714248 ) ) ;
#148 = EDGE_CURVE ( 'NONE', #225, #242, #155, .T. ) ;
#149 = DIRECTION ( 'NONE',  ( 0.000000000000000000, 0.000000000000000000, 1.000000000000000000 ) ) ;
#150 = CARTESIAN_POINT ( 'NONE',  ( 32.50000000000002842, 1.467154482749033484, -0.8950407613196320611 ) ) ;
#151 =( NAMED_UNIT ( * ) SI_UNIT ( $, .STERADIAN. ) SOLID_ANGLE_UNIT ( ) );
#152 =( NAMED_UNIT ( * ) PLANE_ANGLE_UNIT ( ) SI_UNIT ( $, .RADIAN. ) );
#153 = ORIENTED_EDGE ( 'NONE', *, *, #148, .T. ) ;
#154 = CARTESIAN_POINT ( 'NONE',  ( 75.00000000000000000, 0.000000000000000000, 0.000000000000000000 ) ) ;
#155 = CIRCLE ( 'NONE', #226, 3.999999999999999112 ) ;
#156 = FILL_AREA_STYLE_COLOUR ( '', #104 ) ;
#157 = CARTESIAN_POINT ( 'NONE',  ( 33.62289884494267511, 1.663836760164656203, -3.638350570283884977 ) ) ;
#158 = CARTESIAN_POINT ( 'NONE',  ( 33.32147576255231769, 3.986218640624782150, 0.3405986042495641186 ) ) ;
#159 = STYLED_ITEM ( 'NONE', ( #258 ), #184 ) ;
#160 = CARTESIAN_POINT ( 'NONE',  ( 34.99963154769133666, 3.505477024223070170, -1.933980155775160137 ) ) ;
#161 = PRODUCT_DEFINITION_CONTEXT ( 'detailed design', #80, 'design' ) ;
#162 = CARTESIAN_POINT ( 'NONE',  ( 34.91706879840997857, 3.027146598920548826, -2.619832064197380461 ) ) ;
#163 = ADVANCED_FACE ( 'NONE', ( #196 ), #193, .F. ) ;
#164 = CARTESIAN_POINT ( 'NONE',  ( 33.77015112147302744, 4.001467004313070674, 0.1097618044621421068 ) ) ;
#165 = FACE_BOUND ( 'NONE', #240, .T. ) ;
#166 = CARTESIAN_POINT ( 'NONE',  ( 30.52058340273312709, 2.355840132211604931, -3.235728237863203294 ) ) ;
#167 = PLANE ( 'NONE',  #70 ) ;
#168 = LINE ( 'NONE', #249, #46 ) ;
#169 = EDGE_CURVE ( 'NONE', #213, #45, #91, .T. ) ;
#170 = FACE_OUTER_BOUND ( 'NONE', #221, .T. ) ;
#171 = DIRECTION ( 'NONE',  ( 0.000000000000000000, -0.5207916542268800075, -0.8536838131812208852 ) ) ;
#172 = FILL_AREA_STYLE ('',( #156 ) ) ;
#173 = PRODUCT ( 'Eje', 'Eje', '', ( #179 ) ) ;
#174 = SURFACE_STYLE_USAGE ( .BOTH. , #71 ) ;
#175 =( NAMED_UNIT ( * ) SI_UNIT ( $, .STERADIAN. ) SOLID_ANGLE_UNIT ( ) );
#176 = AXIS2_PLACEMENT_3D ( 'NONE', #87, #219, #133 ) ;
#177 = CARTESIAN_POINT ( 'NONE',  ( 32.67039512491203368, 3.967605987857724337, 0.5080381138413857522 ) ) ;
#178 = EDGE_LOOP ( 'NONE', ( #28, #134 ) ) ;
#179 = PRODUCT_CONTEXT ( 'NONE', #21, 'mechanical' ) ;
#180 = ORIENTED_EDGE ( 'NONE', *, *, #169, .T. ) ;
#181 = CARTESIAN_POINT ( 'NONE',  ( 34.47950518567154887, 3.955092082226645989, -0.6143062167077369962 ) ) ;
#182 = ORIENTED_EDGE ( 'NONE', *, *, #117, .T. ) ;
#183 = CARTESIAN_POINT ( 'NONE',  ( -75.00000000000000000, 0.000000000000000000, 0.000000000000000000 ) ) ;
#184 = MANIFOLD_SOLID_BREP ( 'Cut-Extrude2', #217 ) ;
#185 = CARTESIAN_POINT ( 'NONE',  ( 31.23424521953685229, 4.000292567561098522, 0.09185503848335334343 ) ) ;
#186 = DIRECTION ( 'NONE',  ( 1.000000000000000000, 0.000000000000000000, 0.000000000000000000 ) ) ;
#187 = CARTESIAN_POINT ( 'NONE',  ( 75.00000000000000000, 0.000000000000000000, 3.999999999999999112 ) ) ;
#188 = B_SPLINE_CURVE_WITH_KNOTS ( 'NONE', 3,
 ( #76, #177, #5, #60, #158, #164, #4, #74, #181, #135, #61, #57, #73, #115, #160, #2, #42, #162, #112, #228, #199, #119, #136, #72, #157, #56, #118, #202, #246, #75 ),
 .UNSPECIFIED., .F., .F.,
 ( 4, 2, 2, 2, 2, 2, 2, 2, 2, 2, 2, 2, 2, 2, 4 ),
 ( 0.000000000000000000, 0.0005023255598422099975, 0.001004651119684419995, 0.002009302239368858205, 0.002511627799211076876, 0.003013953359053295981, 0.003516278918895515953, 0.004018604478737734624, 0.004520930038579954596, 0.005023255598422172834, 0.006027906718106617115, 0.006530232277948839689, 0.007032557837791063131, 0.007534883397633284838, 0.008037208957475507412 ),
 .UNSPECIFIED. ) ;
#189 = PRESENTATION_LAYER_ASSIGNMENT (  '', '', ( #159 ) ) ;
#190 = DIRECTION ( 'NONE',  ( 0.000000000000000000, 0.000000000000000000, -1.000000000000000000 ) ) ;
#191 = ADVANCED_FACE ( 'NONE', ( #216 ), #128, .T. ) ;
#192 = SURFACE_STYLE_FILL_AREA ( #172 ) ;
#193 = CYLINDRICAL_SURFACE ( 'NONE', #176, 2.500000000001124434 ) ;
#194 = ORIENTED_EDGE ( 'NONE', *, *, #18, .T. ) ;
#195 = DIRECTION ( 'NONE',  ( 0.000000000000000000, 0.000000000000000000, 1.000000000000000000 ) ) ;
#196 = FACE_OUTER_BOUND ( 'NONE', #96, .T. ) ;
#197 = ORIENTED_EDGE ( 'NONE', *, *, #18, .F. ) ;
#198 = CARTESIAN_POINT ( 'NONE',  ( 54.80000000000000426, 0.000000000000000000, 3.999999999999999112 ) ) ;
#199 = CARTESIAN_POINT ( 'NONE',  ( 34.48995516971304198, 2.351206712242700725, -3.245672654055841821 ) ) ;
#200 = APPLICATION_PROTOCOL_DEFINITION ( 'draft international standard', 'automotive_design', 1998, #80 ) ;
#201 = ORIENTED_EDGE ( 'NONE', *, *, #252, .T. ) ;
#202 = CARTESIAN_POINT ( 'NONE',  ( 32.83841531585027695, 1.384806869859445788, -3.752878005925350813 ) ) ;
#203 = AXIS2_PLACEMENT_3D ( 'NONE', #126, #32, #101 ) ;
#204 = CARTESIAN_POINT ( 'NONE',  ( 32.50000000000002842, 1.363647716723912495, -3.760380952067710059 ) ) ;
#205 = CARTESIAN_POINT ( 'NONE',  ( -75.00000000000000000, 0.000000000000000000, 3.999999999999999112 ) ) ;
#206 = CARTESIAN_POINT ( 'NONE',  ( 30.08270894288371977, 3.714372028963135008, -1.493590084104134075 ) ) ;
#207 = CARTESIAN_POINT ( 'NONE',  ( 32.15927450488926098, 3.970668381360244581, 0.4853717901045016547 ) ) ;
#208 = CARTESIAN_POINT ( 'NONE',  ( 75.00000000000000000, 0.000000000000000000, 0.000000000000000000 ) ) ;
#209 = CARTESIAN_POINT ( 'NONE',  ( 32.50000000000002842, 0.1651753471812477669, -3.029250294273644339 ) ) ;
#210 = AXIS2_PLACEMENT_3D ( 'NONE', #183, #186, #190 ) ;
#211 = FACE_OUTER_BOUND ( 'NONE', #47, .T. ) ;
#212 = DIRECTION ( 'NONE',  ( 0.000000000000000000, 0.000000000000000000, 1.000000000000000000 ) ) ;
#213 = VERTEX_POINT ( 'NONE', #40 ) ;
#214 = VECTOR ( 'NONE', #238, 1000.000000000000000 ) ;
#215 = B_SPLINE_CURVE_WITH_KNOTS ( 'NONE', 3,
 ( #204, #43, #245, #58, #137, #224, #44, #232, #229, #233, #166, #120, #48, #9, #8, #12, #86, #250, #144, #206, #81, #123, #99, #30, #84, #100, #256, #185, #79, #147, #124, #207, #82, #64 ),
 .UNSPECIFIED., .F., .F.,
 ( 4, 2, 2, 2, 2, 2, 2, 2, 2, 2, 2, 2, 2, 2, 2, 2, 4 ),
 ( 0.008037208957475507412, 0.008538203743615468966, 0.009039198529755428785, 0.009540193315895390339, 0.01004118810203535016, 0.01054218288817530998, 0.01104317767431526980, 0.01154417246045522961, 0.01204516724659519117, 0.01254616203273515099, 0.01304715681887511081, 0.01354815160501507409, 0.01404914639115503391, 0.01455014117729499373, 0.01505113596343495355, 0.01555213074957491684, 0.01605312553571487666 ),
 .UNSPECIFIED. ) ;
#216 = FACE_OUTER_BOUND ( 'NONE', #1, .T. ) ;
#217 = CLOSED_SHELL ( 'NONE', ( #55, #49, #191, #227, #163, #93, #139 ) ) ;
#218 = EDGE_CURVE ( 'NONE', #23, #6, #20, .T. ) ;
#219 = DIRECTION ( 'NONE',  ( -2.073619932194005165E-15, 0.8536838131812208852, -0.5207916542268801186 ) ) ;
#220 = DIRECTION ( 'NONE',  ( 0.000000000000000000, 0.000000000000000000, 1.000000000000000000 ) ) ;
#221 = EDGE_LOOP ( 'NONE', ( #248, #201, #129, #94 ) ) ;
#222 = CARTESIAN_POINT ( 'NONE',  ( -75.00000000000000000, 4.898587196589411843E-16, -3.999999999999999112 ) ) ;
#223 = CARTESIAN_POINT ( 'NONE',  ( 32.50000000000002842, 1.363647716723912495, -3.760380952067710059 ) ) ;
#224 = CARTESIAN_POINT ( 'NONE',  ( 31.37945770417837466, 1.662507854560577591, -3.638957921435791221 ) ) ;
#225 = VERTEX_POINT ( 'NONE', #17 ) ;
#226 = AXIS2_PLACEMENT_3D ( 'NONE', #14, #69, #37 ) ;
#227 = ADVANCED_FACE ( 'NONE', ( #235 ), #105, .F. ) ;
#228 = CARTESIAN_POINT ( 'NONE',  ( 34.67517666305099056, 2.583239280005086957, -3.069905782470871092 ) ) ;
#229 = CARTESIAN_POINT ( 'NONE',  ( 30.84933546984489539, 2.032643202823270379, -3.447338091717879305 ) ) ;
#230 = CARTESIAN_POINT ( 'NONE',  ( 32.50000000000002842, 0.1651753471812475449, -3.029250294273644339 ) ) ;
#231 = DIRECTION ( 'NONE',  ( -1.000000000000000000, -0.000000000000000000, -0.000000000000000000 ) ) ;
#232 = CARTESIAN_POINT ( 'NONE',  ( 30.97169824787361136, 1.932289300204478977, -3.503870508908099701 ) ) ;
#233 = CARTESIAN_POINT ( 'NONE',  ( 30.62308531187445482, 2.244937954293396043, -3.313009491378748894 ) ) ;
#234 = LINE ( 'NONE', #36, #214 ) ;
#235 = FACE_OUTER_BOUND ( 'NONE', #27, .T. ) ;
#236 = ORIENTED_EDGE ( 'NONE', *, *, #109, .F. ) ;
#237 = PRODUCT_DEFINITION_FORMATION_WITH_SPECIFIED_SOURCE ( 'ANY', '', #173, .NOT_KNOWN. ) ;
#238 = DIRECTION ( 'NONE',  ( -1.000000000000000000, -0.000000000000000000, -0.000000000000000000 ) ) ;
#239 = EDGE_CURVE ( 'NONE', #45, #213, #29, .T. ) ;
#240 = EDGE_LOOP ( 'NONE', ( #197, #260 ) ) ;
#241 = APPLICATION_PROTOCOL_DEFINITION ( 'draft international standard', 'automotive_design', 1998, #21 ) ;
#242 = VERTEX_POINT ( 'NONE', #198 ) ;
#243 = VECTOR ( 'NONE', #231, 1000.000000000000000 ) ;
#244 = SHAPE_DEFINITION_REPRESENTATION ( #143, #254 ) ;
#245 = CARTESIAN_POINT ( 'NONE',  ( 32.16431294109449368, 1.384343693452153801, -3.753047253904104874 ) ) ;
#246 = CARTESIAN_POINT ( 'NONE',  ( 32.66988850557115853, 1.363647716723912051, -3.760380952067711835 ) ) ;
#247 = AXIS2_PLACEMENT_3D ( 'NONE', #90, #88, #110 ) ;
#248 = ORIENTED_EDGE ( 'NONE', *, *, #78, .T. ) ;
#249 = CARTESIAN_POINT ( 'NONE',  ( 32.50000000000002842, 2.769133618316819145, 1.239168771634380217 ) ) ;
#250 = CARTESIAN_POINT ( 'NONE',  ( 29.99969527313417927, 3.500550611750063545, -1.942863429953949339 ) ) ;
#251 = DIRECTION ( 'NONE',  ( 2.073619932194005560E-15, -0.8536838131812209962, 0.5207916542268802296 ) ) ;
#252 = EDGE_CURVE ( 'NONE', #225, #23, #234, .T. ) ;
#253 = AXIS2_PLACEMENT_3D ( 'NONE', #15, #19, #127 ) ;
#254 = ADVANCED_BREP_SHAPE_REPRESENTATION ( 'Eje', ( #184, #114 ), #33 ) ;
#255 = CARTESIAN_POINT ( 'NONE',  ( 54.80000000000000426, 0.000000000000000000, 0.000000000000000000 ) ) ;
#256 = CARTESIAN_POINT ( 'NONE',  ( 30.97083431506836959, 3.999671662869233923, -0.1157780783231300847 ) ) ;
#257 = PRODUCT_DEFINITION ( 'UNKNOWN', '', #237, #161 ) ;
#258 = PRESENTATION_STYLE_ASSIGNMENT (( #174 ) ) ;
#259 = DIRECTION ( 'NONE',  ( 2.073619932194005165E-15, -0.8536838131812209962, 0.5207916542268801186 ) ) ;
#260 = ORIENTED_EDGE ( 'NONE', *, *, #26, .F. ) ;
#261 = DIRECTION ( 'NONE',  ( 1.000000000000000000, 0.000000000000000000, 0.000000000000000000 ) ) ;
ENDSEC;
END-ISO-10303-21;
