ISO-10303-21;
HEADER;
FILE_DESCRIPTION (( 'STEP AP214' ),
    '1' );
FILE_NAME ('Tapa_Turbina.STEP',
    '2026-05-03T19:45:57',
    ( '' ),
    ( '' ),
    'SwSTEP 2.0',
    'SolidWorks 2025',
    '' );
FILE_SCHEMA (( 'AUTOMOTIVE_DESIGN' ));
ENDSEC;

DATA;
#1 = LINE ( 'NONE', #322, #931 ) ;
#2 = VERTEX_POINT ( 'NONE', #35 ) ;
#3 = EDGE_CURVE ( 'NONE', #314, #1285, #1297, .T. ) ;
#4 = DIRECTION ( 'NONE',  ( 1.000000000000000000, 0.000000000000000000, 0.000000000000000000 ) ) ;
#5 = CARTESIAN_POINT ( 'NONE',  ( 36.76955262170046268, -36.76955262170046268, 0.000000000000000000 ) ) ;
#6 = ORIENTED_EDGE ( 'NONE', *, *, #393, .F. ) ;
#7 = DIRECTION ( 'NONE',  ( 1.000000000000000000, 0.000000000000000000, 0.000000000000000000 ) ) ;
#8 = CARTESIAN_POINT ( 'NONE',  ( 33.94112549695427816, -33.94112549695427816, 5.000000000000000000 ) ) ;
#9 = EDGE_LOOP ( 'NONE', ( #184, #923, #1337, #593 ) ) ;
#10 = FACE_BOUND ( 'NONE', #868, .T. ) ;
#11 = CARTESIAN_POINT ( 'NONE',  ( -33.94112549695431369, -33.94112549695422132, 0.000000000000000000 ) ) ;
#12 = CIRCLE ( 'NONE', #477, 3.999999999999996447 ) ;
#13 = CARTESIAN_POINT ( 'NONE',  ( -34.00682253830707680, 28.34996828881513764, 0.000000000000000000 ) ) ;
#14 = ADVANCED_FACE ( 'NONE', ( #1012 ), #257, .F. ) ;
#15 = ORIENTED_EDGE ( 'NONE', *, *, #1126, .T. ) ;
#16 = CARTESIAN_POINT ( 'NONE',  ( -31.94112549695431014, -33.94112549695422132, 0.000000000000000000 ) ) ;
#17 = CARTESIAN_POINT ( 'NONE',  ( -33.94112549695415026, 33.94112549695435632, 0.000000000000000000 ) ) ;
#18 = CARTESIAN_POINT ( 'NONE',  ( 0.000000000000000000, 0.000000000000000000, 0.000000000000000000 ) ) ;
#19 = DIRECTION ( 'NONE',  ( 0.000000000000000000, 0.000000000000000000, 1.000000000000000000 ) ) ;
#20 = VERTEX_POINT ( 'NONE', #787 ) ;
#21 = CARTESIAN_POINT ( 'NONE',  ( 4.000000000000000000, 0.000000000000000000, 5.000000000000000000 ) ) ;
#22 = VECTOR ( 'NONE', #516, 1000.000000000000000 ) ;
#23 = DIRECTION ( 'NONE',  ( 1.000000000000000000, 0.000000000000000000, 0.000000000000000000 ) ) ;
#24 = EDGE_CURVE ( 'NONE', #20, #426, #373, .T. ) ;
#25 = ORIENTED_EDGE ( 'NONE', *, *, #1013, .F. ) ;
#26 = CARTESIAN_POINT ( 'NONE',  ( -39.59797974644663299, -33.94112549695428527, 5.000000000000000000 ) ) ;
#27 = EDGE_LOOP ( 'NONE', ( #1230, #1016, #1326, #768 ) ) ;
#28 = EDGE_CURVE ( 'NONE', #20, #1332, #681, .T. ) ;
#29 = AXIS2_PLACEMENT_3D ( 'NONE', #1024, #1238, #502 ) ;
#30 = CARTESIAN_POINT ( 'NONE',  ( 0.000000000000000000, 0.000000000000000000, -7.000000000000000000 ) ) ;
#31 = CARTESIAN_POINT ( 'NONE',  ( 33.94112549695443448, 33.94112549695410053, 0.000000000000000000 ) ) ;
#32 = DIRECTION ( 'NONE',  ( 0.000000000000000000, 0.000000000000000000, 1.000000000000000000 ) ) ;
#33 = ORIENTED_EDGE ( 'NONE', *, *, #647, .F. ) ;
#34 = DIRECTION ( 'NONE',  ( -0.000000000000000000, -0.000000000000000000, -1.000000000000000000 ) ) ;
#35 = CARTESIAN_POINT ( 'NONE',  ( -31.11269837220806522, -36.76955262170034899, 5.000000000000000000 ) ) ;
#36 = CARTESIAN_POINT ( 'NONE',  ( 33.94112549695443448, 33.94112549695410053, 5.000000000000000000 ) ) ;
#37 = AXIS2_PLACEMENT_3D ( 'NONE', #1288, #339, #989 ) ;
#38 = EDGE_LOOP ( 'NONE', ( #1312, #813, #1223, #25 ) ) ;
#39 = EDGE_CURVE ( 'NONE', #1006, #136, #779, .T. ) ;
#40 = CIRCLE ( 'NONE', #1237, 2.000000000000001776 ) ;
#41 = AXIS2_PLACEMENT_3D ( 'NONE', #846, #187, #1367 ) ;
#42 = DIRECTION ( 'NONE',  ( 0.000000000000000000, 0.000000000000000000, -1.000000000000000000 ) ) ;
#43 = DIRECTION ( 'NONE',  ( -0.000000000000000000, -0.000000000000000000, -1.000000000000000000 ) ) ;
#44 = CARTESIAN_POINT ( 'NONE',  ( -33.94112549695426395, 39.59797974644662588, 0.000000000000000000 ) ) ;
#45 = LINE ( 'NONE', #475, #883 ) ;
#46 = ORIENTED_EDGE ( 'NONE', *, *, #1030, .F. ) ;
#47 = ADVANCED_FACE ( 'NONE', ( #581 ), #159, .T. ) ;
#48 = DIRECTION ( 'NONE',  ( 1.000000000000000000, 0.000000000000000000, 0.000000000000000000 ) ) ;
#49 = DIRECTION ( 'NONE',  ( 0.7071067811865061614, 0.7071067811865889841, 0.000000000000000000 ) ) ;
#50 = UNCERTAINTY_MEASURE_WITH_UNIT (LENGTH_MEASURE( 1.000000000000000082E-05 ), #169, 'distance_accuracy_value', 'NONE');
#51 = DIRECTION ( 'NONE',  ( 0.000000000000000000, 0.000000000000000000, 1.000000000000000000 ) ) ;
#52 = CARTESIAN_POINT ( 'NONE',  ( -31.94112549695414671, 33.94112549695435632, 0.000000000000000000 ) ) ;
#53 = VERTEX_POINT ( 'NONE', #481 ) ;
#54 = VERTEX_POINT ( 'NONE', #251 ) ;
#55 = ORIENTED_EDGE ( 'NONE', *, *, #786, .T. ) ;
#56 = DIRECTION ( 'NONE',  ( 0.000000000000000000, 0.000000000000000000, 1.000000000000000000 ) ) ;
#57 = VERTEX_POINT ( 'NONE', #270 ) ;
#58 = DIRECTION ( 'NONE',  ( -0.000000000000000000, -0.000000000000000000, -1.000000000000000000 ) ) ;
#59 = AXIS2_PLACEMENT_3D ( 'NONE', #438, #1036, #609 ) ;
#60 = ORIENTED_EDGE ( 'NONE', *, *, #254, .F. ) ;
#61 = EDGE_CURVE ( 'NONE', #407, #632, #1338, .T. ) ;
#62 = DIRECTION ( 'NONE',  ( -0.000000000000000000, -0.000000000000000000, 1.000000000000000000 ) ) ;
#63 = DIRECTION ( 'NONE',  ( -1.000000000000000000, 0.000000000000000000, 0.000000000000000000 ) ) ;
#64 = VERTEX_POINT ( 'NONE', #691 ) ;
#65 = CIRCLE ( 'NONE', #243, 45.00000000000000711 ) ;
#66 = EDGE_CURVE ( 'NONE', #890, #210, #743, .T. ) ;
#67 = ORIENTED_EDGE ( 'NONE', *, *, #1318, .T. ) ;
#68 = DIRECTION ( 'NONE',  ( 0.000000000000000000, 0.000000000000000000, 1.000000000000000000 ) ) ;
#69 = DIRECTION ( 'NONE',  ( 1.000000000000000000, 0.000000000000000000, 0.000000000000000000 ) ) ;
#70 = VECTOR ( 'NONE', #548, 1000.000000000000000 ) ;
#71 = CARTESIAN_POINT ( 'NONE',  ( 33.94112549695443448, 33.94112549695410053, 0.000000000000000000 ) ) ;
#72 = ORIENTED_EDGE ( 'NONE', *, *, #165, .T. ) ;
#73 = CARTESIAN_POINT ( 'NONE',  ( 34.52227510822742573, 28.86542085873444563, 5.000000000000000000 ) ) ;
#74 = CARTESIAN_POINT ( 'NONE',  ( 36.76955262170046979, -36.76955262170046268, 0.000000000000000000 ) ) ;
#75 = ORIENTED_EDGE ( 'NONE', *, *, #216, .T. ) ;
#76 = DIRECTION ( 'NONE',  ( -0.000000000000000000, -0.000000000000000000, 1.000000000000000000 ) ) ;
#77 = DIRECTION ( 'NONE',  ( 0.7071067811865624497, -0.7071067811865326957, 0.000000000000000000 ) ) ;
#78 = FACE_OUTER_BOUND ( 'NONE', #419, .T. ) ;
#79 = ORIENTED_EDGE ( 'NONE', *, *, #957, .F. ) ;
#80 = CARTESIAN_POINT ( 'NONE',  ( 0.000000000000000000, 0.000000000000000000, 5.000000000000000000 ) ) ;
#81 = ADVANCED_FACE ( 'NONE', ( #474 ), #1304, .T. ) ;
#82 = EDGE_LOOP ( 'NONE', ( #847, #383 ) ) ;
#83 = VECTOR ( 'NONE', #1195, 1000.000000000000000 ) ;
#84 = DIRECTION ( 'NONE',  ( -0.7071067811865058284, -0.7071067811865892061, -0.000000000000000000 ) ) ;
#85 = PLANE ( 'NONE',  #965 ) ;
#86 = EDGE_CURVE ( 'NONE', #492, #99, #762, .T. ) ;
#87 = AXIS2_PLACEMENT_3D ( 'NONE', #1247, #296, #411 ) ;
#88 = CYLINDRICAL_SURFACE ( 'NONE', #758, 4.000000000000000000 ) ;
#89 = EDGE_LOOP ( 'NONE', ( #223, #1298, #1123, #153 ) ) ;
#90 = DIRECTION ( 'NONE',  ( 0.7071067811865326957, 0.7071067811865624497, -0.000000000000000000 ) ) ;
#91 = EDGE_LOOP ( 'NONE', ( #994, #1011, #1292, #978 ) ) ;
#92 = CARTESIAN_POINT ( 'NONE',  ( 0.000000000000000000, 0.000000000000000000, 5.000000000000000000 ) ) ;
#93 = DIRECTION ( 'NONE',  ( 1.000000000000000000, 0.000000000000000000, 0.000000000000000000 ) ) ;
#94 = DIRECTION ( 'NONE',  ( 0.000000000000000000, 0.000000000000000000, 1.000000000000000000 ) ) ;
#95 = ORIENTED_EDGE ( 'NONE', *, *, #183, .T. ) ;
#96 = EDGE_LOOP ( 'NONE', ( #1091, #982 ) ) ;
#97 = VECTOR ( 'NONE', #1165, 1000.000000000000000 ) ;
#98 = FACE_OUTER_BOUND ( 'NONE', #909, .T. ) ;
#99 = VERTEX_POINT ( 'NONE', #1262 ) ;
#100 = CARTESIAN_POINT ( 'NONE',  ( 11.00000000000000000, 0.000000000000000000, 0.000000000000000000 ) ) ;
#101 = LINE ( 'NONE', #1163, #795 ) ;
#102 = ORIENTED_EDGE ( 'NONE', *, *, #894, .F. ) ;
#103 = CARTESIAN_POINT ( 'NONE',  ( 0.000000000000000000, 0.000000000000000000, 5.000000000000000000 ) ) ;
#104 = PLANE ( 'NONE',  #423 ) ;
#105 = ADVANCED_FACE ( 'NONE', ( #1039 ), #85, .T. ) ;
#106 = ORIENTED_EDGE ( 'NONE', *, *, #986, .T. ) ;
#107 = CIRCLE ( 'NONE', #614, 11.00000000000000000 ) ;
#108 = CARTESIAN_POINT ( 'NONE',  ( 13.00000000000000178, 0.000000000000000000, -7.000000000000000000 ) ) ;
#109 = VECTOR ( 'NONE', #374, 1000.000000000000000 ) ;
#110 = DIRECTION ( 'NONE',  ( -0.000000000000000000, -0.000000000000000000, 1.000000000000000000 ) ) ;
#111 = ORIENTED_EDGE ( 'NONE', *, *, #145, .F. ) ;
#112 = AXIS2_PLACEMENT_3D ( 'NONE', #287, #623, #936 ) ;
#113 = CARTESIAN_POINT ( 'NONE',  ( 37.94112549695442738, 33.94112549695410053, 5.000000000000000000 ) ) ;
#114 = DIRECTION ( 'NONE',  ( 0.000000000000000000, 0.000000000000000000, 1.000000000000000000 ) ) ;
#115 = EDGE_CURVE ( 'NONE', #1268, #723, #410, .T. ) ;
#116 = CYLINDRICAL_SURFACE ( 'NONE', #956, 4.000000000000000000 ) ;
#117 = CARTESIAN_POINT ( 'NONE',  ( -11.00000000000000000, 1.347111479062088405E-15, 0.000000000000000000 ) ) ;
#118 = ORIENTED_EDGE ( 'NONE', *, *, #799, .F. ) ;
#119 = CARTESIAN_POINT ( 'NONE',  ( -33.94112549695431369, -33.94112549695421421, 0.000000000000000000 ) ) ;
#120 = FACE_OUTER_BOUND ( 'NONE', #27, .T. ) ;
#121 = AXIS2_PLACEMENT_3D ( 'NONE', #275, #1358, #734 ) ;
#122 = DIRECTION ( 'NONE',  ( 1.000000000000000000, 0.000000000000000000, 0.000000000000000000 ) ) ;
#123 = ORIENTED_EDGE ( 'NONE', *, *, #763, .T. ) ;
#124 = CARTESIAN_POINT ( 'NONE',  ( 4.000000000000000000, 0.000000000000000000, 0.000000000000000000 ) ) ;
#125 = EDGE_CURVE ( 'NONE', #350, #554, #206, .T. ) ;
#126 = DIRECTION ( 'NONE',  ( 0.000000000000000000, 0.000000000000000000, 1.000000000000000000 ) ) ;
#127 = LINE ( 'NONE', #310, #939 ) ;
#128 = EDGE_CURVE ( 'NONE', #134, #429, #294, .T. ) ;
#129 = AXIS2_PLACEMENT_3D ( 'NONE', #841, #850, #748 ) ;
#130 = EDGE_LOOP ( 'NONE', ( #102, #343, #1368, #489 ) ) ;
#131 = CARTESIAN_POINT ( 'NONE',  ( -33.94112549695431369, -33.94112549695422132, 0.000000000000000000 ) ) ;
#132 = EDGE_LOOP ( 'NONE', ( #961, #297, #67, #1205 ) ) ;
#133 = AXIS2_PLACEMENT_3D ( 'NONE', #385, #809, #341 ) ;
#134 = VERTEX_POINT ( 'NONE', #409 ) ;
#135 = DIRECTION ( 'NONE',  ( -0.000000000000000000, -0.000000000000000000, -1.000000000000000000 ) ) ;
#136 = VERTEX_POINT ( 'NONE', #1366 ) ;
#137 = AXIS2_PLACEMENT_3D ( 'NONE', #774, #458, #674 ) ;
#138 = CYLINDRICAL_SURFACE ( 'NONE', #168, 2.000000000000001776 ) ;
#139 = EDGE_CURVE ( 'NONE', #486, #613, #499, .T. ) ;
#140 = ORIENTED_EDGE ( 'NONE', *, *, #622, .T. ) ;
#141 = CARTESIAN_POINT ( 'NONE',  ( -33.94112549695431369, -33.94112549695422132, 5.000000000000000000 ) ) ;
#142 = EDGE_LOOP ( 'NONE', ( #175, #453, #958, #6 ) ) ;
#143 = LINE ( 'NONE', #182, #191 ) ;
#144 = DIRECTION ( 'NONE',  ( 1.000000000000000000, 0.000000000000000000, 0.000000000000000000 ) ) ;
#145 = EDGE_CURVE ( 'NONE', #188, #327, #1162, .T. ) ;
#146 = CARTESIAN_POINT ( 'NONE',  ( -33.94112549695426395, 39.59797974644662588, 0.000000000000000000 ) ) ;
#147 = CIRCLE ( 'NONE', #332, 2.000000000000001776 ) ;
#148 = ORIENTED_EDGE ( 'NONE', *, *, #1114, .T. ) ;
#149 = AXIS2_PLACEMENT_3D ( 'NONE', #908, #687, #63 ) ;
#150 = AXIS2_PLACEMENT_3D ( 'NONE', #92, #1231, #1160 ) ;
#151 = DIRECTION ( 'NONE',  ( -0.7071067811865058284, -0.7071067811865892061, -0.000000000000000000 ) ) ;
#152 = PLANE ( 'NONE',  #550 ) ;
#153 = ORIENTED_EDGE ( 'NONE', *, *, #1126, .F. ) ;
#154 = DIRECTION ( 'NONE',  ( 0.7071067811865474617, -0.7071067811865474617, -0.000000000000000000 ) ) ;
#155 = DIRECTION ( 'NONE',  ( -0.7071067811865765496, 0.7071067811865185959, -0.000000000000000000 ) ) ;
#156 = ORIENTED_EDGE ( 'NONE', *, *, #529, .T. ) ;
#157 = AXIS2_PLACEMENT_3D ( 'NONE', #1327, #1119, #23 ) ;
#158 = AXIS2_PLACEMENT_3D ( 'NONE', #912, #829, #1151 ) ;
#159 = CYLINDRICAL_SURFACE ( 'NONE', #1227, 3.999999999999996447 ) ;
#160 = DIRECTION ( 'NONE',  ( 1.000000000000000000, 3.469446951953617344E-15, 0.000000000000000000 ) ) ;
#161 = ORIENTED_EDGE ( 'NONE', *, *, #1302, .T. ) ;
#162 = EDGE_CURVE ( 'NONE', #57, #426, #1054, .T. ) ;
#163 = ORIENTED_EDGE ( 'NONE', *, *, #566, .F. ) ;
#164 = CARTESIAN_POINT ( 'NONE',  ( -33.94112549695415026, 33.94112549695435632, 5.000000000000000000 ) ) ;
#165 = EDGE_CURVE ( 'NONE', #767, #890, #597, .T. ) ;
#166 = DIRECTION ( 'NONE',  ( 0.000000000000000000, 0.000000000000000000, 1.000000000000000000 ) ) ;
#167 = ORIENTED_EDGE ( 'NONE', *, *, #293, .T. ) ;
#168 = AXIS2_PLACEMENT_3D ( 'NONE', #818, #1243, #48 ) ;
#169 =( LENGTH_UNIT ( ) NAMED_UNIT ( * ) SI_UNIT ( .MILLI., .METRE. ) );
#170 = CARTESIAN_POINT ( 'NONE',  ( 33.94112549695443448, 33.94112549695410053, 5.000000000000000000 ) ) ;
#171 = CARTESIAN_POINT ( 'NONE',  ( -33.94112549695431369, -33.94112549695422132, 0.000000000000000000 ) ) ;
#172 = VERTEX_POINT ( 'NONE', #836 ) ;
#173 = CARTESIAN_POINT ( 'NONE',  ( -28.86542085873455932, 34.52227510822733336, 5.000000000000000000 ) ) ;
#174 = DIRECTION ( 'NONE',  ( 0.000000000000000000, 0.000000000000000000, 1.000000000000000000 ) ) ;
#175 = ORIENTED_EDGE ( 'NONE', *, *, #216, .F. ) ;
#176 = CYLINDRICAL_SURFACE ( 'NONE', #358, 3.999999999999996447 ) ;
#177 = DIRECTION ( 'NONE',  ( 0.000000000000000000, 0.000000000000000000, 1.000000000000000000 ) ) ;
#178 = VECTOR ( 'NONE', #201, 1000.000000000000000 ) ;
#179 = EDGE_CURVE ( 'NONE', #708, #53, #247, .T. ) ;
#180 = CARTESIAN_POINT ( 'NONE',  ( 33.94112549695443448, 33.94112549695410053, 0.000000000000000000 ) ) ;
#181 = ORIENTED_EDGE ( 'NONE', *, *, #799, .T. ) ;
#182 = CARTESIAN_POINT ( 'NONE',  ( -35.94112549695431369, -33.94112549695422132, 0.000000000000000000 ) ) ;
#183 = EDGE_CURVE ( 'NONE', #549, #510, #324, .T. ) ;
#184 = ORIENTED_EDGE ( 'NONE', *, *, #28, .T. ) ;
#185 = FILL_AREA_STYLE ('',( #814 ) ) ;
#186 = DIRECTION ( 'NONE',  ( 1.000000000000000000, 0.000000000000000000, 0.000000000000000000 ) ) ;
#187 = DIRECTION ( 'NONE',  ( -0.000000000000000000, -0.000000000000000000, -1.000000000000000000 ) ) ;
#188 = VERTEX_POINT ( 'NONE', #392 ) ;
#189 = FACE_OUTER_BOUND ( 'NONE', #395, .T. ) ;
#190 = DIRECTION ( 'NONE',  ( 0.000000000000000000, 0.000000000000000000, 1.000000000000000000 ) ) ;
#191 = VECTOR ( 'NONE', #884, 1000.000000000000000 ) ;
#192 = ORIENTED_EDGE ( 'NONE', *, *, #1356, .F. ) ;
#193 = AXIS2_PLACEMENT_3D ( 'NONE', #1020, #675, #587 ) ;
#194 = CARTESIAN_POINT ( 'NONE',  ( 0.000000000000000000, 0.000000000000000000, 0.000000000000000000 ) ) ;
#195 = CARTESIAN_POINT ( 'NONE',  ( -33.94112549695431369, -33.94112549695422132, 0.000000000000000000 ) ) ;
#196 = CARTESIAN_POINT ( 'NONE',  ( -28.86542085873487906, -34.52227510822706336, 0.000000000000000000 ) ) ;
#197 = VERTEX_POINT ( 'NONE', #1018 ) ;
#198 = DIRECTION ( 'NONE',  ( 0.000000000000000000, 0.000000000000000000, 1.000000000000000000 ) ) ;
#199 = EDGE_LOOP ( 'NONE', ( #263, #838, #1043, #666 ) ) ;
#200 = FACE_OUTER_BOUND ( 'NONE', #875, .T. ) ;
#201 = DIRECTION ( 'NONE',  ( -0.000000000000000000, -0.000000000000000000, 1.000000000000000000 ) ) ;
#202 = DIRECTION ( 'NONE',  ( 0.000000000000000000, 0.000000000000000000, 1.000000000000000000 ) ) ;
#203 = CARTESIAN_POINT ( 'NONE',  ( 34.52227510822742573, 28.86542085873444918, 5.000000000000000000 ) ) ;
#204 = ADVANCED_FACE ( 'NONE', ( #493 ), #917, .T. ) ;
#205 = EDGE_LOOP ( 'NONE', ( #533, #751 ) ) ;
#206 = CIRCLE ( 'NONE', #121, 13.00000000000000178 ) ;
#207 = LINE ( 'NONE', #633, #872 ) ;
#208 = DIRECTION ( 'NONE',  ( -0.000000000000000000, -0.000000000000000000, 1.000000000000000000 ) ) ;
#209 = VECTOR ( 'NONE', #1209, 1000.000000000000000 ) ;
#210 = VERTEX_POINT ( 'NONE', #401 ) ;
#211 = EDGE_CURVE ( 'NONE', #632, #696, #1334, .T. ) ;
#212 = CARTESIAN_POINT ( 'NONE',  ( 33.94112549695427816, -33.94112549695427816, 0.000000000000000000 ) ) ;
#213 = CARTESIAN_POINT ( 'NONE',  ( 31.94112549695443093, 33.94112549695410053, 0.000000000000000000 ) ) ;
#214 = CARTESIAN_POINT ( 'NONE',  ( 36.76955262170046979, -36.76955262170046268, 5.000000000000000000 ) ) ;
#215 = VERTEX_POINT ( 'NONE', #1343 ) ;
#216 = EDGE_CURVE ( 'NONE', #432, #484, #1274, .T. ) ;
#217 = DIRECTION ( 'NONE',  ( 0.7071067811865766606, -0.7071067811865182628, 0.000000000000000000 ) ) ;
#218 = DIRECTION ( 'NONE',  ( 1.000000000000000000, 0.000000000000000000, 0.000000000000000000 ) ) ;
#219 = ORIENTED_EDGE ( 'NONE', *, *, #1025, .T. ) ;
#220 = AXIS2_PLACEMENT_3D ( 'NONE', #131, #32, #764 ) ;
#221 = DIRECTION ( 'NONE',  ( -0.000000000000000000, -0.000000000000000000, 1.000000000000000000 ) ) ;
#222 = CIRCLE ( 'NONE', #999, 2.000000000000001776 ) ;
#223 = ORIENTED_EDGE ( 'NONE', *, *, #677, .T. ) ;
#224 = DIRECTION ( 'NONE',  ( -0.7071067811865183739, -0.7071067811865767716, 0.000000000000000000 ) ) ;
#225 = LINE ( 'NONE', #349, #865 ) ;
#226 = DIRECTION ( 'NONE',  ( -0.000000000000000000, -0.000000000000000000, 1.000000000000000000 ) ) ;
#227 = VERTEX_POINT ( 'NONE', #1232 ) ;
#228 = EDGE_CURVE ( 'NONE', #554, #350, #1142, .T. ) ;
#229 = CARTESIAN_POINT ( 'NONE',  ( -45.00000000000000711, 0.000000000000000000, 0.000000000000000000 ) ) ;
#230 = AXIS2_PLACEMENT_3D ( 'NONE', #625, #832, #378 ) ;
#231 = ADVANCED_FACE ( 'NONE', ( #943 ), #1048, .T. ) ;
#232 = CARTESIAN_POINT ( 'NONE',  ( 0.000000000000000000, 0.000000000000000000, -7.000000000000000000 ) ) ;
#233 = ORIENTED_EDGE ( 'NONE', *, *, #745, .F. ) ;
#234 = DIRECTION ( 'NONE',  ( 0.000000000000000000, 0.000000000000000000, 1.000000000000000000 ) ) ;
#235 = DIRECTION ( 'NONE',  ( 1.000000000000000000, 0.000000000000000000, 0.000000000000000000 ) ) ;
#236 = AXIS2_PLACEMENT_3D ( 'NONE', #279, #1200, #359 ) ;
#237 = EDGE_LOOP ( 'NONE', ( #586, #1034, #746, #807 ) ) ;
#238 = DIRECTION ( 'NONE',  ( 0.000000000000000000, 0.000000000000000000, 1.000000000000000000 ) ) ;
#239 = ORIENTED_EDGE ( 'NONE', *, *, #808, .F. ) ;
#240 = AXIS2_PLACEMENT_3D ( 'NONE', #1264, #726, #607 ) ;
#241 = EDGE_CURVE ( 'NONE', #327, #1307, #985, .T. ) ;
#242 = FACE_OUTER_BOUND ( 'NONE', #1244, .T. ) ;
#243 = AXIS2_PLACEMENT_3D ( 'NONE', #1068, #747, #325 ) ;
#244 = DIRECTION ( 'NONE',  ( -0.7071067811865765496, 0.7071067811865185959, 0.000000000000000000 ) ) ;
#245 = DIRECTION ( 'NONE',  ( -0.000000000000000000, -0.000000000000000000, 1.000000000000000000 ) ) ;
#246 = ORIENTED_EDGE ( 'NONE', *, *, #3, .F. ) ;
#247 = CIRCLE ( 'NONE', #29, 45.00000000000000711 ) ;
#248 = FACE_OUTER_BOUND ( 'NONE', #895, .T. ) ;
#249 = CARTESIAN_POINT ( 'NONE',  ( 36.76955262170046268, -31.11269837220809009, 0.000000000000000000 ) ) ;
#250 = VECTOR ( 'NONE', #154, 1000.000000000000114 ) ;
#251 = CARTESIAN_POINT ( 'NONE',  ( -36.76955262170056926, -31.11269837220809720, 0.000000000000000000 ) ) ;
#252 = DIRECTION ( 'NONE',  ( 0.000000000000000000, 0.000000000000000000, 1.000000000000000000 ) ) ;
#253 = EDGE_LOOP ( 'NONE', ( #435, #404, #565, #1027 ) ) ;
#254 = EDGE_CURVE ( 'NONE', #53, #610, #772, .T. ) ;
#255 = DIRECTION ( 'NONE',  ( -0.000000000000000000, -0.000000000000000000, -1.000000000000000000 ) ) ;
#256 = CARTESIAN_POINT ( 'NONE',  ( 11.00000000000000000, 0.000000000000000000, -7.000000000000000000 ) ) ;
#257 = CYLINDRICAL_SURFACE ( 'NONE', #988, 2.000000000000001776 ) ;
#258 = DIRECTION ( 'NONE',  ( 0.7071067811865061614, 0.7071067811865889841, -0.000000000000000000 ) ) ;
#259 = CIRCLE ( 'NONE', #1374, 2.000000000000001776 ) ;
#260 = ORIENTED_EDGE ( 'NONE', *, *, #602, .T. ) ;
#261 = CIRCLE ( 'NONE', #756, 4.000000000000000000 ) ;
#262 = AXIS2_PLACEMENT_3D ( 'NONE', #1241, #541, #711 ) ;
#263 = ORIENTED_EDGE ( 'NONE', *, *, #881, .F. ) ;
#264 = CARTESIAN_POINT ( 'NONE',  ( 33.94112549695443448, 33.94112549695410053, 5.000000000000000000 ) ) ;
#265 = AXIS2_PLACEMENT_3D ( 'NONE', #649, #1074, #954 ) ;
#266 = ORIENTED_EDGE ( 'NONE', *, *, #870, .T. ) ;
#267 = EDGE_CURVE ( 'NONE', #613, #897, #384, .T. ) ;
#268 = ORIENTED_EDGE ( 'NONE', *, *, #1060, .F. ) ;
#269 = ADVANCED_FACE ( 'NONE', ( #280 ), #1101, .F. ) ;
#270 = CARTESIAN_POINT ( 'NONE',  ( -28.86542085873487906, -34.52227510822706336, 5.000000000000000000 ) ) ;
#271 = CARTESIAN_POINT ( 'NONE',  ( -4.000000000000000000, 4.898587196589412829E-16, 5.000000000000000000 ) ) ;
#272 = VERTEX_POINT ( 'NONE', #1340 ) ;
#273 = VERTEX_POINT ( 'NONE', #256 ) ;
#274 = CARTESIAN_POINT ( 'NONE',  ( 33.94112549695427816, -33.94112549695427816, 0.000000000000000000 ) ) ;
#275 = CARTESIAN_POINT ( 'NONE',  ( 0.000000000000000000, 0.000000000000000000, -7.000000000000000000 ) ) ;
#276 = CYLINDRICAL_SURFACE ( 'NONE', #398, 2.000000000000001776 ) ;
#277 = ORIENTED_EDGE ( 'NONE', *, *, #1114, .F. ) ;
#278 = VECTOR ( 'NONE', #564, 1000.000000000000114 ) ;
#279 = CARTESIAN_POINT ( 'NONE',  ( 0.000000000000000000, 0.000000000000000000, 5.000000000000000000 ) ) ;
#280 = FACE_OUTER_BOUND ( 'NONE', #199, .T. ) ;
#281 = AXIS2_PLACEMENT_3D ( 'NONE', #141, #569, #995 ) ;
#282 = VERTEX_POINT ( 'NONE', #249 ) ;
#283 = AXIS2_PLACEMENT_3D ( 'NONE', #830, #1255, #434 ) ;
#284 = EDGE_CURVE ( 'NONE', #696, #486, #1095, .T. ) ;
#285 = CARTESIAN_POINT ( 'NONE',  ( -36.76955262170056926, -31.11269837220809364, 0.000000000000000000 ) ) ;
#286 = CARTESIAN_POINT ( 'NONE',  ( -45.00000000000000711, 0.000000000000000000, 5.000000000000000000 ) ) ;
#287 = CARTESIAN_POINT ( 'NONE',  ( 34.00682253830728996, -28.34996828881491027, 0.000000000000000000 ) ) ;
#288 = EDGE_LOOP ( 'NONE', ( #919, #1373, #712, #843 ) ) ;
#289 = EDGE_CURVE ( 'NONE', #576, #1276, #436, .T. ) ;
#290 = DIRECTION ( 'NONE',  ( 0.000000000000000000, 0.000000000000000000, 1.000000000000000000 ) ) ;
#291 = ORIENTED_EDGE ( 'NONE', *, *, #1361, .T. ) ;
#292 = SURFACE_STYLE_FILL_AREA ( #185 ) ;
#293 = EDGE_CURVE ( 'NONE', #996, #54, #1364, .T. ) ;
#294 = LINE ( 'NONE', #1253, #898 ) ;
#295 = AXIS2_PLACEMENT_3D ( 'NONE', #1032, #77, #823 ) ;
#296 = DIRECTION ( 'NONE',  ( 0.000000000000000000, 0.000000000000000000, 1.000000000000000000 ) ) ;
#297 = ORIENTED_EDGE ( 'NONE', *, *, #125, .F. ) ;
#298 = CARTESIAN_POINT ( 'NONE',  ( -34.52227510822724099, -28.86542085873466590, 5.000000000000000000 ) ) ;
#299 = VERTEX_POINT ( 'NONE', #74 ) ;
#300 = CARTESIAN_POINT ( 'NONE',  ( -31.94112549695414671, 33.94112549695435632, 5.000000000000000000 ) ) ;
#301 = DIRECTION ( 'NONE',  ( 1.000000000000000000, 0.000000000000000000, 0.000000000000000000 ) ) ;
#302 = DIRECTION ( 'NONE',  ( 1.000000000000000000, -3.469446951953614189E-15, 0.000000000000000000 ) ) ;
#303 = EDGE_LOOP ( 'NONE', ( #973, #75 ) ) ;
#304 = CARTESIAN_POINT ( 'NONE',  ( 28.86542085873476893, -34.52227510822714862, 5.000000000000000000 ) ) ;
#305 = DIRECTION ( 'NONE',  ( -0.7071067811865316965, -0.7071067811865632269, 0.000000000000000000 ) ) ;
#306 = CIRCLE ( 'NONE', #926, 4.000000000000000000 ) ;
#307 = ORIENTED_EDGE ( 'NONE', *, *, #179, .F. ) ;
#308 = ADVANCED_FACE ( 'NONE', ( #679 ), #152, .T. ) ;
#309 =( NAMED_UNIT ( * ) SI_UNIT ( $, .STERADIAN. ) SOLID_ANGLE_UNIT ( ) );
#310 = CARTESIAN_POINT ( 'NONE',  ( 36.76955262170061900, 36.76955262170029215, 0.000000000000000000 ) ) ;
#311 = DIRECTION ( 'NONE',  ( 0.000000000000000000, 0.000000000000000000, 1.000000000000000000 ) ) ;
#312 = VECTOR ( 'NONE', #1146, 1000.000000000000000 ) ;
#313 = CARTESIAN_POINT ( 'NONE',  ( 34.52227510822715573, -28.86542085873477248, 5.000000000000000000 ) ) ;
#314 = VERTEX_POINT ( 'NONE', #1224 ) ;
#315 = CYLINDRICAL_SURFACE ( 'NONE', #230, 45.00000000000000711 ) ;
#316 = CARTESIAN_POINT ( 'NONE',  ( -45.00000000000000711, 0.000000000000000000, 5.000000000000000000 ) ) ;
#317 = EDGE_CURVE ( 'NONE', #299, #1332, #12, .T. ) ;
#318 = CIRCLE ( 'NONE', #1092, 4.000000000000000000 ) ;
#319 = EDGE_LOOP ( 'NONE', ( #800, #608 ) ) ;
#320 =( NAMED_UNIT ( * ) SI_UNIT ( $, .STERADIAN. ) SOLID_ANGLE_UNIT ( ) );
#321 = EDGE_CURVE ( 'NONE', #99, #492, #1250, .T. ) ;
#322 = CARTESIAN_POINT ( 'NONE',  ( 31.94112549695443093, 33.94112549695410053, 0.000000000000000000 ) ) ;
#323 = ORIENTED_EDGE ( 'NONE', *, *, #652, .F. ) ;
#324 = CIRCLE ( 'NONE', #456, 2.000000000000001776 ) ;
#325 = DIRECTION ( 'NONE',  ( 1.000000000000000000, 0.000000000000000000, 0.000000000000000000 ) ) ;
#326 = CARTESIAN_POINT ( 'NONE',  ( 36.76955262170078242, 31.11269837220807233, 5.000000000000000000 ) ) ;
#327 = VERTEX_POINT ( 'NONE', #117 ) ;
#328 = DIRECTION ( 'NONE',  ( 0.000000000000000000, 0.000000000000000000, 1.000000000000000000 ) ) ;
#329 = ORIENTED_EDGE ( 'NONE', *, *, #616, .F. ) ;
#330 = CARTESIAN_POINT ( 'NONE',  ( -31.11269837220806522, -36.76955262170034899, 0.000000000000000000 ) ) ;
#331 = CARTESIAN_POINT ( 'NONE',  ( 0.000000000000000000, 0.000000000000000000, 0.000000000000000000 ) ) ;
#332 = AXIS2_PLACEMENT_3D ( 'NONE', #1044, #190, #218 ) ;
#333 = FACE_OUTER_BOUND ( 'NONE', #91, .T. ) ;
#334 = EDGE_CURVE ( 'NONE', #414, #448, #671, .T. ) ;
#335 = VECTOR ( 'NONE', #394, 1000.000000000000000 ) ;
#336 = ORIENTED_EDGE ( 'NONE', *, *, #361, .T. ) ;
#337 = COLOUR_RGB ( '',0.7921568627450980005, 0.8196078431372548767, 0.9333333333333333481 ) ;
#338 = PLANE ( 'NONE',  #904 ) ;
#339 = DIRECTION ( 'NONE',  ( 0.000000000000000000, 0.000000000000000000, 1.000000000000000000 ) ) ;
#340 = EDGE_CURVE ( 'NONE', #554, #1063, #425, .T. ) ;
#341 = DIRECTION ( 'NONE',  ( 1.000000000000000000, 0.000000000000000000, 0.000000000000000000 ) ) ;
#342 = FACE_OUTER_BOUND ( 'NONE', #132, .T. ) ;
#343 = ORIENTED_EDGE ( 'NONE', *, *, #1213, .T. ) ;
#344 = CARTESIAN_POINT ( 'NONE',  ( -28.86542085873487906, -34.52227510822706336, 5.000000000000000000 ) ) ;
#345 = AXIS2_PLACEMENT_3D ( 'NONE', #44, #1203, #244 ) ;
#346 = CARTESIAN_POINT ( 'NONE',  ( 31.11269837220809364, -36.76955262170046979, 0.000000000000000000 ) ) ;
#347 = ORIENTED_EDGE ( 'NONE', *, *, #241, .F. ) ;
#348 = ORIENTED_EDGE ( 'NONE', *, *, #851, .F. ) ;
#349 = CARTESIAN_POINT ( 'NONE',  ( 35.94112549695443448, 33.94112549695410053, 0.000000000000000000 ) ) ;
#350 = VERTEX_POINT ( 'NONE', #108 ) ;
#351 = DIRECTION ( 'NONE',  ( 1.000000000000000000, 0.000000000000000000, 0.000000000000000000 ) ) ;
#352 = EDGE_CURVE ( 'NONE', #210, #54, #433, .T. ) ;
#353 = CIRCLE ( 'NONE', #1124, 3.999999999999996447 ) ;
#354 = VECTOR ( 'NONE', #1069, 1000.000000000000000 ) ;
#355 = DIRECTION ( 'NONE',  ( -0.000000000000000000, -0.000000000000000000, -1.000000000000000000 ) ) ;
#356 = CARTESIAN_POINT ( 'NONE',  ( 33.94112549695443448, 33.94112549695410053, 0.000000000000000000 ) ) ;
#357 = VERTEX_POINT ( 'NONE', #213 ) ;
#358 = AXIS2_PLACEMENT_3D ( 'NONE', #274, #415, #605 ) ;
#359 = DIRECTION ( 'NONE',  ( -1.000000000000000000, 0.000000000000000000, 0.000000000000000000 ) ) ;
#360 = CARTESIAN_POINT ( 'NONE',  ( 33.94112549695443448, 33.94112549695410053, 5.000000000000000000 ) ) ;
#361 = EDGE_CURVE ( 'NONE', #1276, #613, #127, .T. ) ;
#362 = EDGE_LOOP ( 'NONE', ( #1059, #831 ) ) ;
#363 = DIRECTION ( 'NONE',  ( -0.000000000000000000, -0.000000000000000000, -1.000000000000000000 ) ) ;
#364 = ORIENTED_EDGE ( 'NONE', *, *, #459, .T. ) ;
#365 = LINE ( 'NONE', #1141, #1218 ) ;
#366 = DIRECTION ( 'NONE',  ( 1.000000000000000000, 0.000000000000000000, 0.000000000000000000 ) ) ;
#367 = CARTESIAN_POINT ( 'NONE',  ( -33.94112549695415026, 33.94112549695435632, 0.000000000000000000 ) ) ;
#368 = CARTESIAN_POINT ( 'NONE',  ( -4.000000000000000000, 4.898587196589412829E-16, 0.000000000000000000 ) ) ;
#369 = ORIENTED_EDGE ( 'NONE', *, *, #1254, .T. ) ;
#370 = LINE ( 'NONE', #790, #651 ) ;
#371 = DIRECTION ( 'NONE',  ( -1.000000000000000000, 0.000000000000000000, 0.000000000000000000 ) ) ;
#372 = EDGE_CURVE ( 'NONE', #215, #136, #964, .T. ) ;
#373 = LINE ( 'NONE', #801, #806 ) ;
#374 = DIRECTION ( 'NONE',  ( 0.000000000000000000, 0.000000000000000000, 1.000000000000000000 ) ) ;
#375 = ORIENTED_EDGE ( 'NONE', *, *, #340, .T. ) ;
#376 = CIRCLE ( 'NONE', #240, 45.00000000000000711 ) ;
#377 = CARTESIAN_POINT ( 'NONE',  ( 33.94112549695427816, -33.94112549695427816, 0.000000000000000000 ) ) ;
#378 = DIRECTION ( 'NONE',  ( -1.000000000000000000, 0.000000000000000000, 0.000000000000000000 ) ) ;
#379 = ORIENTED_EDGE ( 'NONE', *, *, #478, .F. ) ;
#380 = ORIENTED_EDGE ( 'NONE', *, *, #905, .T. ) ;
#381 = CARTESIAN_POINT ( 'NONE',  ( 33.94112549695427816, -33.94112549695427816, 5.000000000000000000 ) ) ;
#382 = ORIENTED_EDGE ( 'NONE', *, *, #1323, .T. ) ;
#383 = ORIENTED_EDGE ( 'NONE', *, *, #804, .F. ) ;
#384 = CIRCLE ( 'NONE', #584, 3.999999999999996447 ) ;
#385 = CARTESIAN_POINT ( 'NONE',  ( 33.94112549695427816, -33.94112549695427816, 0.000000000000000000 ) ) ;
#386 = CARTESIAN_POINT ( 'NONE',  ( 36.76955262170078242, 31.11269837220807588, 0.000000000000000000 ) ) ;
#387 = DIRECTION ( 'NONE',  ( -0.000000000000000000, -0.000000000000000000, -1.000000000000000000 ) ) ;
#388 = EDGE_LOOP ( 'NONE', ( #937, #1112, #528, #1192 ) ) ;
#389 = ADVANCED_FACE ( 'NONE', ( #342 ), #1187, .T. ) ;
#390 = ORIENTED_EDGE ( 'NONE', *, *, #692, .F. ) ;
#391 = FACE_BOUND ( 'NONE', #654, .T. ) ;
#392 = CARTESIAN_POINT ( 'NONE',  ( -11.00000000000000000, 1.347111479062088405E-15, -7.000000000000000000 ) ) ;
#393 = EDGE_CURVE ( 'NONE', #484, #99, #1261, .T. ) ;
#394 = DIRECTION ( 'NONE',  ( -0.000000000000000000, -0.000000000000000000, 1.000000000000000000 ) ) ;
#395 = EDGE_LOOP ( 'NONE', ( #268, #379, #1170, #473 ) ) ;
#396 = CIRCLE ( 'NONE', #1284, 11.00000000000000000 ) ;
#397 = DIRECTION ( 'NONE',  ( 1.000000000000000000, 0.000000000000000000, 0.000000000000000000 ) ) ;
#398 = AXIS2_PLACEMENT_3D ( 'NONE', #171, #598, #1026 ) ;
#399 = VECTOR ( 'NONE', #1049, 1000.000000000000000 ) ;
#400 = CYLINDRICAL_SURFACE ( 'NONE', #1329, 11.00000000000000000 ) ;
#401 = CARTESIAN_POINT ( 'NONE',  ( -34.52227510822724099, -28.86542085873466590, 0.000000000000000000 ) ) ;
#402 = LINE ( 'NONE', #719, #399 ) ;
#403 = ORIENTED_EDGE ( 'NONE', *, *, #162, .F. ) ;
#404 = ORIENTED_EDGE ( 'NONE', *, *, #867, .F. ) ;
#405 = CIRCLE ( 'NONE', #265, 13.00000000000000178 ) ;
#406 = DIRECTION ( 'NONE',  ( -0.7071067811865633379, 0.7071067811865318076, 0.000000000000000000 ) ) ;
#407 = VERTEX_POINT ( 'NONE', #629 ) ;
#408 = PLANE ( 'NONE',  #620 ) ;
#409 = CARTESIAN_POINT ( 'NONE',  ( -31.11269837220807233, 36.76955262170066163, 0.000000000000000000 ) ) ;
#410 = CIRCLE ( 'NONE', #1029, 2.000000000000001776 ) ;
#411 = DIRECTION ( 'NONE',  ( 1.000000000000000000, 0.000000000000000000, 0.000000000000000000 ) ) ;
#412 = ORIENTED_EDGE ( 'NONE', *, *, #1198, .T. ) ;
#413 = CYLINDRICAL_SURFACE ( 'NONE', #699, 4.000000000000000000 ) ;
#414 = VERTEX_POINT ( 'NONE', #1041 ) ;
#415 = DIRECTION ( 'NONE',  ( 0.000000000000000000, 0.000000000000000000, 1.000000000000000000 ) ) ;
#416 = DIRECTION ( 'NONE',  ( -0.7071067811865892061, 0.7071067811865059394, 0.000000000000000000 ) ) ;
#417 = ADVANCED_FACE ( 'NONE', ( #189 ), #1257, .T. ) ;
#418 = DIRECTION ( 'NONE',  ( 1.000000000000000000, 0.000000000000000000, 0.000000000000000000 ) ) ;
#419 = EDGE_LOOP ( 'NONE', ( #538, #1353, #277, #1260 ) ) ;
#420 = ORIENTED_EDGE ( 'NONE', *, *, #1133, .F. ) ;
#421 = DIRECTION ( 'NONE',  ( 0.7071067811865061614, 0.7071067811865889841, -0.000000000000000000 ) ) ;
#422 = ADVANCED_FACE ( 'NONE', ( #1362 ), #315, .T. ) ;
#423 = AXIS2_PLACEMENT_3D ( 'NONE', #930, #406, #305 ) ;
#424 = ORIENTED_EDGE ( 'NONE', *, *, #293, .F. ) ;
#425 = LINE ( 'NONE', #971, #70 ) ;
#426 = VERTEX_POINT ( 'NONE', #304 ) ;
#427 = PRESENTATION_LAYER_ASSIGNMENT (  '', '', ( #515 ) ) ;
#428 = CARTESIAN_POINT ( 'NONE',  ( 33.94112549695427816, -33.94112549695427816, 0.000000000000000000 ) ) ;
#429 = VERTEX_POINT ( 'NONE', #729 ) ;
#430 = FACE_BOUND ( 'NONE', #1177, .T. ) ;
#431 = LINE ( 'NONE', #1172, #444 ) ;
#432 = VERTEX_POINT ( 'NONE', #798 ) ;
#433 = LINE ( 'NONE', #853, #854 ) ;
#434 = DIRECTION ( 'NONE',  ( 1.000000000000000000, 0.000000000000000000, 0.000000000000000000 ) ) ;
#435 = ORIENTED_EDGE ( 'NONE', *, *, #165, .F. ) ;
#436 = CIRCLE ( 'NONE', #1208, 3.999999999999996447 ) ;
#437 = FACE_BOUND ( 'NONE', #362, .T. ) ;
#438 = CARTESIAN_POINT ( 'NONE',  ( 0.000000000000000000, 0.000000000000000000, -7.000000000000000000 ) ) ;
#439 = EDGE_CURVE ( 'NONE', #407, #486, #737, .T. ) ;
#440 = EDGE_CURVE ( 'NONE', #686, #708, #207, .T. ) ;
#441 = VERTEX_POINT ( 'NONE', #479 ) ;
#442 = FACE_BOUND ( 'NONE', #1221, .T. ) ;
#443 = DIRECTION ( 'NONE',  ( -0.000000000000000000, -0.000000000000000000, -1.000000000000000000 ) ) ;
#444 = VECTOR ( 'NONE', #421, 999.9999999999998863 ) ;
#445 = DIRECTION ( 'NONE',  ( 0.7071067811865766606, -0.7071067811865182628, -0.000000000000000000 ) ) ;
#446 = AXIS2_PLACEMENT_3D ( 'NONE', #760, #775, #1204 ) ;
#447 = UNCERTAINTY_MEASURE_WITH_UNIT (LENGTH_MEASURE( 1.000000000000000082E-05 ), #653, 'distance_accuracy_value', 'NONE');
#448 = VERTEX_POINT ( 'NONE', #899 ) ;
#449 = CIRCLE ( 'NONE', #1019, 4.000000000000000000 ) ;
#450 = DIRECTION ( 'NONE',  ( 1.000000000000000000, 0.000000000000000000, 0.000000000000000000 ) ) ;
#451 = LINE ( 'NONE', #970, #540 ) ;
#452 = DIRECTION ( 'NONE',  ( -0.000000000000000000, -0.000000000000000000, 1.000000000000000000 ) ) ;
#453 = ORIENTED_EDGE ( 'NONE', *, *, #559, .T. ) ;
#454 = DIRECTION ( 'NONE',  ( 1.000000000000000000, 5.204170427930421283E-15, 0.000000000000000000 ) ) ;
#455 = ORIENTED_EDGE ( 'NONE', *, *, #957, .T. ) ;
#456 = AXIS2_PLACEMENT_3D ( 'NONE', #1138, #311, #186 ) ;
#457 = CARTESIAN_POINT ( 'NONE',  ( -13.00000000000000178, 1.592040838891559293E-15, -7.000000000000000000 ) ) ;
#458 = DIRECTION ( 'NONE',  ( 0.000000000000000000, 0.000000000000000000, 1.000000000000000000 ) ) ;
#459 = EDGE_CURVE ( 'NONE', #877, #1173, #370, .T. ) ;
#460 = LINE ( 'NONE', #1084, #882 ) ;
#461 = EDGE_LOOP ( 'NONE', ( #911, #1104, #420, #476 ) ) ;
#462 = EDGE_CURVE ( 'NONE', #1063, #1371, #405, .T. ) ;
#463 = CARTESIAN_POINT ( 'NONE',  ( 37.94112549695427816, -33.94112549695427816, 0.000000000000000000 ) ) ;
#464 = CARTESIAN_POINT ( 'NONE',  ( 33.94112549695443448, 33.94112549695410053, 5.000000000000000000 ) ) ;
#465 = AXIS2_PLACEMENT_3D ( 'NONE', #36, #238, #450 ) ;
#466 = VECTOR ( 'NONE', #1319, 1000.000000000000000 ) ;
#467 = EDGE_LOOP ( 'NONE', ( #861, #167, #563, #794, #585, #1022, #1256, #1132, #46, #307, #329, #1168, #690, #1158, #522, #1360, #1066, #382, #588, #906, #1154, #1098, #820 ) ) ;
#468 = DIRECTION ( 'NONE',  ( 1.000000000000000000, 0.000000000000000000, 0.000000000000000000 ) ) ;
#469 = ORIENTED_EDGE ( 'NONE', *, *, #991, .F. ) ;
#470 = CIRCLE ( 'NONE', #645, 11.00000000000000000 ) ;
#471 = CARTESIAN_POINT ( 'NONE',  ( 36.76955262170078242, 31.11269837220807233, 0.000000000000000000 ) ) ;
#472 = DIRECTION ( 'NONE',  ( 1.000000000000000000, -1.734723475976808672E-15, 0.000000000000000000 ) ) ;
#473 = ORIENTED_EDGE ( 'NONE', *, *, #1217, .F. ) ;
#474 = FACE_OUTER_BOUND ( 'NONE', #1229, .T. ) ;
#475 = CARTESIAN_POINT ( 'NONE',  ( -28.34996828881502395, -34.00682253830719048, 0.000000000000000000 ) ) ;
#476 = ORIENTED_EDGE ( 'NONE', *, *, #663, .F. ) ;
#477 = AXIS2_PLACEMENT_3D ( 'NONE', #377, #58, #491 ) ;
#478 = EDGE_CURVE ( 'NONE', #197, #996, #318, .T. ) ;
#479 = CARTESIAN_POINT ( 'NONE',  ( 35.94112549695443448, 33.94112549695410053, 5.000000000000000000 ) ) ;
#480 = CARTESIAN_POINT ( 'NONE',  ( 35.94112549695427816, -33.94112549695427816, 5.000000000000000000 ) ) ;
#481 = CARTESIAN_POINT ( 'NONE',  ( -28.86542085873455932, 34.52227510822733336, 0.000000000000000000 ) ) ;
#482 = EDGE_CURVE ( 'NONE', #2, #197, #858, .T. ) ;
#483 = LINE ( 'NONE', #1003, #109 ) ;
#484 = VERTEX_POINT ( 'NONE', #16 ) ;
#485 = ORIENTED_EDGE ( 'NONE', *, *, #462, .T. ) ;
#486 = VERTEX_POINT ( 'NONE', #113 ) ;
#487 = CARTESIAN_POINT ( 'NONE',  ( 37.94112549695427816, -33.94112549695427816, 0.000000000000000000 ) ) ;
#488 = AXIS2_PLACEMENT_3D ( 'NONE', #11, #1354, #1156 ) ;
#489 = ORIENTED_EDGE ( 'NONE', *, *, #128, .F. ) ;
#490 = VECTOR ( 'NONE', #221, 1000.000000000000000 ) ;
#491 = DIRECTION ( 'NONE',  ( 1.000000000000000000, -1.734723475976808672E-15, 0.000000000000000000 ) ) ;
#492 = VERTEX_POINT ( 'NONE', #544 ) ;
#493 = FACE_OUTER_BOUND ( 'NONE', #514, .T. ) ;
#494 = EDGE_CURVE ( 'NONE', #686, #610, #496, .T. ) ;
#495 = CARTESIAN_POINT ( 'NONE',  ( 31.94112549695427816, -33.94112549695427816, 0.000000000000000000 ) ) ;
#496 = CIRCLE ( 'NONE', #848, 45.00000000000000711 ) ;
#497 = ORIENTED_EDGE ( 'NONE', *, *, #745, .T. ) ;
#498 = EDGE_CURVE ( 'NONE', #767, #761, #65, .T. ) ;
#499 = CIRCLE ( 'NONE', #1116, 3.999999999999996447 ) ;
#500 = CARTESIAN_POINT ( 'NONE',  ( 0.000000000000000000, 0.000000000000000000, -7.000000000000000000 ) ) ;
#501 = CLOSED_SHELL ( 'NONE', ( #1339, #578, #998, #546, #821, #1193, #14, #969, #1259, #922, #642, #660, #422, #950, #636, #523, #1275, #1143, #1279, #231, #673, #506, #81, #105, #308, #417, #855, #1183, #910, #204, #47, #1341, #765, #269, #700, #1174, #1313, #752, #722, #389, #1299 ) ) ;
#502 = DIRECTION ( 'NONE',  ( 1.000000000000000000, 0.000000000000000000, 0.000000000000000000 ) ) ;
#503 = DIRECTION ( 'NONE',  ( 1.000000000000000000, 0.000000000000000000, 0.000000000000000000 ) ) ;
#504 = ORIENTED_EDGE ( 'NONE', *, *, #1213, .F. ) ;
#505 = CARTESIAN_POINT ( 'NONE',  ( 0.000000000000000000, 0.000000000000000000, 0.000000000000000000 ) ) ;
#506 = ADVANCED_FACE ( 'NONE', ( #962 ), #753, .T. ) ;
#507 = FACE_OUTER_BOUND ( 'NONE', #9, .T. ) ;
#508 = CARTESIAN_POINT ( 'NONE',  ( 0.000000000000000000, 0.000000000000000000, 0.000000000000000000 ) ) ;
#509 = FACE_OUTER_BOUND ( 'NONE', #570, .T. ) ;
#510 = VERTEX_POINT ( 'NONE', #849 ) ;
#511 = AXIS2_PLACEMENT_3D ( 'NONE', #713, #1303, #876 ) ;
#512 = CYLINDRICAL_SURFACE ( 'NONE', #755, 45.00000000000000711 ) ;
#513 = AXIS2_PLACEMENT_3D ( 'NONE', #582, #56, #503 ) ;
#514 = EDGE_LOOP ( 'NONE', ( #561, #1251, #192, #1333 ) ) ;
#515 = STYLED_ITEM ( 'NONE', ( #716 ), #1294 ) ;
#516 = DIRECTION ( 'NONE',  ( 0.000000000000000000, 0.000000000000000000, 1.000000000000000000 ) ) ;
#517 = DIRECTION ( 'NONE',  ( -0.7071067811865058284, -0.7071067811865890951, 0.000000000000000000 ) ) ;
#518 = FACE_OUTER_BOUND ( 'NONE', #980, .T. ) ;
#519 = EDGE_LOOP ( 'NONE', ( #627, #914, #1140, #929 ) ) ;
#520 = DIRECTION ( 'NONE',  ( 0.000000000000000000, 0.000000000000000000, 1.000000000000000000 ) ) ;
#521 = CYLINDRICAL_SURFACE ( 'NONE', #1176, 4.000000000000000000 ) ;
#522 = ORIENTED_EDGE ( 'NONE', *, *, #677, .F. ) ;
#523 = ADVANCED_FACE ( 'NONE', ( #430, #442, #534, #10, #437, #1287 ), #338, .T. ) ;
#524 = CARTESIAN_POINT ( 'NONE',  ( 36.76955262170061900, 36.76955262170029215, 0.000000000000000000 ) ) ;
#525 = DIRECTION ( 'NONE',  ( 0.000000000000000000, 0.000000000000000000, 1.000000000000000000 ) ) ;
#526 = AXIS2_PLACEMENT_3D ( 'NONE', #508, #925, #1246 ) ;
#527 = FACE_OUTER_BOUND ( 'NONE', #589, .T. ) ;
#528 = ORIENTED_EDGE ( 'NONE', *, *, #179, .T. ) ;
#529 = EDGE_CURVE ( 'NONE', #736, #549, #365, .T. ) ;
#530 = DIRECTION ( 'NONE',  ( 0.000000000000000000, 0.000000000000000000, 1.000000000000000000 ) ) ;
#531 = ORIENTED_EDGE ( 'NONE', *, *, #494, .T. ) ;
#532 = PLANE ( 'NONE',  #112 ) ;
#533 = ORIENTED_EDGE ( 'NONE', *, *, #562, .F. ) ;
#534 = FACE_BOUND ( 'NONE', #82, .T. ) ;
#535 = CARTESIAN_POINT ( 'NONE',  ( 28.86542085873509933, 34.52227510822688572, 0.000000000000000000 ) ) ;
#536 = CIRCLE ( 'NONE', #997, 4.000000000000000000 ) ;
#537 = AXIS2_PLACEMENT_3D ( 'NONE', #1325, #387, #160 ) ;
#538 = ORIENTED_EDGE ( 'NONE', *, *, #553, .F. ) ;
#539 = CARTESIAN_POINT ( 'NONE',  ( 31.11269837220807233, 36.76955262170012162, 0.000000000000000000 ) ) ;
#540 = VECTOR ( 'NONE', #644, 1000.000000000000114 ) ;
#541 = DIRECTION ( 'NONE',  ( 0.000000000000000000, 0.000000000000000000, 1.000000000000000000 ) ) ;
#542 = ORIENTED_EDGE ( 'NONE', *, *, #596, .F. ) ;
#543 = EDGE_CURVE ( 'NONE', #484, #432, #259, .T. ) ;
#544 = CARTESIAN_POINT ( 'NONE',  ( -35.94112549695431369, -33.94112549695422132, 5.000000000000000000 ) ) ;
#545 = FACE_OUTER_BOUND ( 'NONE', #288, .T. ) ;
#546 = ADVANCED_FACE ( 'NONE', ( #248 ), #138, .F. ) ;
#547 = SHAPE_DEFINITION_REPRESENTATION ( #1159, #1370 ) ;
#548 = DIRECTION ( 'NONE',  ( -0.000000000000000000, -0.000000000000000000, 1.000000000000000000 ) ) ;
#549 = VERTEX_POINT ( 'NONE', #480 ) ;
#550 = AXIS2_PLACEMENT_3D ( 'NONE', #1088, #580, #49 ) ;
#551 = DIRECTION ( 'NONE',  ( -0.000000000000000000, -0.000000000000000000, -1.000000000000000000 ) ) ;
#552 = CARTESIAN_POINT ( 'NONE',  ( 0.000000000000000000, 0.000000000000000000, 0.000000000000000000 ) ) ;
#553 = EDGE_CURVE ( 'NONE', #945, #227, #785, .T. ) ;
#554 = VERTEX_POINT ( 'NONE', #457 ) ;
#555 = FACE_OUTER_BOUND ( 'NONE', #803, .T. ) ;
#556 = CIRCLE ( 'NONE', #129, 4.000000000000000000 ) ;
#557 = DIRECTION ( 'NONE',  ( -0.000000000000000000, -0.000000000000000000, -1.000000000000000000 ) ) ;
#558 = ORIENTED_EDGE ( 'NONE', *, *, #1076, .T. ) ;
#559 = EDGE_CURVE ( 'NONE', #432, #492, #143, .T. ) ;
#560 = LINE ( 'NONE', #1186, #83 ) ;
#561 = ORIENTED_EDGE ( 'NONE', *, *, #361, .F. ) ;
#562 = EDGE_CURVE ( 'NONE', #1371, #1063, #1127, .T. ) ;
#563 = ORIENTED_EDGE ( 'NONE', *, *, #352, .F. ) ;
#564 = DIRECTION ( 'NONE',  ( -0.7071067811865316965, -0.7071067811865632269, -0.000000000000000000 ) ) ;
#565 = ORIENTED_EDGE ( 'NONE', *, *, #39, .T. ) ;
#566 = EDGE_CURVE ( 'NONE', #1285, #215, #672, .T. ) ;
#567 = CARTESIAN_POINT ( 'NONE',  ( -33.94112549695431369, -33.94112549695422132, 0.000000000000000000 ) ) ;
#568 = ORIENTED_EDGE ( 'NONE', *, *, #211, .F. ) ;
#569 = DIRECTION ( 'NONE',  ( 0.000000000000000000, 0.000000000000000000, 1.000000000000000000 ) ) ;
#570 = EDGE_LOOP ( 'NONE', ( #33, #106, #140, #1004 ) ) ;
#571 = CARTESIAN_POINT ( 'NONE',  ( 31.11269837220807588, 36.76955262170012162, 0.000000000000000000 ) ) ;
#572 = VECTOR ( 'NONE', #1314, 1000.000000000000000 ) ;
#573 = CIRCLE ( 'NONE', #1067, 2.000000000000001776 ) ;
#574 = VERTEX_POINT ( 'NONE', #678 ) ;
#575 = CARTESIAN_POINT ( 'NONE',  ( 31.94112549695443093, 33.94112549695410053, 5.000000000000000000 ) ) ;
#576 = VERTEX_POINT ( 'NONE', #571 ) ;
#577 = CIRCLE ( 'NONE', #87, 45.00000000000000711 ) ;
#578 = ADVANCED_FACE ( 'NONE', ( #242 ), #778, .T. ) ;
#579 = CARTESIAN_POINT ( 'NONE',  ( 0.000000000000000000, 0.000000000000000000, 5.000000000000000000 ) ) ;
#580 = DIRECTION ( 'NONE',  ( 0.7071067811865889841, -0.7071067811865061614, 0.000000000000000000 ) ) ;
#581 = FACE_OUTER_BOUND ( 'NONE', #1037, .T. ) ;
#582 = CARTESIAN_POINT ( 'NONE',  ( 33.94112549695443448, 33.94112549695410053, 0.000000000000000000 ) ) ;
#583 = VERTEX_POINT ( 'NONE', #1000 ) ;
#584 = AXIS2_PLACEMENT_3D ( 'NONE', #360, #1135, #235 ) ;
#585 = ORIENTED_EDGE ( 'NONE', *, *, #891, .F. ) ;
#586 = ORIENTED_EDGE ( 'NONE', *, *, #1302, .F. ) ;
#587 = DIRECTION ( 'NONE',  ( 1.000000000000000000, 0.000000000000000000, 0.000000000000000000 ) ) ;
#588 = ORIENTED_EDGE ( 'NONE', *, *, #1113, .T. ) ;
#589 = EDGE_LOOP ( 'NONE', ( #1125, #1118, #266, #694 ) ) ;
#590 = CARTESIAN_POINT ( 'NONE',  ( -34.52227510822697099, 28.86542085873498920, 5.000000000000000000 ) ) ;
#591 = DIRECTION ( 'NONE',  ( 1.000000000000000000, 0.000000000000000000, 0.000000000000000000 ) ) ;
#592 = VECTOR ( 'NONE', #151, 1000.000000000000114 ) ;
#593 = ORIENTED_EDGE ( 'NONE', *, *, #24, .F. ) ;
#594 = AXIS2_PLACEMENT_3D ( 'NONE', #657, #226, #1277 ) ;
#595 = CARTESIAN_POINT ( 'NONE',  ( -36.76955262170021399, 31.11269837220805101, 5.000000000000000000 ) ) ;
#596 = EDGE_CURVE ( 'NONE', #273, #188, #396, .T. ) ;
#597 = LINE ( 'NONE', #286, #1188 ) ;
#598 = DIRECTION ( 'NONE',  ( -0.000000000000000000, -0.000000000000000000, 1.000000000000000000 ) ) ;
#599 = EDGE_LOOP ( 'NONE', ( #542, #732 ) ) ;
#600 = DIRECTION ( 'NONE',  ( 0.000000000000000000, 0.000000000000000000, 1.000000000000000000 ) ) ;
#601 = CARTESIAN_POINT ( 'NONE',  ( -33.94112549695431369, -33.94112549695422132, 0.000000000000000000 ) ) ;
#602 = EDGE_CURVE ( 'NONE', #188, #273, #107, .T. ) ;
#603 = ORIENTED_EDGE ( 'NONE', *, *, #1318, .F. ) ;
#604 = AXIS2_PLACEMENT_3D ( 'NONE', #464, #885, #706 ) ;
#605 = DIRECTION ( 'NONE',  ( 1.000000000000000000, 0.000000000000000000, 0.000000000000000000 ) ) ;
#606 = DIRECTION ( 'NONE',  ( -1.000000000000000000, 0.000000000000000000, 0.000000000000000000 ) ) ;
#607 = DIRECTION ( 'NONE',  ( 1.000000000000000000, 0.000000000000000000, 0.000000000000000000 ) ) ;
#608 = ORIENTED_EDGE ( 'NONE', *, *, #241, .T. ) ;
#609 = DIRECTION ( 'NONE',  ( -1.000000000000000000, 0.000000000000000000, -0.000000000000000000 ) ) ;
#610 = VERTEX_POINT ( 'NONE', #173 ) ;
#611 = DIRECTION ( 'NONE',  ( 0.000000000000000000, 0.000000000000000000, -1.000000000000000000 ) ) ;
#612 = LINE ( 'NONE', #1153, #312 ) ;
#613 = VERTEX_POINT ( 'NONE', #900 ) ;
#614 = AXIS2_PLACEMENT_3D ( 'NONE', #30, #1107, #667 ) ;
#615 = FACE_OUTER_BOUND ( 'NONE', #130, .T. ) ;
#616 = EDGE_CURVE ( 'NONE', #576, #708, #771, .T. ) ;
#617 = AXIS2_PLACEMENT_3D ( 'NONE', #1190, #234, #659 ) ;
#618 =( GEOMETRIC_REPRESENTATION_CONTEXT ( 3 ) GLOBAL_UNCERTAINTY_ASSIGNED_CONTEXT ( ( #50 ) ) GLOBAL_UNIT_ASSIGNED_CONTEXT ( ( #169, #835, #309 ) ) REPRESENTATION_CONTEXT ( 'NONE', 'WORKASPACE' ) );
#619 = ORIENTED_EDGE ( 'NONE', *, *, #777, .F. ) ;
#620 = AXIS2_PLACEMENT_3D ( 'NONE', #1144, #68, #724 ) ;
#621 = CARTESIAN_POINT ( 'NONE',  ( -11.00000000000000000, 1.347111479062088405E-15, -7.000000000000000000 ) ) ;
#622 = EDGE_CURVE ( 'NONE', #952, #789, #536, .T. ) ;
#623 = DIRECTION ( 'NONE',  ( 0.7071067811865473507, 0.7071067811865477948, -0.000000000000000000 ) ) ;
#624 = ORIENTED_EDGE ( 'NONE', *, *, #1050, .T. ) ;
#625 = CARTESIAN_POINT ( 'NONE',  ( 0.000000000000000000, 0.000000000000000000, 5.000000000000000000 ) ) ;
#626 = DIRECTION ( 'NONE',  ( 1.000000000000000000, 0.000000000000000000, 0.000000000000000000 ) ) ;
#627 = ORIENTED_EDGE ( 'NONE', *, *, #780, .F. ) ;
#628 = DIRECTION ( 'NONE',  ( 1.000000000000000000, 0.000000000000000000, 0.000000000000000000 ) ) ;
#629 = CARTESIAN_POINT ( 'NONE',  ( 37.94112549695442738, 33.94112549695410053, 0.000000000000000000 ) ) ;
#630 = AXIS2_PLACEMENT_3D ( 'NONE', #1145, #177, #93 ) ;
#631 = DIRECTION ( 'NONE',  ( 1.000000000000000000, 0.000000000000000000, 0.000000000000000000 ) ) ;
#632 = VERTEX_POINT ( 'NONE', #471 ) ;
#633 = CARTESIAN_POINT ( 'NONE',  ( 28.86542085873509578, 34.52227510822688572, 5.000000000000000000 ) ) ;
#634 = CARTESIAN_POINT ( 'NONE',  ( -28.34996828881502395, -34.00682253830719048, 5.000000000000000000 ) ) ;
#635 = ORIENTED_EDGE ( 'NONE', *, *, #808, .T. ) ;
#636 = ADVANCED_FACE ( 'NONE', ( #791 ), #1220, .T. ) ;
#637 = CARTESIAN_POINT ( 'NONE',  ( 0.000000000000000000, 0.000000000000000000, 0.000000000000000000 ) ) ;
#638 = APPLICATION_CONTEXT ( 'automotive_design' ) ;
#639 = ORIENTED_EDGE ( 'NONE', *, *, #739, .T. ) ;
#640 = DIRECTION ( 'NONE',  ( 0.000000000000000000, 0.000000000000000000, 1.000000000000000000 ) ) ;
#641 = LINE ( 'NONE', #1363, #354 ) ;
#642 = ADVANCED_FACE ( 'NONE', ( #1206, #892 ), #705, .F. ) ;
#643 = VERTEX_POINT ( 'NONE', #73 ) ;
#644 = DIRECTION ( 'NONE',  ( 0.7071067811865474617, -0.7071067811865474617, -0.000000000000000000 ) ) ;
#645 = AXIS2_PLACEMENT_3D ( 'NONE', #194, #1023, #1038 ) ;
#646 = PRODUCT_DEFINITION_FORMATION_WITH_SPECIFIED_SOURCE ( 'ANY', '', #960, .NOT_KNOWN. ) ;
#647 = EDGE_CURVE ( 'NONE', #172, #1008, #306, .T. ) ;
#648 = EDGE_LOOP ( 'NONE', ( #1235, #1242, #380, #1271 ) ) ;
#649 = CARTESIAN_POINT ( 'NONE',  ( 0.000000000000000000, 0.000000000000000000, 0.000000000000000000 ) ) ;
#650 = CYLINDRICAL_SURFACE ( 'NONE', #617, 3.999999999999996447 ) ;
#651 = VECTOR ( 'NONE', #1171, 1000.000000000000000 ) ;
#652 = EDGE_CURVE ( 'NONE', #2, #57, #1346, .T. ) ;
#653 =( LENGTH_UNIT ( ) NAMED_UNIT ( * ) SI_UNIT ( .MILLI., .METRE. ) );
#654 = EDGE_LOOP ( 'NONE', ( #1317, #1046 ) ) ;
#655 = AXIS2_PLACEMENT_3D ( 'NONE', #1078, #1290, #122 ) ;
#656 = DIRECTION ( 'NONE',  ( 0.000000000000000000, 0.000000000000000000, 1.000000000000000000 ) ) ;
#657 = CARTESIAN_POINT ( 'NONE',  ( 0.000000000000000000, 0.000000000000000000, -7.000000000000000000 ) ) ;
#658 = EDGE_LOOP ( 'NONE', ( #424, #740, #662, #903 ) ) ;
#659 = DIRECTION ( 'NONE',  ( 1.000000000000000000, 0.000000000000000000, 0.000000000000000000 ) ) ;
#660 = ADVANCED_FACE ( 'NONE', ( #1258 ), #512, .T. ) ;
#661 = CIRCLE ( 'NONE', #37, 2.000000000000001776 ) ;
#662 = ORIENTED_EDGE ( 'NONE', *, *, #886, .F. ) ;
#663 = EDGE_CURVE ( 'NONE', #299, #1189, #721, .T. ) ;
#664 = ORIENTED_EDGE ( 'NONE', *, *, #529, .F. ) ;
#665 = CARTESIAN_POINT ( 'NONE',  ( -34.00682253830707680, 28.34996828881513764, 5.000000000000000000 ) ) ;
#666 = ORIENTED_EDGE ( 'NONE', *, *, #115, .T. ) ;
#667 = DIRECTION ( 'NONE',  ( -1.000000000000000000, 0.000000000000000000, 0.000000000000000000 ) ) ;
#668 = ORIENTED_EDGE ( 'NONE', *, *, #1157, .T. ) ;
#669 = CARTESIAN_POINT ( 'NONE',  ( 36.76955262170046268, -31.11269837220809009, 5.000000000000000000 ) ) ;
#670 = ORIENTED_EDGE ( 'NONE', *, *, #439, .T. ) ;
#671 = CIRCLE ( 'NONE', #655, 2.000000000000001776 ) ;
#672 = LINE ( 'NONE', #1100, #1105 ) ;
#673 = ADVANCED_FACE ( 'NONE', ( #963 ), #104, .T. ) ;
#674 = DIRECTION ( 'NONE',  ( 1.000000000000000000, 0.000000000000000000, 0.000000000000000000 ) ) ;
#675 = DIRECTION ( 'NONE',  ( 0.000000000000000000, 0.000000000000000000, 1.000000000000000000 ) ) ;
#676 = EDGE_LOOP ( 'NONE', ( #118, #390, #156, #95 ) ) ;
#677 = EDGE_CURVE ( 'NONE', #1021, #632, #431, .T. ) ;
#678 = CARTESIAN_POINT ( 'NONE',  ( -36.76955262170056926, -31.11269837220809720, 5.000000000000000000 ) ) ;
#679 = FACE_OUTER_BOUND ( 'NONE', #89, .T. ) ;
#680 = AXIS2_PLACEMENT_3D ( 'NONE', #552, #656, #468 ) ;
#681 = LINE ( 'NONE', #1324, #250 ) ;
#682 = PRODUCT_RELATED_PRODUCT_CATEGORY ( 'part', '', ( #960 ) ) ;
#683 = LINE ( 'NONE', #146, #1286 ) ;
#684 = ORIENTED_EDGE ( 'NONE', *, *, #482, .T. ) ;
#685 = AXIS2_PLACEMENT_3D ( 'NONE', #180, #1033, #1359 ) ;
#686 = VERTEX_POINT ( 'NONE', #1148 ) ;
#687 = DIRECTION ( 'NONE',  ( -0.000000000000000000, -0.000000000000000000, -1.000000000000000000 ) ) ;
#688 = ORIENTED_EDGE ( 'NONE', *, *, #652, .T. ) ;
#689 = AXIS2_PLACEMENT_3D ( 'NONE', #232, #452, #1161 ) ;
#690 = ORIENTED_EDGE ( 'NONE', *, *, #991, .T. ) ;
#691 = CARTESIAN_POINT ( 'NONE',  ( 31.11269837220809364, -36.76955262170046979, 5.000000000000000000 ) ) ;
#692 = EDGE_CURVE ( 'NONE', #736, #979, #792, .T. ) ;
#693 = LINE ( 'NONE', #1122, #466 ) ;
#694 = ORIENTED_EDGE ( 'NONE', *, *, #932, .T. ) ;
#695 = EDGE_CURVE ( 'NONE', #789, #952, #556, .T. ) ;
#696 = VERTEX_POINT ( 'NONE', #326 ) ;
#697 = PLANE ( 'NONE',  #1087 ) ;
#698 = DIRECTION ( 'NONE',  ( 0.000000000000000000, 0.000000000000000000, 1.000000000000000000 ) ) ;
#699 = AXIS2_PLACEMENT_3D ( 'NONE', #1052, #530, #947 ) ;
#700 = ADVANCED_FACE ( 'NONE', ( #1369 ), #521, .F. ) ;
#701 = DIRECTION ( 'NONE',  ( 1.000000000000000000, 0.000000000000000000, 0.000000000000000000 ) ) ;
#702 = VECTOR ( 'NONE', #258, 999.9999999999998863 ) ;
#703 = ORIENTED_EDGE ( 'NONE', *, *, #1099, .T. ) ;
#704 = APPLICATION_CONTEXT ( 'automotive_design' ) ;
#705 = PLANE ( 'NONE',  #1347 ) ;
#706 = DIRECTION ( 'NONE',  ( 1.000000000000000000, 0.000000000000000000, 0.000000000000000000 ) ) ;
#707 = AXIS2_PLACEMENT_3D ( 'NONE', #428, #1169, #824 ) ;
#708 = VERTEX_POINT ( 'NONE', #535 ) ;
#709 = FACE_BOUND ( 'NONE', #205, .T. ) ;
#710 = DIRECTION ( 'NONE',  ( -0.000000000000000000, -0.000000000000000000, -1.000000000000000000 ) ) ;
#711 = DIRECTION ( 'NONE',  ( 1.000000000000000000, 0.000000000000000000, 0.000000000000000000 ) ) ;
#712 = ORIENTED_EDGE ( 'NONE', *, *, #393, .T. ) ;
#713 = CARTESIAN_POINT ( 'NONE',  ( 0.000000000000000000, 0.000000000000000000, -7.000000000000000000 ) ) ;
#714 = EDGE_LOOP ( 'NONE', ( #504, #1015, #163, #246 ) ) ;
#715 = VECTOR ( 'NONE', #810, 1000.000000000000000 ) ;
#716 = PRESENTATION_STYLE_ASSIGNMENT (( #1245 ) ) ;
#717 = CARTESIAN_POINT ( 'NONE',  ( 28.34996828881526554, 34.00682253830699153, 0.000000000000000000 ) ) ;
#718 = EDGE_CURVE ( 'NONE', #448, #414, #147, .T. ) ;
#719 = CARTESIAN_POINT ( 'NONE',  ( -36.76955262170050531, -36.76955262170041294, 0.000000000000000000 ) ) ;
#720 = ORIENTED_EDGE ( 'NONE', *, *, #267, .T. ) ;
#721 = LINE ( 'NONE', #5, #1152 ) ;
#722 = ADVANCED_FACE ( 'NONE', ( #98, #1273 ), #754, .T. ) ;
#723 = VERTEX_POINT ( 'NONE', #1062 ) ;
#724 = DIRECTION ( 'NONE',  ( 1.000000000000000000, 0.000000000000000000, -0.000000000000000000 ) ) ;
#725 = DIRECTION ( 'NONE',  ( 0.000000000000000000, 0.000000000000000000, 1.000000000000000000 ) ) ;
#726 = DIRECTION ( 'NONE',  ( 0.000000000000000000, 0.000000000000000000, 1.000000000000000000 ) ) ;
#727 = ORIENTED_EDGE ( 'NONE', *, *, #61, .F. ) ;
#728 = AXIS2_PLACEMENT_3D ( 'NONE', #833, #114, #1166 ) ;
#729 = CARTESIAN_POINT ( 'NONE',  ( -31.11269837220807233, 36.76955262170066163, 5.000000000000000000 ) ) ;
#730 = DIRECTION ( 'NONE',  ( 1.000000000000000000, 0.000000000000000000, 0.000000000000000000 ) ) ;
#731 = AXIS2_PLACEMENT_3D ( 'NONE', #8, #94, #631 ) ;
#732 = ORIENTED_EDGE ( 'NONE', *, *, #602, .F. ) ;
#733 = CARTESIAN_POINT ( 'NONE',  ( -31.94112549695431014, -33.94112549695422132, 0.000000000000000000 ) ) ;
#734 = DIRECTION ( 'NONE',  ( -1.000000000000000000, 0.000000000000000000, 0.000000000000000000 ) ) ;
#735 = CYLINDRICAL_SURFACE ( 'NONE', #685, 2.000000000000001776 ) ;
#736 = VERTEX_POINT ( 'NONE', #1249 ) ;
#737 = LINE ( 'NONE', #1321, #97 ) ;
#738 = DIRECTION ( 'NONE',  ( 0.000000000000000000, 0.000000000000000000, 1.000000000000000000 ) ) ;
#739 = EDGE_CURVE ( 'NONE', #227, #877, #1197, .T. ) ;
#740 = ORIENTED_EDGE ( 'NONE', *, *, #1060, .T. ) ;
#741 = APPLICATION_PROTOCOL_DEFINITION ( 'draft international standard', 'automotive_design', 1998, #704 ) ;
#742 = ORIENTED_EDGE ( 'NONE', *, *, #284, .F. ) ;
#743 = CIRCLE ( 'NONE', #137, 45.00000000000000711 ) ;
#744 = CYLINDRICAL_SURFACE ( 'NONE', #707, 3.999999999999996447 ) ;
#745 = EDGE_CURVE ( 'NONE', #210, #761, #641, .T. ) ;
#746 = ORIENTED_EDGE ( 'NONE', *, *, #616, .T. ) ;
#747 = DIRECTION ( 'NONE',  ( 0.000000000000000000, 0.000000000000000000, 1.000000000000000000 ) ) ;
#748 = DIRECTION ( 'NONE',  ( 1.000000000000000000, 0.000000000000000000, 0.000000000000000000 ) ) ;
#749 = ORIENTED_EDGE ( 'NONE', *, *, #1240, .T. ) ;
#750 = CARTESIAN_POINT ( 'NONE',  ( -33.94112549695431369, -33.94112549695421421, 5.000000000000000000 ) ) ;
#751 = ORIENTED_EDGE ( 'NONE', *, *, #462, .F. ) ;
#752 = ADVANCED_FACE ( 'NONE', ( #545 ), #859, .F. ) ;
#753 = PLANE ( 'NONE',  #1017 ) ;
#754 = PLANE ( 'NONE',  #59 ) ;
#755 = AXIS2_PLACEMENT_3D ( 'NONE', #80, #1180, #955 ) ;
#756 = AXIS2_PLACEMENT_3D ( 'NONE', #17, #363, #454 ) ;
#757 = DIRECTION ( 'NONE',  ( 0.000000000000000000, 0.000000000000000000, 1.000000000000000000 ) ) ;
#758 = AXIS2_PLACEMENT_3D ( 'NONE', #637, #110, #927 ) ;
#759 = ORIENTED_EDGE ( 'NONE', *, *, #851, .T. ) ;
#760 = CARTESIAN_POINT ( 'NONE',  ( 0.000000000000000000, 0.000000000000000000, 5.000000000000000000 ) ) ;
#761 = VERTEX_POINT ( 'NONE', #298 ) ;
#762 = CIRCLE ( 'NONE', #1009, 2.000000000000001776 ) ;
#763 = EDGE_CURVE ( 'NONE', #64, #1189, #353, .T. ) ;
#764 = DIRECTION ( 'NONE',  ( 1.000000000000000000, 0.000000000000000000, 0.000000000000000000 ) ) ;
#765 = ADVANCED_FACE ( 'NONE', ( #615 ), #413, .T. ) ;
#766 = CARTESIAN_POINT ( 'NONE',  ( -33.94112549695415026, 33.94112549695435632, 0.000000000000000000 ) ) ;
#767 = VERTEX_POINT ( 'NONE', #316 ) ;
#768 = ORIENTED_EDGE ( 'NONE', *, *, #870, .F. ) ;
#769 = CYLINDRICAL_SURFACE ( 'NONE', #220, 4.000000000000000000 ) ;
#770 = EDGE_LOOP ( 'NONE', ( #1147, #749, #1121, #233 ) ) ;
#771 = LINE ( 'NONE', #1093, #592 ) ;
#772 = LINE ( 'NONE', #1207, #1316 ) ;
#773 = CIRCLE ( 'NONE', #1108, 4.000000000000000000 ) ;
#774 = CARTESIAN_POINT ( 'NONE',  ( 0.000000000000000000, 0.000000000000000000, 0.000000000000000000 ) ) ;
#775 = DIRECTION ( 'NONE',  ( 0.000000000000000000, 0.000000000000000000, 1.000000000000000000 ) ) ;
#776 = EDGE_LOOP ( 'NONE', ( #403, #635, #901, #1055 ) ) ;
#777 = EDGE_CURVE ( 'NONE', #1173, #839, #460, .T. ) ;
#778 = CYLINDRICAL_SURFACE ( 'NONE', #511, 13.00000000000000178 ) ;
#779 = LINE ( 'NONE', #590, #209 ) ;
#780 = EDGE_CURVE ( 'NONE', #1285, #1006, #869, .T. ) ;
#781 = DIRECTION ( 'NONE',  ( 1.000000000000000000, 0.000000000000000000, 0.000000000000000000 ) ) ;
#782 = EDGE_LOOP ( 'NONE', ( #55, #1149, #1216, #688, #1194, #291, #123, #940, #639, #364, #369, #219, #1196, #933, #720, #161, #531, #703, #852, #1109, #1265, #1080, #1072 ) ) ;
#783 = VECTOR ( 'NONE', #445, 1000.000000000000114 ) ;
#784 = AXIS2_PLACEMENT_3D ( 'NONE', #164, #1310, #1115 ) ;
#785 = LINE ( 'NONE', #463, #572 ) ;
#786 = EDGE_CURVE ( 'NONE', #761, #574, #1075, .T. ) ;
#787 = CARTESIAN_POINT ( 'NONE',  ( 28.86542085873476893, -34.52227510822714862, 0.000000000000000000 ) ) ;
#788 = DIRECTION ( 'NONE',  ( -0.000000000000000000, -0.000000000000000000, -1.000000000000000000 ) ) ;
#789 = VERTEX_POINT ( 'NONE', #21 ) ;
#790 = CARTESIAN_POINT ( 'NONE',  ( 34.00682253830728996, -28.34996828881491027, 5.000000000000000000 ) ) ;
#791 = FACE_OUTER_BOUND ( 'NONE', #1365, .T. ) ;
#792 = CIRCLE ( 'NONE', #728, 2.000000000000001776 ) ;
#793 = CIRCLE ( 'NONE', #680, 45.00000000000000711 ) ;
#794 = ORIENTED_EDGE ( 'NONE', *, *, #66, .F. ) ;
#795 = VECTOR ( 'NONE', #1042, 1000.000000000000000 ) ;
#796 = DIRECTION ( 'NONE',  ( 0.7071067811865326957, 0.7071067811865624497, -0.000000000000000000 ) ) ;
#797 = EDGE_LOOP ( 'NONE', ( #323, #684, #624, #239 ) ) ;
#798 = CARTESIAN_POINT ( 'NONE',  ( -35.94112549695431369, -33.94112549695422132, 0.000000000000000000 ) ) ;
#799 = EDGE_CURVE ( 'NONE', #979, #510, #974, .T. ) ;
#800 = ORIENTED_EDGE ( 'NONE', *, *, #1233, .T. ) ;
#801 = CARTESIAN_POINT ( 'NONE',  ( 28.86542085873476893, -34.52227510822715573, 5.000000000000000000 ) ) ;
#802 = CYLINDRICAL_SURFACE ( 'NONE', #149, 45.00000000000000711 ) ;
#803 = EDGE_LOOP ( 'NONE', ( #873, #987, #1002, #1085 ) ) ;
#804 = EDGE_CURVE ( 'NONE', #1031, #441, #1065, .T. ) ;
#805 = AXIS2_PLACEMENT_3D ( 'NONE', #195, #525, #1350 ) ;
#806 = VECTOR ( 'NONE', #1214, 1000.000000000000000 ) ;
#807 = ORIENTED_EDGE ( 'NONE', *, *, #440, .F. ) ;
#808 = EDGE_CURVE ( 'NONE', #57, #1089, #1090, .T. ) ;
#809 = DIRECTION ( 'NONE',  ( -0.000000000000000000, -0.000000000000000000, 1.000000000000000000 ) ) ;
#810 = DIRECTION ( 'NONE',  ( 0.000000000000000000, 0.000000000000000000, 1.000000000000000000 ) ) ;
#811 = CARTESIAN_POINT ( 'NONE',  ( -36.76955262170050531, -36.76955262170041294, 0.000000000000000000 ) ) ;
#812 = ORIENTED_EDGE ( 'NONE', *, *, #228, .F. ) ;
#813 = ORIENTED_EDGE ( 'NONE', *, *, #881, .T. ) ;
#814 = FILL_AREA_STYLE_COLOUR ( '', #337 ) ;
#815 = CARTESIAN_POINT ( 'NONE',  ( 0.000000000000000000, 0.000000000000000000, -7.000000000000000000 ) ) ;
#816 = DIRECTION ( 'NONE',  ( 0.000000000000000000, 0.000000000000000000, 1.000000000000000000 ) ) ;
#817 = EDGE_LOOP ( 'NONE', ( #668, #1083 ) ) ;
#818 = CARTESIAN_POINT ( 'NONE',  ( 33.94112549695427816, -33.94112549695427816, 0.000000000000000000 ) ) ;
#819 = VECTOR ( 'NONE', #328, 1000.000000000000000 ) ;
#820 = ORIENTED_EDGE ( 'NONE', *, *, #1050, .F. ) ;
#821 = ADVANCED_FACE ( 'NONE', ( #120 ), #879, .F. ) ;
#822 = CARTESIAN_POINT ( 'NONE',  ( 28.34996828881526554, 34.00682253830699153, 5.000000000000000000 ) ) ;
#823 = DIRECTION ( 'NONE',  ( 0.7071067811865326957, 0.7071067811865624497, 0.000000000000000000 ) ) ;
#824 = DIRECTION ( 'NONE',  ( 1.000000000000000000, 0.000000000000000000, 0.000000000000000000 ) ) ;
#825 = ORIENTED_EDGE ( 'NONE', *, *, #66, .T. ) ;
#826 = DIRECTION ( 'NONE',  ( 1.000000000000000000, 0.000000000000000000, 0.000000000000000000 ) ) ;
#827 = ORIENTED_EDGE ( 'NONE', *, *, #777, .T. ) ;
#828 = CYLINDRICAL_SURFACE ( 'NONE', #133, 2.000000000000001776 ) ;
#829 = DIRECTION ( 'NONE',  ( 0.000000000000000000, 0.000000000000000000, 1.000000000000000000 ) ) ;
#830 = CARTESIAN_POINT ( 'NONE',  ( -33.94112549695415026, 33.94112549695435632, 5.000000000000000000 ) ) ;
#831 = ORIENTED_EDGE ( 'NONE', *, *, #1202, .F. ) ;
#832 = DIRECTION ( 'NONE',  ( -0.000000000000000000, -0.000000000000000000, -1.000000000000000000 ) ) ;
#833 = CARTESIAN_POINT ( 'NONE',  ( 33.94112549695427816, -33.94112549695427816, 0.000000000000000000 ) ) ;
#834 = ORIENTED_EDGE ( 'NONE', *, *, #183, .F. ) ;
#835 =( NAMED_UNIT ( * ) PLANE_ANGLE_UNIT ( ) SI_UNIT ( $, .RADIAN. ) );
#836 = CARTESIAN_POINT ( 'NONE',  ( -4.000000000000000000, 4.898587196589412829E-16, 0.000000000000000000 ) ) ;
#837 = DIRECTION ( 'NONE',  ( -0.000000000000000000, -0.000000000000000000, -1.000000000000000000 ) ) ;
#838 = ORIENTED_EDGE ( 'NONE', *, *, #334, .F. ) ;
#839 = VERTEX_POINT ( 'NONE', #1300 ) ;
#840 = AXIS2_PLACEMENT_3D ( 'NONE', #356, #968, #781 ) ;
#841 = CARTESIAN_POINT ( 'NONE',  ( 0.000000000000000000, 0.000000000000000000, 5.000000000000000000 ) ) ;
#842 = VECTOR ( 'NONE', #1082, 1000.000000000000000 ) ;
#843 = ORIENTED_EDGE ( 'NONE', *, *, #321, .T. ) ;
#844 = LINE ( 'NONE', #860, #490 ) ;
#845 = DIRECTION ( 'NONE',  ( -0.7071067811865316965, -0.7071067811865632269, -0.000000000000000000 ) ) ;
#846 = CARTESIAN_POINT ( 'NONE',  ( 33.94112549695427816, -33.94112549695427816, 0.000000000000000000 ) ) ;
#847 = ORIENTED_EDGE ( 'NONE', *, *, #932, .F. ) ;
#848 = AXIS2_PLACEMENT_3D ( 'NONE', #862, #640, #1281 ) ;
#849 = CARTESIAN_POINT ( 'NONE',  ( 31.94112549695427816, -33.94112549695427816, 5.000000000000000000 ) ) ;
#850 = DIRECTION ( 'NONE',  ( 0.000000000000000000, 0.000000000000000000, 1.000000000000000000 ) ) ;
#851 = EDGE_CURVE ( 'NONE', #979, #736, #661, .T. ) ;
#852 = ORIENTED_EDGE ( 'NONE', *, *, #1094, .T. ) ;
#853 = CARTESIAN_POINT ( 'NONE',  ( -39.59797974644663299, -33.94112549695428527, 0.000000000000000000 ) ) ;
#854 = VECTOR ( 'NONE', #845, 1000.000000000000114 ) ;
#855 = ADVANCED_FACE ( 'NONE', ( #863 ), #769, .T. ) ;
#856 = CARTESIAN_POINT ( 'NONE',  ( -36.76955262170034189, 36.76955262170054795, 0.000000000000000000 ) ) ;
#857 = ORIENTED_EDGE ( 'NONE', *, *, #1254, .F. ) ;
#858 = LINE ( 'NONE', #330, #1184 ) ;
#859 = CYLINDRICAL_SURFACE ( 'NONE', #488, 2.000000000000001776 ) ;
#860 = CARTESIAN_POINT ( 'NONE',  ( 13.00000000000000178, 0.000000000000000000, -7.000000000000000000 ) ) ;
#861 = ORIENTED_EDGE ( 'NONE', *, *, #478, .T. ) ;
#862 = CARTESIAN_POINT ( 'NONE',  ( 0.000000000000000000, 0.000000000000000000, 5.000000000000000000 ) ) ;
#863 = FACE_OUTER_BOUND ( 'NONE', #658, .T. ) ;
#864 = CIRCLE ( 'NONE', #446, 45.00000000000000711 ) ;
#865 = VECTOR ( 'NONE', #245, 1000.000000000000000 ) ;
#866 = CYLINDRICAL_SURFACE ( 'NONE', #594, 11.00000000000000000 ) ;
#867 = EDGE_CURVE ( 'NONE', #1006, #767, #864, .T. ) ;
#868 = EDGE_LOOP ( 'NONE', ( #966, #1120 ) ) ;
#869 = LINE ( 'NONE', #665, #1040 ) ;
#870 = EDGE_CURVE ( 'NONE', #583, #441, #225, .T. ) ;
#871 = PRODUCT_CONTEXT ( 'NONE', #638, 'mechanical' ) ;
#872 = VECTOR ( 'NONE', #1061, 1000.000000000000000 ) ;
#873 = ORIENTED_EDGE ( 'NONE', *, *, #317, .F. ) ;
#874 = FACE_OUTER_BOUND ( 'NONE', #920, .T. ) ;
#875 = EDGE_LOOP ( 'NONE', ( #111, #260, #1051, #347 ) ) ;
#876 = DIRECTION ( 'NONE',  ( 1.000000000000000000, 0.000000000000000000, 0.000000000000000000 ) ) ;
#877 = VERTEX_POINT ( 'NONE', #669 ) ;
#878 = DIRECTION ( 'NONE',  ( 1.000000000000000000, 0.000000000000000000, 0.000000000000000000 ) ) ;
#879 = CYLINDRICAL_SURFACE ( 'NONE', #840, 2.000000000000001776 ) ;
#880 = VERTEX_POINT ( 'NONE', #1097 ) ;
#881 = EDGE_CURVE ( 'NONE', #448, #723, #560, .T. ) ;
#882 = VECTOR ( 'NONE', #135, 1000.000000000000000 ) ;
#883 = VECTOR ( 'NONE', #796, 1000.000000000000000 ) ;
#884 = DIRECTION ( 'NONE',  ( -0.000000000000000000, -0.000000000000000000, 1.000000000000000000 ) ) ;
#885 = DIRECTION ( 'NONE',  ( 0.000000000000000000, 0.000000000000000000, 1.000000000000000000 ) ) ;
#886 = EDGE_CURVE ( 'NONE', #574, #272, #1219, .T. ) ;
#887 = VECTOR ( 'NONE', #1352, 1000.000000000000000 ) ;
#888 = DIRECTION ( 'NONE',  ( 1.000000000000000000, 0.000000000000000000, 0.000000000000000000 ) ) ;
#889 = LINE ( 'NONE', #124, #1106 ) ;
#890 = VERTEX_POINT ( 'NONE', #229 ) ;
#891 = EDGE_CURVE ( 'NONE', #136, #890, #793, .T. ) ;
#892 = FACE_OUTER_BOUND ( 'NONE', #319, .T. ) ;
#893 = DIRECTION ( 'NONE',  ( -0.000000000000000000, -0.000000000000000000, -1.000000000000000000 ) ) ;
#894 = EDGE_CURVE ( 'NONE', #880, #134, #261, .T. ) ;
#895 = EDGE_LOOP ( 'NONE', ( #348, #181, #455, #664 ) ) ;
#896 = CARTESIAN_POINT ( 'NONE',  ( -34.52227510822697099, 28.86542085873498920, 5.000000000000000000 ) ) ;
#897 = VERTEX_POINT ( 'NONE', #1081 ) ;
#898 = VECTOR ( 'NONE', #202, 1000.000000000000000 ) ;
#899 = CARTESIAN_POINT ( 'NONE',  ( -35.94112549695415026, 33.94112549695435632, 0.000000000000000000 ) ) ;
#900 = CARTESIAN_POINT ( 'NONE',  ( 36.76955262170061900, 36.76955262170029215, 5.000000000000000000 ) ) ;
#901 = ORIENTED_EDGE ( 'NONE', *, *, #1073, .T. ) ;
#902 = CYLINDRICAL_SURFACE ( 'NONE', #193, 3.999999999999996447 ) ;
#903 = ORIENTED_EDGE ( 'NONE', *, *, #1240, .F. ) ;
#904 = AXIS2_PLACEMENT_3D ( 'NONE', #103, #1272, #1053 ) ;
#905 = EDGE_CURVE ( 'NONE', #1008, #789, #889, .T. ) ;
#906 = ORIENTED_EDGE ( 'NONE', *, *, #317, .T. ) ;
#907 = VECTOR ( 'NONE', #959, 1000.000000000000000 ) ;
#908 = CARTESIAN_POINT ( 'NONE',  ( 0.000000000000000000, 0.000000000000000000, 5.000000000000000000 ) ) ;
#909 = EDGE_LOOP ( 'NONE', ( #1345, #990 ) ) ;
#910 = ADVANCED_FACE ( 'NONE', ( #555 ), #650, .T. ) ;
#911 = ORIENTED_EDGE ( 'NONE', *, *, #1113, .F. ) ;
#912 = CARTESIAN_POINT ( 'NONE',  ( 0.000000000000000000, 0.000000000000000000, 5.000000000000000000 ) ) ;
#913 = CARTESIAN_POINT ( 'NONE',  ( 0.000000000000000000, 0.000000000000000000, 5.000000000000000000 ) ) ;
#914 = ORIENTED_EDGE ( 'NONE', *, *, #566, .T. ) ;
#915 = AXIS2_PLACEMENT_3D ( 'NONE', #31, #355, #878 ) ;
#916 = CARTESIAN_POINT ( 'NONE',  ( 33.94112549695427816, -39.59797974644666141, 0.000000000000000000 ) ) ;
#917 = CYLINDRICAL_SURFACE ( 'NONE', #630, 3.999999999999996447 ) ;
#918 = DIRECTION ( 'NONE',  ( 1.000000000000000000, 0.000000000000000000, 0.000000000000000000 ) ) ;
#919 = ORIENTED_EDGE ( 'NONE', *, *, #559, .F. ) ;
#920 = EDGE_LOOP ( 'NONE', ( #949, #72, #825, #497 ) ) ;
#921 = DIRECTION ( 'NONE',  ( 0.000000000000000000, 0.000000000000000000, 1.000000000000000000 ) ) ;
#922 = ADVANCED_FACE ( 'NONE', ( #874 ), #1331, .T. ) ;
#923 = ORIENTED_EDGE ( 'NONE', *, *, #1035, .T. ) ;
#924 = LINE ( 'NONE', #822, #1130 ) ;
#925 = DIRECTION ( 'NONE',  ( 0.000000000000000000, 0.000000000000000000, -1.000000000000000000 ) ) ;
#926 = AXIS2_PLACEMENT_3D ( 'NONE', #505, #921, #397 ) ;
#927 = DIRECTION ( 'NONE',  ( 1.000000000000000000, 0.000000000000000000, 0.000000000000000000 ) ) ;
#928 = CIRCLE ( 'NONE', #537, 3.999999999999996447 ) ;
#929 = ORIENTED_EDGE ( 'NONE', *, *, #39, .F. ) ;
#930 = CARTESIAN_POINT ( 'NONE',  ( -39.59797974644663299, -33.94112549695428527, 0.000000000000000000 ) ) ;
#931 = VECTOR ( 'NONE', #951, 1000.000000000000000 ) ;
#932 = EDGE_CURVE ( 'NONE', #441, #1031, #40, .T. ) ;
#933 = ORIENTED_EDGE ( 'NONE', *, *, #139, .T. ) ;
#934 = LINE ( 'NONE', #285, #22 ) ;
#935 = CARTESIAN_POINT ( 'NONE',  ( -33.94112549695415026, 33.94112549695435632, 5.000000000000000000 ) ) ;
#936 = DIRECTION ( 'NONE',  ( -0.7071067811865477948, 0.7071067811865473507, 0.000000000000000000 ) ) ;
#937 = ORIENTED_EDGE ( 'NONE', *, *, #494, .F. ) ;
#938 = CARTESIAN_POINT ( 'NONE',  ( 33.94112549695427816, -33.94112549695427816, 5.000000000000000000 ) ) ;
#939 = VECTOR ( 'NONE', #19, 1000.000000000000000 ) ;
#940 = ORIENTED_EDGE ( 'NONE', *, *, #1133, .T. ) ;
#941 = AXIS2_PLACEMENT_3D ( 'NONE', #815, #611, #606 ) ;
#942 = DIRECTION ( 'NONE',  ( -0.7071067811865475727, -0.7071067811865475727, 0.000000000000000000 ) ) ;
#943 = FACE_OUTER_BOUND ( 'NONE', #797, .T. ) ;
#944 = CARTESIAN_POINT ( 'NONE',  ( -13.00000000000000178, 1.592040838891559293E-15, 0.000000000000000000 ) ) ;
#945 = VERTEX_POINT ( 'NONE', #487 ) ;
#946 = CARTESIAN_POINT ( 'NONE',  ( -33.94112549695431369, -33.94112549695421421, 0.000000000000000000 ) ) ;
#947 = DIRECTION ( 'NONE',  ( 1.000000000000000000, 0.000000000000000000, 0.000000000000000000 ) ) ;
#948 = EDGE_CURVE ( 'NONE', #357, #583, #573, .T. ) ;
#949 = ORIENTED_EDGE ( 'NONE', *, *, #498, .F. ) ;
#950 = ADVANCED_FACE ( 'NONE', ( #1007 ), #802, .T. ) ;
#951 = DIRECTION ( 'NONE',  ( -0.000000000000000000, -0.000000000000000000, 1.000000000000000000 ) ) ;
#952 = VERTEX_POINT ( 'NONE', #271 ) ;
#953 = AXIS2_PLACEMENT_3D ( 'NONE', #1322, #255, #992 ) ;
#954 = DIRECTION ( 'NONE',  ( 1.000000000000000000, 0.000000000000000000, 0.000000000000000000 ) ) ;
#955 = DIRECTION ( 'NONE',  ( -1.000000000000000000, 0.000000000000000000, 0.000000000000000000 ) ) ;
#956 = AXIS2_PLACEMENT_3D ( 'NONE', #766, #757, #1269 ) ;
#957 = EDGE_CURVE ( 'NONE', #510, #549, #222, .T. ) ;
#958 = ORIENTED_EDGE ( 'NONE', *, *, #86, .T. ) ;
#959 = DIRECTION ( 'NONE',  ( -0.7071067811865765496, 0.7071067811865185959, -0.000000000000000000 ) ) ;
#960 = PRODUCT ( 'Tapa_Turbina', 'Tapa_Turbina', '', ( #871 ) ) ;
#961 = ORIENTED_EDGE ( 'NONE', *, *, #340, .F. ) ;
#962 = FACE_OUTER_BOUND ( 'NONE', #519, .T. ) ;
#963 = FACE_OUTER_BOUND ( 'NONE', #770, .T. ) ;
#964 = LINE ( 'NONE', #13, #783 ) ;
#965 = AXIS2_PLACEMENT_3D ( 'NONE', #717, #416, #517 ) ;
#966 = ORIENTED_EDGE ( 'NONE', *, *, #695, .F. ) ;
#967 = DIRECTION ( 'NONE',  ( -0.000000000000000000, -0.000000000000000000, -1.000000000000000000 ) ) ;
#968 = DIRECTION ( 'NONE',  ( -0.000000000000000000, -0.000000000000000000, 1.000000000000000000 ) ) ;
#969 = ADVANCED_FACE ( 'NONE', ( #1111 ), #902, .T. ) ;
#970 = CARTESIAN_POINT ( 'NONE',  ( 33.94112549695427816, -39.59797974644666141, 5.000000000000000000 ) ) ;
#971 = CARTESIAN_POINT ( 'NONE',  ( -13.00000000000000178, 1.592040838891559293E-15, -7.000000000000000000 ) ) ;
#972 = EDGE_CURVE ( 'NONE', #273, #1307, #693, .T. ) ;
#973 = ORIENTED_EDGE ( 'NONE', *, *, #543, .T. ) ;
#974 = LINE ( 'NONE', #1305, #1263 ) ;
#975 = VECTOR ( 'NONE', #1336, 1000.000000000000000 ) ;
#976 = AXIS2_PLACEMENT_3D ( 'NONE', #750, #1278, #1137 ) ;
#977 = DIRECTION ( 'NONE',  ( 1.000000000000000000, -1.734723475976808672E-15, 0.000000000000000000 ) ) ;
#978 = ORIENTED_EDGE ( 'NONE', *, *, #972, .F. ) ;
#979 = VERTEX_POINT ( 'NONE', #495 ) ;
#980 = EDGE_LOOP ( 'NONE', ( #1280, #148, #558, #619 ) ) ;
#981 = DIRECTION ( 'NONE',  ( -0.000000000000000000, -0.000000000000000000, 1.000000000000000000 ) ) ;
#982 = ORIENTED_EDGE ( 'NONE', *, *, #718, .T. ) ;
#983 = CARTESIAN_POINT ( 'NONE',  ( 0.000000000000000000, 0.000000000000000000, -7.000000000000000000 ) ) ;
#984 = DIRECTION ( 'NONE',  ( 1.000000000000000000, 0.000000000000000000, 0.000000000000000000 ) ) ;
#985 = CIRCLE ( 'NONE', #526, 11.00000000000000000 ) ;
#986 = EDGE_CURVE ( 'NONE', #172, #952, #1131, .T. ) ;
#987 = ORIENTED_EDGE ( 'NONE', *, *, #663, .T. ) ;
#988 = AXIS2_PLACEMENT_3D ( 'NONE', #367, #1330, #888 ) ;
#989 = DIRECTION ( 'NONE',  ( 1.000000000000000000, 0.000000000000000000, 0.000000000000000000 ) ) ;
#990 = ORIENTED_EDGE ( 'NONE', *, *, #228, .T. ) ;
#991 = EDGE_CURVE ( 'NONE', #1276, #407, #928, .T. ) ;
#992 = DIRECTION ( 'NONE',  ( 1.000000000000000000, 0.000000000000000000, 0.000000000000000000 ) ) ;
#993 = DIRECTION ( 'NONE',  ( -0.000000000000000000, -0.000000000000000000, 1.000000000000000000 ) ) ;
#994 = ORIENTED_EDGE ( 'NONE', *, *, #596, .T. ) ;
#995 = DIRECTION ( 'NONE',  ( 1.000000000000000000, 0.000000000000000000, 0.000000000000000000 ) ) ;
#996 = VERTEX_POINT ( 'NONE', #811 ) ;
#997 = AXIS2_PLACEMENT_3D ( 'NONE', #579, #290, #351 ) ;
#998 = ADVANCED_FACE ( 'NONE', ( #1234 ), #276, .F. ) ;
#999 = AXIS2_PLACEMENT_3D ( 'NONE', #381, #1117, #591 ) ;
#1000 = CARTESIAN_POINT ( 'NONE',  ( 35.94112549695443448, 33.94112549695410053, 0.000000000000000000 ) ) ;
#1001 = CIRCLE ( 'NONE', #150, 45.00000000000000711 ) ;
#1002 = ORIENTED_EDGE ( 'NONE', *, *, #763, .F. ) ;
#1003 = CARTESIAN_POINT ( 'NONE',  ( 31.11269837220809364, -36.76955262170046979, 0.000000000000000000 ) ) ;
#1004 = ORIENTED_EDGE ( 'NONE', *, *, #905, .F. ) ;
#1005 = DIRECTION ( 'NONE',  ( -0.000000000000000000, -0.000000000000000000, 1.000000000000000000 ) ) ;
#1006 = VERTEX_POINT ( 'NONE', #896 ) ;
#1007 = FACE_OUTER_BOUND ( 'NONE', #776, .T. ) ;
#1008 = VERTEX_POINT ( 'NONE', #1014 ) ;
#1009 = AXIS2_PLACEMENT_3D ( 'NONE', #1102, #1096, #69 ) ;
#1010 = EDGE_CURVE ( 'NONE', #583, #357, #1348, .T. ) ;
#1011 = ORIENTED_EDGE ( 'NONE', *, *, #145, .T. ) ;
#1012 = FACE_OUTER_BOUND ( 'NONE', #38, .T. ) ;
#1013 = EDGE_CURVE ( 'NONE', #414, #1268, #1103, .T. ) ;
#1014 = CARTESIAN_POINT ( 'NONE',  ( 4.000000000000000000, 0.000000000000000000, 0.000000000000000000 ) ) ;
#1015 = ORIENTED_EDGE ( 'NONE', *, *, #1056, .F. ) ;
#1016 = ORIENTED_EDGE ( 'NONE', *, *, #1181, .T. ) ;
#1017 = AXIS2_PLACEMENT_3D ( 'NONE', #1179, #224, #217 ) ;
#1018 = CARTESIAN_POINT ( 'NONE',  ( -31.11269837220806522, -36.76955262170034899, 0.000000000000000000 ) ) ;
#1019 = AXIS2_PLACEMENT_3D ( 'NONE', #1139, #816, #418 ) ;
#1020 = CARTESIAN_POINT ( 'NONE',  ( 33.94112549695443448, 33.94112549695410053, 0.000000000000000000 ) ) ;
#1021 = VERTEX_POINT ( 'NONE', #1215 ) ;
#1022 = ORIENTED_EDGE ( 'NONE', *, *, #372, .F. ) ;
#1023 = DIRECTION ( 'NONE',  ( 0.000000000000000000, 0.000000000000000000, -1.000000000000000000 ) ) ;
#1024 = CARTESIAN_POINT ( 'NONE',  ( 0.000000000000000000, 0.000000000000000000, 0.000000000000000000 ) ) ;
#1025 = EDGE_CURVE ( 'NONE', #643, #696, #1344, .T. ) ;
#1026 = DIRECTION ( 'NONE',  ( 1.000000000000000000, 0.000000000000000000, 0.000000000000000000 ) ) ;
#1027 = ORIENTED_EDGE ( 'NONE', *, *, #891, .T. ) ;
#1028 = DIRECTION ( 'NONE',  ( 1.000000000000000000, 0.000000000000000000, -0.000000000000000000 ) ) ;
#1029 = AXIS2_PLACEMENT_3D ( 'NONE', #935, #698, #1129 ) ;
#1030 = EDGE_CURVE ( 'NONE', #53, #134, #683, .T. ) ;
#1031 = VERTEX_POINT ( 'NONE', #575 ) ;
#1032 = CARTESIAN_POINT ( 'NONE',  ( -28.34996828881502395, -34.00682253830719048, 0.000000000000000000 ) ) ;
#1033 = DIRECTION ( 'NONE',  ( -0.000000000000000000, -0.000000000000000000, 1.000000000000000000 ) ) ;
#1034 = ORIENTED_EDGE ( 'NONE', *, *, #1356, .T. ) ;
#1035 = EDGE_CURVE ( 'NONE', #1332, #64, #483, .T. ) ;
#1036 = DIRECTION ( 'NONE',  ( 0.000000000000000000, 0.000000000000000000, -1.000000000000000000 ) ) ;
#1037 = EDGE_LOOP ( 'NONE', ( #1225, #469, #336, #1164 ) ) ;
#1038 = DIRECTION ( 'NONE',  ( -1.000000000000000000, 0.000000000000000000, 0.000000000000000000 ) ) ;
#1039 = FACE_OUTER_BOUND ( 'NONE', #237, .T. ) ;
#1040 = VECTOR ( 'NONE', #1293, 1000.000000000000114 ) ;
#1041 = CARTESIAN_POINT ( 'NONE',  ( -31.94112549695414671, 33.94112549695435632, 0.000000000000000000 ) ) ;
#1042 = DIRECTION ( 'NONE',  ( -0.000000000000000000, -0.000000000000000000, -1.000000000000000000 ) ) ;
#1043 = ORIENTED_EDGE ( 'NONE', *, *, #1013, .T. ) ;
#1044 = CARTESIAN_POINT ( 'NONE',  ( -33.94112549695415026, 33.94112549695435632, 0.000000000000000000 ) ) ;
#1045 = CIRCLE ( 'NONE', #262, 4.000000000000000000 ) ;
#1046 = ORIENTED_EDGE ( 'NONE', *, *, #948, .T. ) ;
#1047 = FACE_OUTER_BOUND ( 'NONE', #467, .T. ) ;
#1048 = PLANE ( 'NONE',  #295 ) ;
#1049 = DIRECTION ( 'NONE',  ( 0.000000000000000000, 0.000000000000000000, 1.000000000000000000 ) ) ;
#1050 = EDGE_CURVE ( 'NONE', #197, #1089, #45, .T. ) ;
#1051 = ORIENTED_EDGE ( 'NONE', *, *, #972, .T. ) ;
#1052 = CARTESIAN_POINT ( 'NONE',  ( -33.94112549695415026, 33.94112549695435632, 0.000000000000000000 ) ) ;
#1053 = DIRECTION ( 'NONE',  ( 1.000000000000000000, 0.000000000000000000, -0.000000000000000000 ) ) ;
#1054 = CIRCLE ( 'NONE', #158, 45.00000000000000711 ) ;
#1055 = ORIENTED_EDGE ( 'NONE', *, *, #24, .T. ) ;
#1056 = EDGE_CURVE ( 'NONE', #215, #880, #773, .T. ) ;
#1057 = FACE_OUTER_BOUND ( 'NONE', #676, .T. ) ;
#1058 = LINE ( 'NONE', #1270, #907 ) ;
#1059 = ORIENTED_EDGE ( 'NONE', *, *, #115, .F. ) ;
#1060 = EDGE_CURVE ( 'NONE', #996, #272, #402, .T. ) ;
#1061 = DIRECTION ( 'NONE',  ( -0.000000000000000000, -0.000000000000000000, -1.000000000000000000 ) ) ;
#1062 = CARTESIAN_POINT ( 'NONE',  ( -35.94112549695415026, 33.94112549695435632, 5.000000000000000000 ) ) ;
#1063 = VERTEX_POINT ( 'NONE', #944 ) ;
#1064 = LINE ( 'NONE', #203, #887 ) ;
#1065 = CIRCLE ( 'NONE', #465, 2.000000000000001776 ) ;
#1066 = ORIENTED_EDGE ( 'NONE', *, *, #1076, .F. ) ;
#1067 = AXIS2_PLACEMENT_3D ( 'NONE', #71, #252, #918 ) ;
#1068 = CARTESIAN_POINT ( 'NONE',  ( 0.000000000000000000, 0.000000000000000000, 5.000000000000000000 ) ) ;
#1069 = DIRECTION ( 'NONE',  ( 0.000000000000000000, 0.000000000000000000, 1.000000000000000000 ) ) ;
#1070 = CIRCLE ( 'NONE', #976, 4.000000000000000000 ) ;
#1071 = APPLICATION_PROTOCOL_DEFINITION ( 'draft international standard', 'automotive_design', 1998, #638 ) ;
#1072 = ORIENTED_EDGE ( 'NONE', *, *, #498, .T. ) ;
#1073 = EDGE_CURVE ( 'NONE', #1089, #20, #376, .T. ) ;
#1074 = DIRECTION ( 'NONE',  ( -0.000000000000000000, -0.000000000000000000, -1.000000000000000000 ) ) ;
#1075 = LINE ( 'NONE', #26, #278 ) ;
#1076 = EDGE_CURVE ( 'NONE', #282, #839, #612, .T. ) ;
#1077 = CARTESIAN_POINT ( 'NONE',  ( 13.00000000000000178, 0.000000000000000000, 0.000000000000000000 ) ) ;
#1078 = CARTESIAN_POINT ( 'NONE',  ( -33.94112549695415026, 33.94112549695435632, 0.000000000000000000 ) ) ;
#1079 = AXIS2_PLACEMENT_3D ( 'NONE', #601, #893, #366 ) ;
#1080 = ORIENTED_EDGE ( 'NONE', *, *, #867, .T. ) ;
#1081 = CARTESIAN_POINT ( 'NONE',  ( 31.11269837220807588, 36.76955262170012162, 5.000000000000000000 ) ) ;
#1082 = DIRECTION ( 'NONE',  ( -0.000000000000000000, -0.000000000000000000, -1.000000000000000000 ) ) ;
#1083 = ORIENTED_EDGE ( 'NONE', *, *, #647, .T. ) ;
#1084 = CARTESIAN_POINT ( 'NONE',  ( 34.52227510822715573, -28.86542085873477248, 5.000000000000000000 ) ) ;
#1085 = ORIENTED_EDGE ( 'NONE', *, *, #1035, .F. ) ;
#1086 = AXIS2_PLACEMENT_3D ( 'NONE', #938, #1267, #730 ) ;
#1087 = AXIS2_PLACEMENT_3D ( 'NONE', #916, #942, #1150 ) ;
#1088 = CARTESIAN_POINT ( 'NONE',  ( 39.59797974644664720, 33.94112549695426395, 0.000000000000000000 ) ) ;
#1089 = VERTEX_POINT ( 'NONE', #196 ) ;
#1090 = LINE ( 'NONE', #344, #1236 ) ;
#1091 = ORIENTED_EDGE ( 'NONE', *, *, #334, .T. ) ;
#1092 = AXIS2_PLACEMENT_3D ( 'NONE', #119, #551, #4 ) ;
#1093 = CARTESIAN_POINT ( 'NONE',  ( 28.34996828881526554, 34.00682253830699153, 0.000000000000000000 ) ) ;
#1094 = EDGE_CURVE ( 'NONE', #429, #314, #1045, .T. ) ;
#1095 = CIRCLE ( 'NONE', #604, 3.999999999999996447 ) ;
#1096 = DIRECTION ( 'NONE',  ( 0.000000000000000000, 0.000000000000000000, 1.000000000000000000 ) ) ;
#1097 = CARTESIAN_POINT ( 'NONE',  ( -36.76955262170034189, 36.76955262170054795, 0.000000000000000000 ) ) ;
#1098 = ORIENTED_EDGE ( 'NONE', *, *, #1073, .F. ) ;
#1099 = EDGE_CURVE ( 'NONE', #610, #429, #1058, .T. ) ;
#1100 = CARTESIAN_POINT ( 'NONE',  ( -36.76955262170021399, 31.11269837220805101, 0.000000000000000000 ) ) ;
#1101 = CYLINDRICAL_SURFACE ( 'NONE', #1335, 2.000000000000001776 ) ;
#1102 = CARTESIAN_POINT ( 'NONE',  ( -33.94112549695431369, -33.94112549695422132, 5.000000000000000000 ) ) ;
#1103 = LINE ( 'NONE', #52, #335 ) ;
#1104 = ORIENTED_EDGE ( 'NONE', *, *, #553, .T. ) ;
#1105 = VECTOR ( 'NONE', #34, 1000.000000000000000 ) ;
#1106 = VECTOR ( 'NONE', #1311, 1000.000000000000000 ) ;
#1107 = DIRECTION ( 'NONE',  ( 0.000000000000000000, 0.000000000000000000, -1.000000000000000000 ) ) ;
#1108 = AXIS2_PLACEMENT_3D ( 'NONE', #1222, #837, #302 ) ;
#1109 = ORIENTED_EDGE ( 'NONE', *, *, #3, .T. ) ;
#1110 = AXIS2_PLACEMENT_3D ( 'NONE', #18, #126, #7 ) ;
#1111 = FACE_OUTER_BOUND ( 'NONE', #1248, .T. ) ;
#1112 = ORIENTED_EDGE ( 'NONE', *, *, #440, .T. ) ;
#1113 = EDGE_CURVE ( 'NONE', #945, #299, #1182, .T. ) ;
#1114 = EDGE_CURVE ( 'NONE', #877, #282, #101, .T. ) ;
#1115 = DIRECTION ( 'NONE',  ( 1.000000000000000000, 0.000000000000000000, 0.000000000000000000 ) ) ;
#1116 = AXIS2_PLACEMENT_3D ( 'NONE', #170, #725, #301 ) ;
#1117 = DIRECTION ( 'NONE',  ( 0.000000000000000000, 0.000000000000000000, 1.000000000000000000 ) ) ;
#1118 = ORIENTED_EDGE ( 'NONE', *, *, #1010, .F. ) ;
#1119 = DIRECTION ( 'NONE',  ( 0.000000000000000000, 0.000000000000000000, 1.000000000000000000 ) ) ;
#1120 = ORIENTED_EDGE ( 'NONE', *, *, #622, .F. ) ;
#1121 = ORIENTED_EDGE ( 'NONE', *, *, #786, .F. ) ;
#1122 = CARTESIAN_POINT ( 'NONE',  ( 11.00000000000000000, 0.000000000000000000, -7.000000000000000000 ) ) ;
#1123 = ORIENTED_EDGE ( 'NONE', *, *, #1025, .F. ) ;
#1124 = AXIS2_PLACEMENT_3D ( 'NONE', #1282, #198, #826 ) ;
#1125 = ORIENTED_EDGE ( 'NONE', *, *, #1181, .F. ) ;
#1126 = EDGE_CURVE ( 'NONE', #1021, #643, #1064, .T. ) ;
#1127 = CIRCLE ( 'NONE', #953, 13.00000000000000178 ) ;
#1128 = SURFACE_SIDE_STYLE ('',( #292 ) ) ;
#1129 = DIRECTION ( 'NONE',  ( 1.000000000000000000, 0.000000000000000000, 0.000000000000000000 ) ) ;
#1130 = VECTOR ( 'NONE', #84, 1000.000000000000114 ) ;
#1131 = LINE ( 'NONE', #368, #975 ) ;
#1132 = ORIENTED_EDGE ( 'NONE', *, *, #894, .T. ) ;
#1133 = EDGE_CURVE ( 'NONE', #1189, #227, #1155, .T. ) ;
#1134 = CARTESIAN_POINT ( 'NONE',  ( 0.000000000000000000, 0.000000000000000000, 0.000000000000000000 ) ) ;
#1135 = DIRECTION ( 'NONE',  ( 0.000000000000000000, 0.000000000000000000, 1.000000000000000000 ) ) ;
#1136 = ORIENTED_EDGE ( 'NONE', *, *, #692, .T. ) ;
#1137 = DIRECTION ( 'NONE',  ( 1.000000000000000000, 0.000000000000000000, 0.000000000000000000 ) ) ;
#1138 = CARTESIAN_POINT ( 'NONE',  ( 33.94112549695427816, -33.94112549695427816, 5.000000000000000000 ) ) ;
#1139 = CARTESIAN_POINT ( 'NONE',  ( 0.000000000000000000, 0.000000000000000000, 0.000000000000000000 ) ) ;
#1140 = ORIENTED_EDGE ( 'NONE', *, *, #372, .T. ) ;
#1141 = CARTESIAN_POINT ( 'NONE',  ( 35.94112549695427816, -33.94112549695427816, 0.000000000000000000 ) ) ;
#1142 = CIRCLE ( 'NONE', #941, 13.00000000000000178 ) ;
#1143 = ADVANCED_FACE ( 'NONE', ( #518 ), #532, .T. ) ;
#1144 = CARTESIAN_POINT ( 'NONE',  ( 0.000000000000000000, 0.000000000000000000, 0.000000000000000000 ) ) ;
#1145 = CARTESIAN_POINT ( 'NONE',  ( 33.94112549695443448, 33.94112549695410053, 0.000000000000000000 ) ) ;
#1146 = DIRECTION ( 'NONE',  ( -0.7071067811865477948, 0.7071067811865473507, -0.000000000000000000 ) ) ;
#1147 = ORIENTED_EDGE ( 'NONE', *, *, #352, .T. ) ;
#1148 = CARTESIAN_POINT ( 'NONE',  ( 28.86542085873509578, 34.52227510822688572, 5.000000000000000000 ) ) ;
#1149 = ORIENTED_EDGE ( 'NONE', *, *, #886, .T. ) ;
#1150 = DIRECTION ( 'NONE',  ( 0.7071067811865474617, -0.7071067811865474617, 0.000000000000000000 ) ) ;
#1151 = DIRECTION ( 'NONE',  ( 1.000000000000000000, 0.000000000000000000, 0.000000000000000000 ) ) ;
#1152 = VECTOR ( 'NONE', #738, 1000.000000000000000 ) ;
#1153 = CARTESIAN_POINT ( 'NONE',  ( 34.00682253830728996, -28.34996828881491027, 0.000000000000000000 ) ) ;
#1154 = ORIENTED_EDGE ( 'NONE', *, *, #28, .F. ) ;
#1155 = CIRCLE ( 'NONE', #731, 3.999999999999996447 ) ;
#1156 = DIRECTION ( 'NONE',  ( 1.000000000000000000, 0.000000000000000000, 0.000000000000000000 ) ) ;
#1157 = EDGE_CURVE ( 'NONE', #1008, #172, #449, .T. ) ;
#1158 = ORIENTED_EDGE ( 'NONE', *, *, #61, .T. ) ;
#1159 = PRODUCT_DEFINITION_SHAPE ( 'NONE', 'NONE',  #1283 ) ;
#1160 = DIRECTION ( 'NONE',  ( 1.000000000000000000, 0.000000000000000000, 0.000000000000000000 ) ) ;
#1161 = DIRECTION ( 'NONE',  ( 1.000000000000000000, 0.000000000000000000, 0.000000000000000000 ) ) ;
#1162 = LINE ( 'NONE', #621, #1167 ) ;
#1163 = CARTESIAN_POINT ( 'NONE',  ( 36.76955262170046268, -31.11269837220809009, 0.000000000000000000 ) ) ;
#1164 = ORIENTED_EDGE ( 'NONE', *, *, #139, .F. ) ;
#1165 = DIRECTION ( 'NONE',  ( 0.000000000000000000, 0.000000000000000000, 1.000000000000000000 ) ) ;
#1166 = DIRECTION ( 'NONE',  ( 1.000000000000000000, 0.000000000000000000, 0.000000000000000000 ) ) ;
#1167 = VECTOR ( 'NONE', #62, 1000.000000000000000 ) ;
#1168 = ORIENTED_EDGE ( 'NONE', *, *, #289, .T. ) ;
#1169 = DIRECTION ( 'NONE',  ( 0.000000000000000000, 0.000000000000000000, 1.000000000000000000 ) ) ;
#1170 = ORIENTED_EDGE ( 'NONE', *, *, #482, .F. ) ;
#1171 = DIRECTION ( 'NONE',  ( -0.7071067811865477948, 0.7071067811865473507, -0.000000000000000000 ) ) ;
#1172 = CARTESIAN_POINT ( 'NONE',  ( 39.59797974644664720, 33.94112549695426395, 0.000000000000000000 ) ) ;
#1173 = VERTEX_POINT ( 'NONE', #313 ) ;
#1174 = ADVANCED_FACE ( 'NONE', ( #527 ), #735, .F. ) ;
#1175 = LINE ( 'NONE', #856, #819 ) ;
#1176 = AXIS2_PLACEMENT_3D ( 'NONE', #331, #208, #626 ) ;
#1177 = EDGE_LOOP ( 'NONE', ( #1320, #1315 ) ) ;
#1178 = AXIS2_PLACEMENT_3D ( 'NONE', #913, #788, #1228 ) ;
#1179 = CARTESIAN_POINT ( 'NONE',  ( -34.00682253830707680, 28.34996828881513764, 0.000000000000000000 ) ) ;
#1180 = DIRECTION ( 'NONE',  ( -0.000000000000000000, -0.000000000000000000, -1.000000000000000000 ) ) ;
#1181 = EDGE_CURVE ( 'NONE', #357, #1031, #1, .T. ) ;
#1182 = CIRCLE ( 'NONE', #41, 3.999999999999996447 ) ;
#1183 = ADVANCED_FACE ( 'NONE', ( #78 ), #744, .T. ) ;
#1184 = VECTOR ( 'NONE', #967, 1000.000000000000000 ) ;
#1185 = ORIENTED_EDGE ( 'NONE', *, *, #128, .T. ) ;
#1186 = CARTESIAN_POINT ( 'NONE',  ( -35.94112549695415026, 33.94112549695435632, 0.000000000000000000 ) ) ;
#1187 = CYLINDRICAL_SURFACE ( 'NONE', #689, 13.00000000000000178 ) ;
#1188 = VECTOR ( 'NONE', #710, 1000.000000000000000 ) ;
#1189 = VERTEX_POINT ( 'NONE', #214 ) ;
#1190 = CARTESIAN_POINT ( 'NONE',  ( 33.94112549695427816, -33.94112549695427816, 0.000000000000000000 ) ) ;
#1191 =( NAMED_UNIT ( * ) PLANE_ANGLE_UNIT ( ) SI_UNIT ( $, .RADIAN. ) );
#1192 = ORIENTED_EDGE ( 'NONE', *, *, #254, .T. ) ;
#1193 = ADVANCED_FACE ( 'NONE', ( #509 ), #88, .F. ) ;
#1194 = ORIENTED_EDGE ( 'NONE', *, *, #162, .T. ) ;
#1195 = DIRECTION ( 'NONE',  ( -0.000000000000000000, -0.000000000000000000, 1.000000000000000000 ) ) ;
#1196 = ORIENTED_EDGE ( 'NONE', *, *, #284, .T. ) ;
#1197 = CIRCLE ( 'NONE', #1086, 3.999999999999996447 ) ;
#1198 = EDGE_CURVE ( 'NONE', #839, #1021, #577, .T. ) ;
#1199 = CIRCLE ( 'NONE', #1266, 3.999999999999996447 ) ;
#1200 = DIRECTION ( 'NONE',  ( -0.000000000000000000, -0.000000000000000000, -1.000000000000000000 ) ) ;
#1201 = CARTESIAN_POINT ( 'NONE',  ( -33.94112549695415026, 33.94112549695435632, 0.000000000000000000 ) ) ;
#1202 = EDGE_CURVE ( 'NONE', #723, #1268, #1351, .T. ) ;
#1203 = DIRECTION ( 'NONE',  ( 0.7071067811865185959, 0.7071067811865765496, -0.000000000000000000 ) ) ;
#1204 = DIRECTION ( 'NONE',  ( 1.000000000000000000, 0.000000000000000000, 0.000000000000000000 ) ) ;
#1205 = ORIENTED_EDGE ( 'NONE', *, *, #562, .T. ) ;
#1206 = FACE_BOUND ( 'NONE', #817, .T. ) ;
#1207 = CARTESIAN_POINT ( 'NONE',  ( -28.86542085873455576, 34.52227510822733336, 5.000000000000000000 ) ) ;
#1208 = AXIS2_PLACEMENT_3D ( 'NONE', #1309, #43, #472 ) ;
#1209 = DIRECTION ( 'NONE',  ( -0.000000000000000000, -0.000000000000000000, -1.000000000000000000 ) ) ;
#1210 = CARTESIAN_POINT ( 'NONE',  ( 39.59797974644664720, 33.94112549695426395, 5.000000000000000000 ) ) ;
#1211 = ORIENTED_EDGE ( 'NONE', *, *, #1099, .F. ) ;
#1212 = DIRECTION ( 'NONE',  ( 1.000000000000000000, 0.000000000000000000, 0.000000000000000000 ) ) ;
#1213 = EDGE_CURVE ( 'NONE', #880, #314, #1175, .T. ) ;
#1214 = DIRECTION ( 'NONE',  ( 0.000000000000000000, 0.000000000000000000, 1.000000000000000000 ) ) ;
#1215 = CARTESIAN_POINT ( 'NONE',  ( 34.52227510822742573, 28.86542085873444563, 0.000000000000000000 ) ) ;
#1216 = ORIENTED_EDGE ( 'NONE', *, *, #1217, .T. ) ;
#1217 = EDGE_CURVE ( 'NONE', #272, #2, #1070, .T. ) ;
#1218 = VECTOR ( 'NONE', #1005, 1000.000000000000000 ) ;
#1219 = CIRCLE ( 'NONE', #281, 4.000000000000000000 ) ;
#1220 = CYLINDRICAL_SURFACE ( 'NONE', #236, 45.00000000000000711 ) ;
#1221 = EDGE_LOOP ( 'NONE', ( #834, #79 ) ) ;
#1222 = CARTESIAN_POINT ( 'NONE',  ( -33.94112549695415026, 33.94112549695435632, 0.000000000000000000 ) ) ;
#1223 = ORIENTED_EDGE ( 'NONE', *, *, #1202, .T. ) ;
#1224 = CARTESIAN_POINT ( 'NONE',  ( -36.76955262170034189, 36.76955262170054795, 5.000000000000000000 ) ) ;
#1225 = ORIENTED_EDGE ( 'NONE', *, *, #439, .F. ) ;
#1226 = CARTESIAN_POINT ( 'NONE',  ( 33.94112549695443448, 33.94112549695410053, 0.000000000000000000 ) ) ;
#1227 = AXIS2_PLACEMENT_3D ( 'NONE', #1226, #51, #144 ) ;
#1228 = DIRECTION ( 'NONE',  ( -1.000000000000000000, 0.000000000000000000, 0.000000000000000000 ) ) ;
#1229 = EDGE_LOOP ( 'NONE', ( #1301, #1185, #1211, #60 ) ) ;
#1230 = ORIENTED_EDGE ( 'NONE', *, *, #948, .F. ) ;
#1231 = DIRECTION ( 'NONE',  ( 0.000000000000000000, 0.000000000000000000, 1.000000000000000000 ) ) ;
#1232 = CARTESIAN_POINT ( 'NONE',  ( 37.94112549695427816, -33.94112549695427816, 5.000000000000000000 ) ) ;
#1233 = EDGE_CURVE ( 'NONE', #1307, #327, #470, .T. ) ;
#1234 = FACE_OUTER_BOUND ( 'NONE', #142, .T. ) ;
#1235 = ORIENTED_EDGE ( 'NONE', *, *, #986, .F. ) ;
#1236 = VECTOR ( 'NONE', #443, 1000.000000000000000 ) ;
#1237 = AXIS2_PLACEMENT_3D ( 'NONE', #264, #166, #701 ) ;
#1238 = DIRECTION ( 'NONE',  ( 0.000000000000000000, 0.000000000000000000, 1.000000000000000000 ) ) ;
#1239 = MECHANICAL_DESIGN_GEOMETRIC_PRESENTATION_REPRESENTATION (  '', ( #515 ), #618 ) ;
#1240 = EDGE_CURVE ( 'NONE', #54, #574, #934, .T. ) ;
#1241 = CARTESIAN_POINT ( 'NONE',  ( -33.94112549695415026, 33.94112549695435632, 5.000000000000000000 ) ) ;
#1242 = ORIENTED_EDGE ( 'NONE', *, *, #1157, .F. ) ;
#1243 = DIRECTION ( 'NONE',  ( -0.000000000000000000, -0.000000000000000000, 1.000000000000000000 ) ) ;
#1244 = EDGE_LOOP ( 'NONE', ( #812, #375, #485, #603 ) ) ;
#1245 = SURFACE_STYLE_USAGE ( .BOTH. , #1128 ) ;
#1246 = DIRECTION ( 'NONE',  ( -1.000000000000000000, 0.000000000000000000, 0.000000000000000000 ) ) ;
#1247 = CARTESIAN_POINT ( 'NONE',  ( 0.000000000000000000, 0.000000000000000000, 0.000000000000000000 ) ) ;
#1248 = EDGE_LOOP ( 'NONE', ( #727, #670, #742, #568 ) ) ;
#1249 = CARTESIAN_POINT ( 'NONE',  ( 35.94112549695427816, -33.94112549695427816, 0.000000000000000000 ) ) ;
#1250 = CIRCLE ( 'NONE', #157, 2.000000000000001776 ) ;
#1251 = ORIENTED_EDGE ( 'NONE', *, *, #289, .F. ) ;
#1252 = FACE_BOUND ( 'NONE', #96, .T. ) ;
#1253 = CARTESIAN_POINT ( 'NONE',  ( -31.11269837220807233, 36.76955262170066163, 0.000000000000000000 ) ) ;
#1254 = EDGE_CURVE ( 'NONE', #1173, #643, #1001, .T. ) ;
#1255 = DIRECTION ( 'NONE',  ( 0.000000000000000000, 0.000000000000000000, 1.000000000000000000 ) ) ;
#1256 = ORIENTED_EDGE ( 'NONE', *, *, #1056, .T. ) ;
#1257 = CYLINDRICAL_SURFACE ( 'NONE', #1295, 4.000000000000000000 ) ;
#1258 = FACE_OUTER_BOUND ( 'NONE', #388, .T. ) ;
#1259 = ADVANCED_FACE ( 'NONE', ( #1357 ), #176, .T. ) ;
#1260 = ORIENTED_EDGE ( 'NONE', *, *, #739, .F. ) ;
#1261 = LINE ( 'NONE', #733, #178 ) ;
#1262 = CARTESIAN_POINT ( 'NONE',  ( -31.94112549695431014, -33.94112549695422132, 5.000000000000000000 ) ) ;
#1263 = VECTOR ( 'NONE', #981, 1000.000000000000000 ) ;
#1264 = CARTESIAN_POINT ( 'NONE',  ( 0.000000000000000000, 0.000000000000000000, 0.000000000000000000 ) ) ;
#1265 = ORIENTED_EDGE ( 'NONE', *, *, #780, .T. ) ;
#1266 = AXIS2_PLACEMENT_3D ( 'NONE', #212, #557, #977 ) ;
#1267 = DIRECTION ( 'NONE',  ( 0.000000000000000000, 0.000000000000000000, 1.000000000000000000 ) ) ;
#1268 = VERTEX_POINT ( 'NONE', #300 ) ;
#1269 = DIRECTION ( 'NONE',  ( 1.000000000000000000, 0.000000000000000000, 0.000000000000000000 ) ) ;
#1270 = CARTESIAN_POINT ( 'NONE',  ( -33.94112549695426395, 39.59797974644662588, 5.000000000000000000 ) ) ;
#1271 = ORIENTED_EDGE ( 'NONE', *, *, #695, .T. ) ;
#1272 = DIRECTION ( 'NONE',  ( 0.000000000000000000, 0.000000000000000000, 1.000000000000000000 ) ) ;
#1273 = FACE_BOUND ( 'NONE', #599, .T. ) ;
#1274 = CIRCLE ( 'NONE', #805, 2.000000000000001776 ) ;
#1275 = ADVANCED_FACE ( 'NONE', ( #709, #1342, #1349, #391, #1252, #1047 ), #408, .F. ) ;
#1276 = VERTEX_POINT ( 'NONE', #524 ) ;
#1277 = DIRECTION ( 'NONE',  ( 1.000000000000000000, 0.000000000000000000, 0.000000000000000000 ) ) ;
#1278 = DIRECTION ( 'NONE',  ( 0.000000000000000000, 0.000000000000000000, 1.000000000000000000 ) ) ;
#1279 = ADVANCED_FACE ( 'NONE', ( #507 ), #697, .T. ) ;
#1280 = ORIENTED_EDGE ( 'NONE', *, *, #459, .F. ) ;
#1281 = DIRECTION ( 'NONE',  ( 1.000000000000000000, 0.000000000000000000, 0.000000000000000000 ) ) ;
#1282 = CARTESIAN_POINT ( 'NONE',  ( 33.94112549695427816, -33.94112549695427816, 5.000000000000000000 ) ) ;
#1283 = PRODUCT_DEFINITION ( 'UNKNOWN', '', #646, #1291 ) ;
#1284 = AXIS2_PLACEMENT_3D ( 'NONE', #983, #42, #371 ) ;
#1285 = VERTEX_POINT ( 'NONE', #595 ) ;
#1286 = VECTOR ( 'NONE', #155, 1000.000000000000000 ) ;
#1287 = FACE_OUTER_BOUND ( 'NONE', #782, .T. ) ;
#1288 = CARTESIAN_POINT ( 'NONE',  ( 33.94112549695427816, -33.94112549695427816, 0.000000000000000000 ) ) ;
#1289 =( GEOMETRIC_REPRESENTATION_CONTEXT ( 3 ) GLOBAL_UNCERTAINTY_ASSIGNED_CONTEXT ( ( #447 ) ) GLOBAL_UNIT_ASSIGNED_CONTEXT ( ( #653, #1191, #320 ) ) REPRESENTATION_CONTEXT ( 'NONE', 'WORKASPACE' ) );
#1290 = DIRECTION ( 'NONE',  ( 0.000000000000000000, 0.000000000000000000, 1.000000000000000000 ) ) ;
#1291 = PRODUCT_DEFINITION_CONTEXT ( 'detailed design', #704, 'design' ) ;
#1292 = ORIENTED_EDGE ( 'NONE', *, *, #1233, .F. ) ;
#1293 = DIRECTION ( 'NONE',  ( 0.7071067811865766606, -0.7071067811865182628, -0.000000000000000000 ) ) ;
#1294 = MANIFOLD_SOLID_BREP ( 'Boss-Extrude3', #501 ) ;
#1295 = AXIS2_PLACEMENT_3D ( 'NONE', #946, #520, #1328 ) ;
#1296 = FACE_OUTER_BOUND ( 'NONE', #714, .T. ) ;
#1297 = CIRCLE ( 'NONE', #784, 4.000000000000000000 ) ;
#1298 = ORIENTED_EDGE ( 'NONE', *, *, #211, .T. ) ;
#1299 = ADVANCED_FACE ( 'NONE', ( #200 ), #400, .F. ) ;
#1300 = CARTESIAN_POINT ( 'NONE',  ( 34.52227510822715573, -28.86542085873477248, 0.000000000000000000 ) ) ;
#1301 = ORIENTED_EDGE ( 'NONE', *, *, #1030, .T. ) ;
#1302 = EDGE_CURVE ( 'NONE', #897, #686, #924, .T. ) ;
#1303 = DIRECTION ( 'NONE',  ( -0.000000000000000000, -0.000000000000000000, 1.000000000000000000 ) ) ;
#1304 = PLANE ( 'NONE',  #345 ) ;
#1305 = CARTESIAN_POINT ( 'NONE',  ( 31.94112549695427816, -33.94112549695427816, 0.000000000000000000 ) ) ;
#1306 = VECTOR ( 'NONE', #90, 1000.000000000000000 ) ;
#1307 = VERTEX_POINT ( 'NONE', #100 ) ;
#1308 = DIRECTION ( 'NONE',  ( 0.000000000000000000, 0.000000000000000000, 1.000000000000000000 ) ) ;
#1309 = CARTESIAN_POINT ( 'NONE',  ( 33.94112549695443448, 33.94112549695410053, 0.000000000000000000 ) ) ;
#1310 = DIRECTION ( 'NONE',  ( 0.000000000000000000, 0.000000000000000000, 1.000000000000000000 ) ) ;
#1311 = DIRECTION ( 'NONE',  ( -0.000000000000000000, -0.000000000000000000, 1.000000000000000000 ) ) ;
#1312 = ORIENTED_EDGE ( 'NONE', *, *, #718, .F. ) ;
#1313 = ADVANCED_FACE ( 'NONE', ( #1057 ), #828, .F. ) ;
#1314 = DIRECTION ( 'NONE',  ( 0.000000000000000000, 0.000000000000000000, 1.000000000000000000 ) ) ;
#1315 = ORIENTED_EDGE ( 'NONE', *, *, #86, .F. ) ;
#1316 = VECTOR ( 'NONE', #174, 1000.000000000000000 ) ;
#1317 = ORIENTED_EDGE ( 'NONE', *, *, #1010, .T. ) ;
#1318 = EDGE_CURVE ( 'NONE', #350, #1371, #844, .T. ) ;
#1319 = DIRECTION ( 'NONE',  ( -0.000000000000000000, -0.000000000000000000, 1.000000000000000000 ) ) ;
#1320 = ORIENTED_EDGE ( 'NONE', *, *, #321, .F. ) ;
#1321 = CARTESIAN_POINT ( 'NONE',  ( 37.94112549695442738, 33.94112549695410053, 0.000000000000000000 ) ) ;
#1322 = CARTESIAN_POINT ( 'NONE',  ( 0.000000000000000000, 0.000000000000000000, 0.000000000000000000 ) ) ;
#1323 = EDGE_CURVE ( 'NONE', #282, #945, #1199, .T. ) ;
#1324 = CARTESIAN_POINT ( 'NONE',  ( 33.94112549695427816, -39.59797974644666141, 0.000000000000000000 ) ) ;
#1325 = CARTESIAN_POINT ( 'NONE',  ( 33.94112549695443448, 33.94112549695410053, 0.000000000000000000 ) ) ;
#1326 = ORIENTED_EDGE ( 'NONE', *, *, #804, .T. ) ;
#1327 = CARTESIAN_POINT ( 'NONE',  ( -33.94112549695431369, -33.94112549695422132, 5.000000000000000000 ) ) ;
#1328 = DIRECTION ( 'NONE',  ( 1.000000000000000000, 0.000000000000000000, 0.000000000000000000 ) ) ;
#1329 = AXIS2_PLACEMENT_3D ( 'NONE', #500, #76, #628 ) ;
#1330 = DIRECTION ( 'NONE',  ( -0.000000000000000000, -0.000000000000000000, 1.000000000000000000 ) ) ;
#1331 = CYLINDRICAL_SURFACE ( 'NONE', #1178, 45.00000000000000711 ) ;
#1332 = VERTEX_POINT ( 'NONE', #346 ) ;
#1333 = ORIENTED_EDGE ( 'NONE', *, *, #267, .F. ) ;
#1334 = LINE ( 'NONE', #386, #715 ) ;
#1335 = AXIS2_PLACEMENT_3D ( 'NONE', #1201, #993, #984 ) ;
#1336 = DIRECTION ( 'NONE',  ( -0.000000000000000000, -0.000000000000000000, 1.000000000000000000 ) ) ;
#1337 = ORIENTED_EDGE ( 'NONE', *, *, #1361, .F. ) ;
#1338 = CIRCLE ( 'NONE', #915, 3.999999999999996447 ) ;
#1339 = ADVANCED_FACE ( 'NONE', ( #333 ), #866, .F. ) ;
#1340 = CARTESIAN_POINT ( 'NONE',  ( -36.76955262170050531, -36.76955262170041294, 5.000000000000000000 ) ) ;
#1341 = ADVANCED_FACE ( 'NONE', ( #1296 ), #116, .T. ) ;
#1342 = FACE_BOUND ( 'NONE', #303, .T. ) ;
#1343 = CARTESIAN_POINT ( 'NONE',  ( -36.76955262170021399, 31.11269837220805101, 0.000000000000000000 ) ) ;
#1344 = LINE ( 'NONE', #1210, #702 ) ;
#1345 = ORIENTED_EDGE ( 'NONE', *, *, #125, .T. ) ;
#1346 = LINE ( 'NONE', #634, #1306 ) ;
#1347 = AXIS2_PLACEMENT_3D ( 'NONE', #1134, #600, #1028 ) ;
#1348 = CIRCLE ( 'NONE', #513, 2.000000000000001776 ) ;
#1349 = FACE_BOUND ( 'NONE', #1355, .T. ) ;
#1350 = DIRECTION ( 'NONE',  ( 1.000000000000000000, 0.000000000000000000, 0.000000000000000000 ) ) ;
#1351 = CIRCLE ( 'NONE', #283, 2.000000000000001776 ) ;
#1352 = DIRECTION ( 'NONE',  ( 0.000000000000000000, 0.000000000000000000, 1.000000000000000000 ) ) ;
#1353 = ORIENTED_EDGE ( 'NONE', *, *, #1323, .F. ) ;
#1354 = DIRECTION ( 'NONE',  ( -0.000000000000000000, -0.000000000000000000, 1.000000000000000000 ) ) ;
#1355 = EDGE_LOOP ( 'NONE', ( #1136, #759 ) ) ;
#1356 = EDGE_CURVE ( 'NONE', #897, #576, #1372, .T. ) ;
#1357 = FACE_OUTER_BOUND ( 'NONE', #461, .T. ) ;
#1358 = DIRECTION ( 'NONE',  ( 0.000000000000000000, 0.000000000000000000, -1.000000000000000000 ) ) ;
#1359 = DIRECTION ( 'NONE',  ( 1.000000000000000000, 0.000000000000000000, 0.000000000000000000 ) ) ;
#1360 = ORIENTED_EDGE ( 'NONE', *, *, #1198, .F. ) ;
#1361 = EDGE_CURVE ( 'NONE', #426, #64, #451, .T. ) ;
#1362 = FACE_OUTER_BOUND ( 'NONE', #253, .T. ) ;
#1363 = CARTESIAN_POINT ( 'NONE',  ( -34.52227510822724099, -28.86542085873466590, 5.000000000000000000 ) ) ;
#1364 = CIRCLE ( 'NONE', #1079, 4.000000000000000000 ) ;
#1365 = EDGE_LOOP ( 'NONE', ( #412, #15, #857, #827 ) ) ;
#1366 = CARTESIAN_POINT ( 'NONE',  ( -34.52227510822697099, 28.86542085873498920, 0.000000000000000000 ) ) ;
#1367 = DIRECTION ( 'NONE',  ( 1.000000000000000000, 0.000000000000000000, 0.000000000000000000 ) ) ;
#1368 = ORIENTED_EDGE ( 'NONE', *, *, #1094, .F. ) ;
#1369 = FACE_OUTER_BOUND ( 'NONE', #648, .T. ) ;
#1370 = ADVANCED_BREP_SHAPE_REPRESENTATION ( 'Tapa_Turbina', ( #1294, #1110 ), #1289 ) ;
#1371 = VERTEX_POINT ( 'NONE', #1077 ) ;
#1372 = LINE ( 'NONE', #539, #842 ) ;
#1373 = ORIENTED_EDGE ( 'NONE', *, *, #543, .F. ) ;
#1374 = AXIS2_PLACEMENT_3D ( 'NONE', #567, #1308, #1212 ) ;
ENDSEC;
END-ISO-10303-21;
