ISO-10303-21;
HEADER;
FILE_DESCRIPTION (( 'STEP AP214' ),
    '1' );
FILE_NAME ('TR-012.STEP',
    '2024-05-15T02:06:51',
    ( '' ),
    ( '' ),
    'SwSTEP 2.0',
    'SolidWorks 2018',
    '' );
FILE_SCHEMA (( 'AUTOMOTIVE_DESIGN' ));
ENDSEC;

DATA;
#1 = ORIENTED_EDGE ( 'NONE', *, *, #304, .T. ) ;
#2 = CARTESIAN_POINT ( 'NONE',  ( 2.078460969082656540, -3.599999999999998312, -0.7500000000000002220 ) ) ;
#3 = ORIENTED_EDGE ( 'NONE', *, *, #477, .T. ) ;
#4 = DIRECTION ( 'NONE',  ( 0.000000000000000000, 0.000000000000000000, 1.000000000000000000 ) ) ;
#5 = AXIS2_PLACEMENT_3D ( 'NONE', #324, #423, #77 ) ;
#6 = ORIENTED_EDGE ( 'NONE', *, *, #64, .T. ) ;
#7 = LINE ( 'NONE', #249, #269 ) ;
#8 = CARTESIAN_POINT ( 'NONE',  ( 0.000000000000000000, 0.000000000000000000, -0.7500000000000002220 ) ) ;
#9 =( LENGTH_UNIT ( ) NAMED_UNIT ( * ) SI_UNIT ( .MILLI., .METRE. ) );
#10 = ADVANCED_FACE ( 'NONE', ( #121 ), #279, .F. ) ;
#11 = ORIENTED_EDGE ( 'NONE', *, *, #402, .F. ) ;
#12 = AXIS2_PLACEMENT_3D ( 'NONE', #282, #372, #449 ) ;
#13 = VECTOR ( 'NONE', #498, 1000.000000000000000 ) ;
#14 = ORIENTED_EDGE ( 'NONE', *, *, #444, .T. ) ;
#15 = CARTESIAN_POINT ( 'NONE',  ( -2.078460969082652099, 3.600000000000000977, 3.250000000000000000 ) ) ;
#16 = ADVANCED_FACE ( 'NONE', ( #98 ), #190, .F. ) ;
#17 =( GEOMETRIC_REPRESENTATION_CONTEXT ( 3 ) GLOBAL_UNCERTAINTY_ASSIGNED_CONTEXT ( ( #84 ) ) GLOBAL_UNIT_ASSIGNED_CONTEXT ( ( #237, #281, #156 ) ) REPRESENTATION_CONTEXT ( 'NONE', 'WORKASPACE' ) );
#18 = VERTEX_POINT ( 'NONE', #406 ) ;
#19 = DIRECTION ( 'NONE',  ( -0.000000000000000000, -0.000000000000000000, 1.000000000000000000 ) ) ;
#20 = LINE ( 'NONE', #300, #528 ) ;
#21 = ORIENTED_EDGE ( 'NONE', *, *, #61, .F. ) ;
#22 = FACE_OUTER_BOUND ( 'NONE', #443, .T. ) ;
#23 = ADVANCED_FACE ( 'NONE', ( #59 ), #181, .F. ) ;
#24 = DIRECTION ( 'NONE',  ( 0.000000000000000000, 0.7071067811865435759, -0.7071067811865515695 ) ) ;
#25 = AXIS2_PLACEMENT_3D ( 'NONE', #463, #38, #209 ) ;
#26 = VERTEX_POINT ( 'NONE', #15 ) ;
#27 = CARTESIAN_POINT ( 'NONE',  ( 5.000000000000000888, 7.899999999999997691, -0.7500000000000019984 ) ) ;
#28 = PRODUCT_DEFINITION_SHAPE ( 'NONE', 'NONE',  #283 ) ;
#29 = PRESENTATION_LAYER_ASSIGNMENT (  '', '', ( #521 ) ) ;
#30 = ORIENTED_EDGE ( 'NONE', *, *, #82, .T. ) ;
#31 = PLANE ( 'NONE',  #420 ) ;
#32 = EDGE_CURVE ( 'NONE', #336, #46, #122, .T. ) ;
#33 = CARTESIAN_POINT ( 'NONE',  ( -2.250000000000000000, 2.755455298081544285E-16, -3.250000000000000000 ) ) ;
#34 = ORIENTED_EDGE ( 'NONE', *, *, #285, .T. ) ;
#35 = DIRECTION ( 'NONE',  ( 1.000000000000000000, 1.734723475976807094E-16, -0.000000000000000000 ) ) ;
#36 = EDGE_LOOP ( 'NONE', ( #228, #315 ) ) ;
#37 = VECTOR ( 'NONE', #197, 1000.000000000000000 ) ;
#38 = DIRECTION ( 'NONE',  ( 0.8660254037844385966, 0.5000000000000003331, 0.000000000000000000 ) ) ;
#39 = VERTEX_POINT ( 'NONE', #408 ) ;
#40 = DIRECTION ( 'NONE',  ( -0.000000000000000000, -0.000000000000000000, -1.000000000000000000 ) ) ;
#41 = FACE_OUTER_BOUND ( 'NONE', #378, .T. ) ;
#42 = FACE_BOUND ( 'NONE', #70, .T. ) ;
#43 = CARTESIAN_POINT ( 'NONE',  ( -2.078460969082652099, 3.600000000000000977, -0.7500000000000002220 ) ) ;
#44 = CARTESIAN_POINT ( 'NONE',  ( -2.250000000000000000, 2.755455298081544285E-16, -3.250000000000000000 ) ) ;
#45 = VECTOR ( 'NONE', #318, 1000.000000000000114 ) ;
#46 = VERTEX_POINT ( 'NONE', #522 ) ;
#47 = DIRECTION ( 'NONE',  ( 0.000000000000000000, -0.000000000000000000, 1.000000000000000000 ) ) ;
#48 = DIRECTION ( 'NONE',  ( -0.000000000000000000, -0.000000000000000000, 1.000000000000000000 ) ) ;
#49 = ORIENTED_EDGE ( 'NONE', *, *, #441, .F. ) ;
#50 = AXIS2_PLACEMENT_3D ( 'NONE', #335, #160, #544 ) ;
#51 = AXIS2_PLACEMENT_3D ( 'NONE', #346, #4, #220 ) ;
#52 = LINE ( 'NONE', #267, #502 ) ;
#53 = VECTOR ( 'NONE', #35, 1000.000000000000000 ) ;
#54 =( LENGTH_UNIT ( ) NAMED_UNIT ( * ) SI_UNIT ( .MILLI., .METRE. ) );
#55 = ORIENTED_EDGE ( 'NONE', *, *, #484, .F. ) ;
#56 = PLANE ( 'NONE',  #257 ) ;
#57 = ORIENTED_EDGE ( 'NONE', *, *, #535, .F. ) ;
#58 = SURFACE_SIDE_STYLE ('',( #153 ) ) ;
#59 = FACE_OUTER_BOUND ( 'NONE', #223, .T. ) ;
#60 = EDGE_LOOP ( 'NONE', ( #391, #262, #75, #34 ) ) ;
#61 = EDGE_CURVE ( 'NONE', #26, #336, #467, .T. ) ;
#62 = VERTEX_POINT ( 'NONE', #526 ) ;
#63 = LINE ( 'NONE', #314, #37 ) ;
#64 = EDGE_CURVE ( 'NONE', #492, #39, #63, .T. ) ;
#65 = ORIENTED_EDGE ( 'NONE', *, *, #177, .T. ) ;
#66 = PLANE ( 'NONE',  #251 ) ;
#67 = PLANE ( 'NONE',  #12 ) ;
#68 = LINE ( 'NONE', #464, #301 ) ;
#69 = FILL_AREA_STYLE ('',( #414 ) ) ;
#70 = EDGE_LOOP ( 'NONE', ( #319, #518, #147, #21, #206, #546 ) ) ;
#71 = DIRECTION ( 'NONE',  ( -1.000000000000000000, 0.000000000000000000, 0.000000000000000000 ) ) ;
#72 = CARTESIAN_POINT ( 'NONE',  ( -2.078460969082651655, -3.599999999999998312, -0.7500000000000002220 ) ) ;
#73 = VECTOR ( 'NONE', #99, 1000.000000000000000 ) ;
#74 = AXIS2_PLACEMENT_3D ( 'NONE', #166, #284, #377 ) ;
#75 = ORIENTED_EDGE ( 'NONE', *, *, #436, .T. ) ;
#76 = VECTOR ( 'NONE', #364, 1000.000000000000000 ) ;
#77 = DIRECTION ( 'NONE',  ( 0.000000000000000000, -0.000000000000000000, -1.000000000000000000 ) ) ;
#78 = ORIENTED_EDGE ( 'NONE', *, *, #140, .T. ) ;
#79 = CARTESIAN_POINT ( 'NONE',  ( 5.000000000000000888, 7.899999999999997691, -3.250000000000000000 ) ) ;
#80 = CARTESIAN_POINT ( 'NONE',  ( 2.078460969082656540, -3.599999999999998312, 3.250000000000000000 ) ) ;
#81 = LINE ( 'NONE', #461, #373 ) ;
#82 = EDGE_CURVE ( 'NONE', #62, #18, #193, .T. ) ;
#83 = CARTESIAN_POINT ( 'NONE',  ( 5.000000000000000888, 3.900000000000038991, 3.250000000000001332 ) ) ;
#84 = UNCERTAINTY_MEASURE_WITH_UNIT (LENGTH_MEASURE( 1.000000000000000082E-05 ), #237, 'distance_accuracy_value', 'NONE');
#85 = LINE ( 'NONE', #417, #255 ) ;
#86 = DIRECTION ( 'NONE',  ( 0.000000000000000000, 0.7071067811865436870, 0.7071067811865513475 ) ) ;
#87 = VERTEX_POINT ( 'NONE', #326 ) ;
#88 = DIRECTION ( 'NONE',  ( 0.000000000000000000, 1.000000000000000000, 0.000000000000000000 ) ) ;
#89 = DIRECTION ( 'NONE',  ( 0.000000000000000000, -0.000000000000000000, -1.000000000000000000 ) ) ;
#90 = ORIENTED_EDGE ( 'NONE', *, *, #317, .F. ) ;
#91 = AXIS2_PLACEMENT_3D ( 'NONE', #8, #182, #474 ) ;
#92 = DIRECTION ( 'NONE',  ( -0.000000000000000000, -0.000000000000000000, 1.000000000000000000 ) ) ;
#93 = ORIENTED_EDGE ( 'NONE', *, *, #317, .T. ) ;
#94 = VERTEX_POINT ( 'NONE', #225 ) ;
#95 = AXIS2_PLACEMENT_3D ( 'NONE', #358, #19, #523 ) ;
#96 = FILL_AREA_STYLE_COLOUR ( '', #307 ) ;
#97 = SURFACE_STYLE_USAGE ( .BOTH. , #58 ) ;
#98 = FACE_OUTER_BOUND ( 'NONE', #306, .T. ) ;
#99 = DIRECTION ( 'NONE',  ( -0.000000000000000000, -0.000000000000000000, 1.000000000000000000 ) ) ;
#100 = ORIENTED_EDGE ( 'NONE', *, *, #222, .T. ) ;
#101 = LINE ( 'NONE', #339, #106 ) ;
#102 = CARTESIAN_POINT ( 'NONE',  ( 0.000000000000000000, 0.000000000000000000, -3.250000000000000000 ) ) ;
#103 = ADVANCED_FACE ( 'NONE', ( #478, #187 ), #66, .T. ) ;
#104 = VERTEX_POINT ( 'NONE', #200 ) ;
#105 = AXIS2_PLACEMENT_3D ( 'NONE', #386, #298, #389 ) ;
#106 = VECTOR ( 'NONE', #92, 1000.000000000000000 ) ;
#107 = CARTESIAN_POINT ( 'NONE',  ( -2.078460969082652099, 3.600000000000000977, 3.250000000000000000 ) ) ;
#108 = ORIENTED_EDGE ( 'NONE', *, *, #288, .T. ) ;
#109 = CARTESIAN_POINT ( 'NONE',  ( 5.000000000000000888, -7.899999999999997691, -0.7500000000000019984 ) ) ;
#110 = CARTESIAN_POINT ( 'NONE',  ( 5.000000000000000888, -7.900000000000002132, 3.250000000000000000 ) ) ;
#111 = EDGE_LOOP ( 'NONE', ( #78, #419, #235, #14 ) ) ;
#112 = CARTESIAN_POINT ( 'NONE',  ( 4.156921938165306862, -1.698642521578371504E-15, -0.7500000000000002220 ) ) ;
#113 = LINE ( 'NONE', #329, #129 ) ;
#114 = CARTESIAN_POINT ( 'NONE',  ( -4.999999999999999112, -7.899999999999997691, -0.7500000000000019984 ) ) ;
#115 = VERTEX_POINT ( 'NONE', #109 ) ;
#116 = ORIENTED_EDGE ( 'NONE', *, *, #32, .T. ) ;
#117 = DIRECTION ( 'NONE',  ( -1.000000000000000000, 0.000000000000000000, 0.000000000000000000 ) ) ;
#118 = LINE ( 'NONE', #124, #516 ) ;
#119 = FACE_OUTER_BOUND ( 'NONE', #525, .T. ) ;
#120 = AXIS2_PLACEMENT_3D ( 'NONE', #259, #253, #86 ) ;
#121 = FACE_OUTER_BOUND ( 'NONE', #60, .T. ) ;
#122 = LINE ( 'NONE', #142, #45 ) ;
#123 = CARTESIAN_POINT ( 'NONE',  ( 5.000000000000000888, 7.899999999999997691, -0.7500000000000019984 ) ) ;
#124 = CARTESIAN_POINT ( 'NONE',  ( -4.999999999999999112, 7.899999999999997691, 3.250000000000000000 ) ) ;
#125 = EDGE_LOOP ( 'NONE', ( #11, #504, #150, #144 ) ) ;
#126 = CARTESIAN_POINT ( 'NONE',  ( -4.156921938165305086, 4.244247045450127316E-16, -0.7500000000000002220 ) ) ;
#127 = EDGE_CURVE ( 'NONE', #271, #26, #295, .T. ) ;
#128 = CARTESIAN_POINT ( 'NONE',  ( -4.999999999999999112, -7.900000000000003908, -3.250000000000000000 ) ) ;
#129 = VECTOR ( 'NONE', #117, 1000.000000000000000 ) ;
#130 = DIRECTION ( 'NONE',  ( 0.000000000000000000, 1.000000000000000000, 0.000000000000000000 ) ) ;
#131 = VERTEX_POINT ( 'NONE', #112 ) ;
#132 = DIRECTION ( 'NONE',  ( 1.000000000000000000, 0.000000000000000000, -0.000000000000000000 ) ) ;
#133 = ORIENTED_EDGE ( 'NONE', *, *, #507, .T. ) ;
#134 =( GEOMETRIC_REPRESENTATION_CONTEXT ( 3 ) GLOBAL_UNCERTAINTY_ASSIGNED_CONTEXT ( ( #359 ) ) GLOBAL_UNIT_ASSIGNED_CONTEXT ( ( #9, #344, #512 ) ) REPRESENTATION_CONTEXT ( 'NONE', 'WORKASPACE' ) );
#135 = LINE ( 'NONE', #418, #293 ) ;
#136 = DIRECTION ( 'NONE',  ( -1.000000000000000000, 0.000000000000000000, 0.000000000000000000 ) ) ;
#137 = ORIENTED_EDGE ( 'NONE', *, *, #140, .F. ) ;
#138 = FACE_OUTER_BOUND ( 'NONE', #331, .T. ) ;
#139 = ORIENTED_EDGE ( 'NONE', *, *, #427, .T. ) ;
#140 = EDGE_CURVE ( 'NONE', #280, #258, #198, .T. ) ;
#141 = ADVANCED_FACE ( 'NONE', ( #263 ), #67, .F. ) ;
#142 = CARTESIAN_POINT ( 'NONE',  ( -4.156921938165305086, 4.244247045450127316E-16, 3.250000000000000000 ) ) ;
#143 = SURFACE_STYLE_FILL_AREA ( #69 ) ;
#144 = ORIENTED_EDGE ( 'NONE', *, *, #367, .F. ) ;
#145 = ORIENTED_EDGE ( 'NONE', *, *, #367, .T. ) ;
#146 = LINE ( 'NONE', #250, #524 ) ;
#147 = ORIENTED_EDGE ( 'NONE', *, *, #32, .F. ) ;
#148 = FACE_OUTER_BOUND ( 'NONE', #111, .T. ) ;
#149 = DIRECTION ( 'NONE',  ( 0.4999999999999999445, 0.8660254037844387076, 0.000000000000000000 ) ) ;
#150 = ORIENTED_EDGE ( 'NONE', *, *, #316, .F. ) ;
#151 = SURFACE_SIDE_STYLE ('',( #143 ) ) ;
#152 = MECHANICAL_DESIGN_GEOMETRIC_PRESENTATION_REPRESENTATION (  '', ( #521 ), #482 ) ;
#153 = SURFACE_STYLE_FILL_AREA ( #309 ) ;
#154 = DIRECTION ( 'NONE',  ( 0.000000000000000000, -0.7071067811865515695, -0.7071067811865435759 ) ) ;
#155 = EDGE_LOOP ( 'NONE', ( #328, #462, #286, #65 ) ) ;
#156 =( NAMED_UNIT ( * ) SI_UNIT ( $, .STERADIAN. ) SOLID_ANGLE_UNIT ( ) );
#157 = DIRECTION ( 'NONE',  ( -0.000000000000000000, -0.000000000000000000, 1.000000000000000000 ) ) ;
#158 = ORIENTED_EDGE ( 'NONE', *, *, #444, .F. ) ;
#159 = EDGE_CURVE ( 'NONE', #94, #104, #361, .T. ) ;
#160 = DIRECTION ( 'NONE',  ( 0.000000000000000000, -0.000000000000000000, 1.000000000000000000 ) ) ;
#161 = VECTOR ( 'NONE', #506, 1000.000000000000000 ) ;
#162 = CARTESIAN_POINT ( 'NONE',  ( -4.999999999999999112, -7.899999999999997691, -0.7500000000000019984 ) ) ;
#163 = EDGE_LOOP ( 'NONE', ( #273, #57 ) ) ;
#164 = LINE ( 'NONE', #383, #531 ) ;
#165 = VERTEX_POINT ( 'NONE', #489 ) ;
#166 = CARTESIAN_POINT ( 'NONE',  ( 0.000000000000000000, 0.000000000000000000, -0.7500000000000002220 ) ) ;
#167 = LINE ( 'NONE', #44, #445 ) ;
#168 = AXIS2_PLACEMENT_3D ( 'NONE', #272, #529, #149 ) ;
#169 = CARTESIAN_POINT ( 'NONE',  ( -4.999999999999999112, 3.900000000000038991, 3.250000000000000000 ) ) ;
#170 = LINE ( 'NONE', #128, #357 ) ;
#171 = DIRECTION ( 'NONE',  ( -0.000000000000000000, -0.000000000000000000, 1.000000000000000000 ) ) ;
#172 = ORIENTED_EDGE ( 'NONE', *, *, #222, .F. ) ;
#173 = CARTESIAN_POINT ( 'NONE',  ( 5.000000000000000888, -7.900000000000002132, 3.250000000000000000 ) ) ;
#174 = CARTESIAN_POINT ( 'NONE',  ( -2.250000000000000000, 2.755455298081544285E-16, -0.7500000000000002220 ) ) ;
#175 = VECTOR ( 'NONE', #88, 1000.000000000000000 ) ;
#176 = DIRECTION ( 'NONE',  ( 0.000000000000000000, -1.000000000000000000, 0.000000000000000000 ) ) ;
#177 = EDGE_CURVE ( 'NONE', #104, #26, #472, .T. ) ;
#178 = CARTESIAN_POINT ( 'NONE',  ( 5.000000000000000888, -3.900000000000038991, 3.250000000000000000 ) ) ;
#179 = LINE ( 'NONE', #207, #53 ) ;
#180 = VERTEX_POINT ( 'NONE', #236 ) ;
#181 = CYLINDRICAL_SURFACE ( 'NONE', #505, 2.250000000000000000 ) ;
#182 = DIRECTION ( 'NONE',  ( 0.000000000000000000, 0.000000000000000000, 1.000000000000000000 ) ) ;
#183 = AXIS2_PLACEMENT_3D ( 'NONE', #384, #176, #89 ) ;
#184 = VERTEX_POINT ( 'NONE', #453 ) ;
#185 = LINE ( 'NONE', #547, #231 ) ;
#186 = VECTOR ( 'NONE', #214, 1000.000000000000114 ) ;
#187 = FACE_OUTER_BOUND ( 'NONE', #211, .T. ) ;
#188 = ORIENTED_EDGE ( 'NONE', *, *, #261, .T. ) ;
#189 = DIRECTION ( 'NONE',  ( 0.4999999999999999445, 0.8660254037844387076, 0.000000000000000000 ) ) ;
#190 = PLANE ( 'NONE',  #168 ) ;
#191 = SHAPE_DEFINITION_REPRESENTATION ( #28, #327 ) ;
#192 = VERTEX_POINT ( 'NONE', #114 ) ;
#193 = LINE ( 'NONE', #72, #351 ) ;
#194 = PRODUCT_RELATED_PRODUCT_CATEGORY ( 'part', '', ( #409 ) ) ;
#195 = ORIENTED_EDGE ( 'NONE', *, *, #402, .T. ) ;
#196 = ADVANCED_FACE ( 'NONE', ( #459 ), #31, .F. ) ;
#197 = DIRECTION ( 'NONE',  ( -1.000000000000000000, -0.000000000000000000, -0.000000000000000000 ) ) ;
#198 = LINE ( 'NONE', #240, #496 ) ;
#199 = PRODUCT_DEFINITION_CONTEXT ( 'detailed design', #260, 'design' ) ;
#200 = CARTESIAN_POINT ( 'NONE',  ( -2.078460969082652099, 3.600000000000000977, -0.7500000000000002220 ) ) ;
#201 = ORIENTED_EDGE ( 'NONE', *, *, #177, .F. ) ;
#202 = DIRECTION ( 'NONE',  ( 1.000000000000000000, 0.000000000000000000, -0.000000000000000000 ) ) ;
#203 = EDGE_CURVE ( 'NONE', #184, #62, #85, .T. ) ;
#204 = VERTEX_POINT ( 'NONE', #416 ) ;
#205 = DIRECTION ( 'NONE',  ( -0.000000000000000000, -0.000000000000000000, -1.000000000000000000 ) ) ;
#206 = ORIENTED_EDGE ( 'NONE', *, *, #127, .F. ) ;
#207 = CARTESIAN_POINT ( 'NONE',  ( 5.000000000000000888, -7.900000000000002132, -3.250000000000000000 ) ) ;
#208 = VECTOR ( 'NONE', #332, 1000.000000000000000 ) ;
#209 = DIRECTION ( 'NONE',  ( -0.5000000000000002220, 0.8660254037844384856, 0.000000000000000000 ) ) ;
#210 = PLANE ( 'NONE',  #380 ) ;
#211 = EDGE_LOOP ( 'NONE', ( #139, #415, #422, #215, #470, #30 ) ) ;
#212 = DIRECTION ( 'NONE',  ( -0.5000000000000000000, -0.8660254037844385966, 0.000000000000000000 ) ) ;
#213 = PLANE ( 'NONE',  #120 ) ;
#214 = DIRECTION ( 'NONE',  ( -0.5000000000000002220, 0.8660254037844384856, 0.000000000000000000 ) ) ;
#215 = ORIENTED_EDGE ( 'NONE', *, *, #355, .T. ) ;
#216 = DIRECTION ( 'NONE',  ( -0.000000000000000000, -0.000000000000000000, 1.000000000000000000 ) ) ;
#217 = AXIS2_PLACEMENT_3D ( 'NONE', #126, #466, #299 ) ;
#218 = ORIENTED_EDGE ( 'NONE', *, *, #310, .T. ) ;
#219 = COLOUR_RGB ( '',0.7921568627450980005, 0.8196078431372548767, 0.9333333333333333481 ) ;
#220 = DIRECTION ( 'NONE',  ( 1.000000000000000000, 0.000000000000000000, 0.000000000000000000 ) ) ;
#221 = ADVANCED_FACE ( 'NONE', ( #148 ), #530, .F. ) ;
#222 = EDGE_CURVE ( 'NONE', #492, #115, #447, .T. ) ;
#223 = EDGE_LOOP ( 'NONE', ( #395, #403, #303, #468 ) ) ;
#224 = APPLICATION_CONTEXT ( 'automotive_design' ) ;
#225 = CARTESIAN_POINT ( 'NONE',  ( 2.078460969082651655, 3.600000000000000977, -0.7500000000000002220 ) ) ;
#226 = VECTOR ( 'NONE', #333, 1000.000000000000000 ) ;
#227 = MANIFOLD_SOLID_BREP ( 'Cortar-Extruir3', #499 ) ;
#228 = ORIENTED_EDGE ( 'NONE', *, *, #330, .T. ) ;
#229 = ADVANCED_FACE ( 'NONE', ( #138 ), #234, .F. ) ;
#230 = EDGE_CURVE ( 'NONE', #296, #371, #164, .T. ) ;
#231 = VECTOR ( 'NONE', #431, 1000.000000000000000 ) ;
#232 = ORIENTED_EDGE ( 'NONE', *, *, #64, .F. ) ;
#233 = LINE ( 'NONE', #83, #208 ) ;
#234 = PLANE ( 'NONE',  #5 ) ;
#235 = ORIENTED_EDGE ( 'NONE', *, *, #477, .F. ) ;
#236 = CARTESIAN_POINT ( 'NONE',  ( 5.000000000000000888, 3.900000000000038991, 3.250000000000001332 ) ) ;
#237 =( LENGTH_UNIT ( ) NAMED_UNIT ( * ) SI_UNIT ( .MILLI., .METRE. ) );
#238 = LINE ( 'NONE', #162, #13 ) ;
#239 = ORIENTED_EDGE ( 'NONE', *, *, #427, .F. ) ;
#240 = CARTESIAN_POINT ( 'NONE',  ( -4.999999999999999112, 7.899999999999997691, -0.7500000000000019984 ) ) ;
#241 = EDGE_LOOP ( 'NONE', ( #90, #137, #495, #195, #446, #485 ) ) ;
#242 = AXIS2_PLACEMENT_3D ( 'NONE', #43, #465, #212 ) ;
#243 = CARTESIAN_POINT ( 'NONE',  ( -4.999999999999999112, -7.900000000000003908, 3.250000000000000000 ) ) ;
#244 = FACE_OUTER_BOUND ( 'NONE', #374, .T. ) ;
#245 = CARTESIAN_POINT ( 'NONE',  ( -2.078460969082652099, 3.600000000000000977, -0.7500000000000002220 ) ) ;
#246 = CIRCLE ( 'NONE', #337, 2.250000000000000000 ) ;
#247 = ORIENTED_EDGE ( 'NONE', *, *, #514, .F. ) ;
#248 = DIRECTION ( 'NONE',  ( 0.000000000000000000, 0.000000000000000000, 1.000000000000000000 ) ) ;
#249 = CARTESIAN_POINT ( 'NONE',  ( -2.078460969082651655, -3.599999999999998312, 3.250000000000000000 ) ) ;
#250 = CARTESIAN_POINT ( 'NONE',  ( -2.078460969082651655, -3.599999999999998312, -0.7500000000000002220 ) ) ;
#251 = AXIS2_PLACEMENT_3D ( 'NONE', #362, #370, #202 ) ;
#252 = PLANE ( 'NONE',  #50 ) ;
#253 = DIRECTION ( 'NONE',  ( 0.000000000000000000, 0.7071067811865513475, -0.7071067811865436870 ) ) ;
#254 = CARTESIAN_POINT ( 'NONE',  ( 4.156921938165306862, -1.517883041479706208E-15, 3.250000000000000000 ) ) ;
#255 = VECTOR ( 'NONE', #532, 1000.000000000000114 ) ;
#256 = ORIENTED_EDGE ( 'NONE', *, *, #487, .T. ) ;
#257 = AXIS2_PLACEMENT_3D ( 'NONE', #438, #136, #435 ) ;
#258 = VERTEX_POINT ( 'NONE', #169 ) ;
#259 = CARTESIAN_POINT ( 'NONE',  ( 5.000000000000000888, -7.899999999999997691, -0.7500000000000019984 ) ) ;
#260 = APPLICATION_CONTEXT ( 'automotive_design' ) ;
#261 = EDGE_CURVE ( 'NONE', #46, #87, #7, .T. ) ;
#262 = ORIENTED_EDGE ( 'NONE', *, *, #330, .F. ) ;
#263 = FACE_OUTER_BOUND ( 'NONE', #241, .T. ) ;
#264 = APPLICATION_PROTOCOL_DEFINITION ( 'draft international standard', 'automotive_design', 1998, #260 ) ;
#265 = FACE_OUTER_BOUND ( 'NONE', #155, .T. ) ;
#266 = PRESENTATION_STYLE_ASSIGNMENT (( #97 ) ) ;
#267 = CARTESIAN_POINT ( 'NONE',  ( 4.156921938165306862, -1.698642521578371504E-15, 3.250000000000000000 ) ) ;
#268 = ADVANCED_FACE ( 'NONE', ( #511, #322 ), #252, .F. ) ;
#269 = VECTOR ( 'NONE', #500, 1000.000000000000000 ) ;
#270 = ORIENTED_EDGE ( 'NONE', *, *, #487, .F. ) ;
#271 = VERTEX_POINT ( 'NONE', #503 ) ;
#272 = CARTESIAN_POINT ( 'NONE',  ( 2.078460969082656540, -3.599999999999998312, -0.7500000000000002220 ) ) ;
#273 = ORIENTED_EDGE ( 'NONE', *, *, #285, .F. ) ;
#274 = DIRECTION ( 'NONE',  ( -0.5000000000000000000, -0.8660254037844385966, 0.000000000000000000 ) ) ;
#275 = EDGE_LOOP ( 'NONE', ( #442, #93, #232, #342 ) ) ;
#276 = LINE ( 'NONE', #305, #73 ) ;
#277 = DIRECTION ( 'NONE',  ( -0.000000000000000000, -0.7071067811865436870, -0.7071067811865513475 ) ) ;
#278 = EDGE_CURVE ( 'NONE', #180, #258, #233, .T. ) ;
#279 = CYLINDRICAL_SURFACE ( 'NONE', #95, 2.250000000000000000 ) ;
#280 = VERTEX_POINT ( 'NONE', #454 ) ;
#281 =( NAMED_UNIT ( * ) PLANE_ANGLE_UNIT ( ) SI_UNIT ( $, .RADIAN. ) );
#282 = CARTESIAN_POINT ( 'NONE',  ( -4.999999999999999112, -7.900000000000003908, 3.250000000000000000 ) ) ;
#283 = PRODUCT_DEFINITION ( 'UNKNOWN', '', #548, #199 ) ;
#284 = DIRECTION ( 'NONE',  ( 0.000000000000000000, 0.000000000000000000, 1.000000000000000000 ) ) ;
#285 = EDGE_CURVE ( 'NONE', #165, #458, #486, .T. ) ;
#286 = ORIENTED_EDGE ( 'NONE', *, *, #355, .F. ) ;
#287 = DIRECTION ( 'NONE',  ( -0.5000000000000000000, -0.8660254037844385966, 0.000000000000000000 ) ) ;
#288 = EDGE_CURVE ( 'NONE', #192, #388, #425, .T. ) ;
#289 = ORIENTED_EDGE ( 'NONE', *, *, #457, .T. ) ;
#290 = AXIS2_PLACEMENT_3D ( 'NONE', #509, #343, #132 ) ;
#291 = DIRECTION ( 'NONE',  ( -0.000000000000000000, -1.000000000000000000, -0.000000000000000000 ) ) ;
#292 = CARTESIAN_POINT ( 'NONE',  ( 5.000000000000000888, -7.900000000000002132, -3.250000000000000000 ) ) ;
#293 = VECTOR ( 'NONE', #205, 1000.000000000000000 ) ;
#294 = CARTESIAN_POINT ( 'NONE',  ( -4.999999999999999112, 7.899999999999997691, -3.250000000000000000 ) ) ;
#295 = LINE ( 'NONE', #491, #369 ) ;
#296 = VERTEX_POINT ( 'NONE', #123 ) ;
#297 = PLANE ( 'NONE',  #217 ) ;
#298 = DIRECTION ( 'NONE',  ( 0.000000000000000000, 0.000000000000000000, 1.000000000000000000 ) ) ;
#299 = DIRECTION ( 'NONE',  ( 0.5000000000000003331, -0.8660254037844384856, 0.000000000000000000 ) ) ;
#300 = CARTESIAN_POINT ( 'NONE',  ( 2.078460969082656540, -3.599999999999998312, -0.7500000000000002220 ) ) ;
#301 = VECTOR ( 'NONE', #432, 1000.000000000000000 ) ;
#302 = DIRECTION ( 'NONE',  ( 0.4999999999999999445, 0.8660254037844387076, 0.000000000000000000 ) ) ;
#303 = ORIENTED_EDGE ( 'NONE', *, *, #535, .T. ) ;
#304 = EDGE_CURVE ( 'NONE', #371, #439, #113, .T. ) ;
#305 = CARTESIAN_POINT ( 'NONE',  ( -4.156921938165305086, 4.244247045450127316E-16, -0.7500000000000002220 ) ) ;
#306 = EDGE_LOOP ( 'NONE', ( #133, #347, #239, #428 ) ) ;
#307 = COLOUR_RGB ( '',0.7921568627450980005, 0.8196078431372548767, 0.9333333333333333481 ) ;
#308 = VECTOR ( 'NONE', #426, 1000.000000000000000 ) ;
#309 = FILL_AREA_STYLE ('',( #96 ) ) ;
#310 = EDGE_CURVE ( 'NONE', #39, #192, #238, .T. ) ;
#311 = VERTEX_POINT ( 'NONE', #33 ) ;
#312 = ADVANCED_FACE ( 'NONE', ( #22 ), #381, .F. ) ;
#313 = LINE ( 'NONE', #392, #430 ) ;
#314 = CARTESIAN_POINT ( 'NONE',  ( 5.000000000000000888, -3.900000000000038991, 3.250000000000000444 ) ) ;
#315 = ORIENTED_EDGE ( 'NONE', *, *, #376, .T. ) ;
#316 = EDGE_CURVE ( 'NONE', #204, #371, #341, .T. ) ;
#317 = EDGE_CURVE ( 'NONE', #258, #39, #517, .T. ) ;
#318 = DIRECTION ( 'NONE',  ( 0.5000000000000003331, -0.8660254037844384856, 0.000000000000000000 ) ) ;
#319 = ORIENTED_EDGE ( 'NONE', *, *, #507, .F. ) ;
#320 = EDGE_CURVE ( 'NONE', #115, #204, #135, .T. ) ;
#321 = DIRECTION ( 'NONE',  ( -1.000000000000000000, -1.734723475976807587E-16, 0.000000000000000000 ) ) ;
#322 = FACE_OUTER_BOUND ( 'NONE', #125, .T. ) ;
#323 = CARTESIAN_POINT ( 'NONE',  ( -2.078460969082652099, 3.600000000000000977, -0.7500000000000002220 ) ) ;
#324 = CARTESIAN_POINT ( 'NONE',  ( -2.078460969082651655, -3.599999999999998312, -0.7500000000000002220 ) ) ;
#325 = ORIENTED_EDGE ( 'NONE', *, *, #127, .T. ) ;
#326 = CARTESIAN_POINT ( 'NONE',  ( 2.078460969082656540, -3.599999999999998312, 3.250000000000000000 ) ) ;
#327 = ADVANCED_BREP_SHAPE_REPRESENTATION ( 'TR-012', ( #227, #51 ), #134 ) ;
#328 = ORIENTED_EDGE ( 'NONE', *, *, #61, .T. ) ;
#329 = CARTESIAN_POINT ( 'NONE',  ( 5.000000000000000888, 7.899999999999997691, -3.250000000000000000 ) ) ;
#330 = EDGE_CURVE ( 'NONE', #410, #311, #246, .T. ) ;
#331 = EDGE_LOOP ( 'NONE', ( #188, #533, #513, #473 ) ) ;
#332 = DIRECTION ( 'NONE',  ( -1.000000000000000000, -0.000000000000000000, -0.000000000000000000 ) ) ;
#333 = DIRECTION ( 'NONE',  ( 0.000000000000000000, 1.000000000000000000, 0.000000000000000000 ) ) ;
#334 = CARTESIAN_POINT ( 'NONE',  ( 2.250000000000000000, 0.000000000000000000, -3.250000000000000000 ) ) ;
#335 = CARTESIAN_POINT ( 'NONE',  ( 0.000000000000000000, 0.000000000000000000, -3.250000000000000000 ) ) ;
#336 = VERTEX_POINT ( 'NONE', #538 ) ;
#337 = AXIS2_PLACEMENT_3D ( 'NONE', #421, #248, #460 ) ;
#338 = PLANE ( 'NONE',  #242 ) ;
#339 = CARTESIAN_POINT ( 'NONE',  ( 4.156921938165306862, -1.698642521578371504E-15, -0.7500000000000002220 ) ) ;
#340 = DIRECTION ( 'NONE',  ( -0.000000000000000000, -0.000000000000000000, -1.000000000000000000 ) ) ;
#341 = LINE ( 'NONE', #292, #226 ) ;
#342 = ORIENTED_EDGE ( 'NONE', *, *, #394, .T. ) ;
#343 = DIRECTION ( 'NONE',  ( 0.000000000000000000, -0.000000000000000000, 1.000000000000000000 ) ) ;
#344 =( NAMED_UNIT ( * ) PLANE_ANGLE_UNIT ( ) SI_UNIT ( $, .RADIAN. ) );
#345 = ORIENTED_EDGE ( 'NONE', *, *, #441, .T. ) ;
#346 = CARTESIAN_POINT ( 'NONE',  ( 0.000000000000000000, 0.000000000000000000, 0.000000000000000000 ) ) ;
#347 = ORIENTED_EDGE ( 'NONE', *, *, #457, .F. ) ;
#348 = LINE ( 'NONE', #2, #550 ) ;
#349 = ORIENTED_EDGE ( 'NONE', *, *, #230, .F. ) ;
#350 =( NAMED_UNIT ( * ) PLANE_ANGLE_UNIT ( ) SI_UNIT ( $, .RADIAN. ) );
#351 = VECTOR ( 'NONE', #448, 1000.000000000000000 ) ;
#352 = EDGE_LOOP ( 'NONE', ( #325, #201, #382, #345 ) ) ;
#353 = ORIENTED_EDGE ( 'NONE', *, *, #320, .T. ) ;
#354 = DIRECTION ( 'NONE',  ( 1.000000000000000000, 0.000000000000000000, 0.000000000000000000 ) ) ;
#355 = EDGE_CURVE ( 'NONE', #104, #184, #413, .T. ) ;
#356 = LINE ( 'NONE', #390, #161 ) ;
#357 = VECTOR ( 'NONE', #545, 1000.000000000000000 ) ;
#358 = CARTESIAN_POINT ( 'NONE',  ( 0.000000000000000000, 0.000000000000000000, -3.250000000000000000 ) ) ;
#359 = UNCERTAINTY_MEASURE_WITH_UNIT (LENGTH_MEASURE( 1.000000000000000082E-05 ), #9, 'distance_accuracy_value', 'NONE');
#360 = ORIENTED_EDGE ( 'NONE', *, *, #534, .T. ) ;
#361 = LINE ( 'NONE', #412, #76 ) ;
#362 = CARTESIAN_POINT ( 'NONE',  ( 0.000000000000000000, 0.000000000000000000, -0.7500000000000002220 ) ) ;
#363 = ORIENTED_EDGE ( 'NONE', *, *, #203, .F. ) ;
#364 = DIRECTION ( 'NONE',  ( -1.000000000000000000, 0.000000000000000000, 0.000000000000000000 ) ) ;
#365 = SURFACE_STYLE_USAGE ( .BOTH. , #151 ) ;
#366 = FACE_OUTER_BOUND ( 'NONE', #275, .T. ) ;
#367 = EDGE_CURVE ( 'NONE', #388, #204, #179, .T. ) ;
#368 = FACE_OUTER_BOUND ( 'NONE', #452, .T. ) ;
#369 = VECTOR ( 'NONE', #71, 1000.000000000000000 ) ;
#370 = DIRECTION ( 'NONE',  ( 0.000000000000000000, -0.000000000000000000, 1.000000000000000000 ) ) ;
#371 = VERTEX_POINT ( 'NONE', #79 ) ;
#372 = DIRECTION ( 'NONE',  ( 1.000000000000000000, 0.000000000000000000, 0.000000000000000000 ) ) ;
#373 = VECTOR ( 'NONE', #501, 1000.000000000000000 ) ;
#374 = EDGE_LOOP ( 'NONE', ( #349, #3, #455, #100, #353, #433 ) ) ;
#375 = CARTESIAN_POINT ( 'NONE',  ( -4.999999999999999112, -7.900000000000003908, 3.250000000000000000 ) ) ;
#376 = EDGE_CURVE ( 'NONE', #311, #410, #490, .T. ) ;
#377 = DIRECTION ( 'NONE',  ( 1.000000000000000000, 0.000000000000000000, 0.000000000000000000 ) ) ;
#378 = EDGE_LOOP ( 'NONE', ( #247, #158, #434, #1 ) ) ;
#379 = VECTOR ( 'NONE', #274, 1000.000000000000227 ) ;
#380 = AXIS2_PLACEMENT_3D ( 'NONE', #549, #130, #47 ) ;
#381 = PLANE ( 'NONE',  #25 ) ;
#382 = ORIENTED_EDGE ( 'NONE', *, *, #159, .F. ) ;
#383 = CARTESIAN_POINT ( 'NONE',  ( 5.000000000000000888, 7.899999999999997691, 3.250000000000000000 ) ) ;
#384 = CARTESIAN_POINT ( 'NONE',  ( 5.000000000000000888, 7.899999999999997691, 3.250000000000000000 ) ) ;
#385 = CIRCLE ( 'NONE', #91, 2.250000000000000000 ) ;
#386 = CARTESIAN_POINT ( 'NONE',  ( 0.000000000000000000, 0.000000000000000000, -3.250000000000000000 ) ) ;
#387 = DIRECTION ( 'NONE',  ( -0.000000000000000000, -0.000000000000000000, 1.000000000000000000 ) ) ;
#388 = VERTEX_POINT ( 'NONE', #540 ) ;
#389 = DIRECTION ( 'NONE',  ( 1.000000000000000000, 0.000000000000000000, 0.000000000000000000 ) ) ;
#390 = CARTESIAN_POINT ( 'NONE',  ( 5.000000000000000888, -7.899999999999997691, -0.7500000000000019984 ) ) ;
#391 = ORIENTED_EDGE ( 'NONE', *, *, #481, .F. ) ;
#392 = CARTESIAN_POINT ( 'NONE',  ( 2.250000000000000000, 0.000000000000000000, -3.250000000000000000 ) ) ;
#393 =( NAMED_UNIT ( * ) SI_UNIT ( $, .STERADIAN. ) SOLID_ANGLE_UNIT ( ) );
#394 = EDGE_CURVE ( 'NONE', #492, #180, #404, .T. ) ;
#395 = ORIENTED_EDGE ( 'NONE', *, *, #376, .F. ) ;
#396 = VECTOR ( 'NONE', #157, 1000.000000000000000 ) ;
#397 = PRODUCT_CONTEXT ( 'NONE', #224, 'mechanical' ) ;
#398 = ORIENTED_EDGE ( 'NONE', *, *, #541, .T. ) ;
#399 = VECTOR ( 'NONE', #189, 999.9999999999998863 ) ;
#400 = ADVANCED_FACE ( 'NONE', ( #265 ), #338, .F. ) ;
#401 = DIRECTION ( 'NONE',  ( -0.5000000000000002220, 0.8660254037844384856, 0.000000000000000000 ) ) ;
#402 = EDGE_CURVE ( 'NONE', #439, #388, #170, .T. ) ;
#403 = ORIENTED_EDGE ( 'NONE', *, *, #481, .T. ) ;
#404 = LINE ( 'NONE', #173, #175 ) ;
#405 = ADVANCED_FACE ( 'NONE', ( #368 ), #297, .F. ) ;
#406 = CARTESIAN_POINT ( 'NONE',  ( 2.078460969082656540, -3.599999999999998312, -0.7500000000000002220 ) ) ;
#407 = VERTEX_POINT ( 'NONE', #254 ) ;
#408 = CARTESIAN_POINT ( 'NONE',  ( -4.999999999999999112, -3.900000000000038991, 3.250000000000000444 ) ) ;
#409 = PRODUCT ( 'TR-012', 'TR-012', '', ( #397 ) ) ;
#410 = VERTEX_POINT ( 'NONE', #334 ) ;
#411 = ADVANCED_FACE ( 'NONE', ( #119 ), #213, .F. ) ;
#412 = CARTESIAN_POINT ( 'NONE',  ( 2.078460969082651655, 3.600000000000000977, -0.7500000000000002220 ) ) ;
#413 = LINE ( 'NONE', #245, #456 ) ;
#414 = FILL_AREA_STYLE_COLOUR ( '', #219 ) ;
#415 = ORIENTED_EDGE ( 'NONE', *, *, #484, .T. ) ;
#416 = CARTESIAN_POINT ( 'NONE',  ( 5.000000000000000888, -7.900000000000002132, -3.250000000000000000 ) ) ;
#417 = CARTESIAN_POINT ( 'NONE',  ( -4.156921938165305086, 4.244247045450127316E-16, -0.7500000000000002220 ) ) ;
#418 = CARTESIAN_POINT ( 'NONE',  ( 5.000000000000000888, -7.900000000000002132, 3.250000000000000000 ) ) ;
#419 = ORIENTED_EDGE ( 'NONE', *, *, #278, .F. ) ;
#420 = AXIS2_PLACEMENT_3D ( 'NONE', #110, #494, #321 ) ;
#421 = CARTESIAN_POINT ( 'NONE',  ( 0.000000000000000000, 0.000000000000000000, -3.250000000000000000 ) ) ;
#422 = ORIENTED_EDGE ( 'NONE', *, *, #159, .T. ) ;
#423 = DIRECTION ( 'NONE',  ( 0.000000000000000000, -1.000000000000000000, 0.000000000000000000 ) ) ;
#424 = PLANE ( 'NONE',  #183 ) ;
#425 = LINE ( 'NONE', #243, #308 ) ;
#426 = DIRECTION ( 'NONE',  ( -0.000000000000000000, -0.000000000000000000, -1.000000000000000000 ) ) ;
#427 = EDGE_CURVE ( 'NONE', #18, #131, #348, .T. ) ;
#428 = ORIENTED_EDGE ( 'NONE', *, *, #450, .T. ) ;
#429 = CARTESIAN_POINT ( 'NONE',  ( 4.156921938165306862, -1.698642521578371504E-15, -0.7500000000000002220 ) ) ;
#430 = VECTOR ( 'NONE', #387, 1000.000000000000000 ) ;
#431 = DIRECTION ( 'NONE',  ( -1.000000000000000000, -0.000000000000000000, -0.000000000000000000 ) ) ;
#432 = DIRECTION ( 'NONE',  ( 0.000000000000000000, -0.7071067811865435759, 0.7071067811865515695 ) ) ;
#433 = ORIENTED_EDGE ( 'NONE', *, *, #316, .T. ) ;
#434 = ORIENTED_EDGE ( 'NONE', *, *, #230, .T. ) ;
#435 = DIRECTION ( 'NONE',  ( 0.000000000000000000, 0.000000000000000000, 1.000000000000000000 ) ) ;
#436 = EDGE_CURVE ( 'NONE', #410, #165, #313, .T. ) ;
#437 = PRESENTATION_STYLE_ASSIGNMENT (( #365 ) ) ;
#438 = CARTESIAN_POINT ( 'NONE',  ( 5.000000000000000888, -7.900000000000002132, 3.250000000000000000 ) ) ;
#439 = VERTEX_POINT ( 'NONE', #294 ) ;
#440 = ADVANCED_FACE ( 'NONE', ( #41 ), #424, .F. ) ;
#441 = EDGE_CURVE ( 'NONE', #94, #271, #81, .T. ) ;
#442 = ORIENTED_EDGE ( 'NONE', *, *, #278, .T. ) ;
#443 = EDGE_LOOP ( 'NONE', ( #398, #49, #55, #289 ) ) ;
#444 = EDGE_CURVE ( 'NONE', #296, #280, #185, .T. ) ;
#445 = VECTOR ( 'NONE', #216, 1000.000000000000000 ) ;
#446 = ORIENTED_EDGE ( 'NONE', *, *, #288, .F. ) ;
#447 = LINE ( 'NONE', #493, #542 ) ;
#448 = DIRECTION ( 'NONE',  ( 1.000000000000000000, 0.000000000000000000, 0.000000000000000000 ) ) ;
#449 = DIRECTION ( 'NONE',  ( 0.000000000000000000, 0.000000000000000000, -1.000000000000000000 ) ) ;
#450 = EDGE_CURVE ( 'NONE', #18, #87, #20, .T. ) ;
#451 = VECTOR ( 'NONE', #291, 1000.000000000000000 ) ;
#452 = EDGE_LOOP ( 'NONE', ( #116, #479, #363, #360 ) ) ;
#453 = CARTESIAN_POINT ( 'NONE',  ( -4.156921938165305086, 4.244247045450127316E-16, -0.7500000000000002220 ) ) ;
#454 = CARTESIAN_POINT ( 'NONE',  ( -4.999999999999999112, 7.899999999999997691, -0.7500000000000019984 ) ) ;
#455 = ORIENTED_EDGE ( 'NONE', *, *, #394, .F. ) ;
#456 = VECTOR ( 'NONE', #287, 1000.000000000000227 ) ;
#457 = EDGE_CURVE ( 'NONE', #131, #407, #101, .T. ) ;
#458 = VERTEX_POINT ( 'NONE', #174 ) ;
#459 = FACE_OUTER_BOUND ( 'NONE', #537, .T. ) ;
#460 = DIRECTION ( 'NONE',  ( 1.000000000000000000, 0.000000000000000000, 0.000000000000000000 ) ) ;
#461 = CARTESIAN_POINT ( 'NONE',  ( 2.078460969082651655, 3.600000000000000977, -0.7500000000000002220 ) ) ;
#462 = ORIENTED_EDGE ( 'NONE', *, *, #534, .F. ) ;
#463 = CARTESIAN_POINT ( 'NONE',  ( 4.156921938165306862, -1.698642521578371504E-15, -0.7500000000000002220 ) ) ;
#464 = CARTESIAN_POINT ( 'NONE',  ( 5.000000000000000888, 7.899999999999997691, -0.7500000000000019984 ) ) ;
#465 = DIRECTION ( 'NONE',  ( -0.8660254037844387076, 0.5000000000000001110, 0.000000000000000000 ) ) ;
#466 = DIRECTION ( 'NONE',  ( -0.8660254037844384856, -0.5000000000000003331, 0.000000000000000000 ) ) ;
#467 = LINE ( 'NONE', #107, #379 ) ;
#468 = ORIENTED_EDGE ( 'NONE', *, *, #436, .F. ) ;
#469 = PLANE ( 'NONE',  #290 ) ;
#470 = ORIENTED_EDGE ( 'NONE', *, *, #203, .T. ) ;
#471 = EDGE_CURVE ( 'NONE', #62, #46, #146, .T. ) ;
#472 = LINE ( 'NONE', #323, #396 ) ;
#473 = ORIENTED_EDGE ( 'NONE', *, *, #471, .T. ) ;
#474 = DIRECTION ( 'NONE',  ( 1.000000000000000000, 0.000000000000000000, 0.000000000000000000 ) ) ;
#475 = LINE ( 'NONE', #429, #186 ) ;
#476 = ADVANCED_FACE ( 'NONE', ( #366, #42 ), #469, .T. ) ;
#477 = EDGE_CURVE ( 'NONE', #296, #180, #68, .T. ) ;
#478 = FACE_BOUND ( 'NONE', #163, .T. ) ;
#479 = ORIENTED_EDGE ( 'NONE', *, *, #471, .F. ) ;
#480 = ADVANCED_FACE ( 'NONE', ( #539 ), #210, .F. ) ;
#481 = EDGE_CURVE ( 'NONE', #311, #458, #167, .T. ) ;
#482 =( GEOMETRIC_REPRESENTATION_CONTEXT ( 3 ) GLOBAL_UNCERTAINTY_ASSIGNED_CONTEXT ( ( #515 ) ) GLOBAL_UNIT_ASSIGNED_CONTEXT ( ( #54, #350, #393 ) ) REPRESENTATION_CONTEXT ( 'NONE', 'WORKASPACE' ) );
#483 = DIRECTION ( 'NONE',  ( -0.000000000000000000, -0.000000000000000000, 1.000000000000000000 ) ) ;
#484 = EDGE_CURVE ( 'NONE', #131, #94, #475, .T. ) ;
#485 = ORIENTED_EDGE ( 'NONE', *, *, #310, .F. ) ;
#486 = CIRCLE ( 'NONE', #74, 2.250000000000000000 ) ;
#487 = EDGE_CURVE ( 'NONE', #115, #192, #356, .T. ) ;
#488 = PRESENTATION_LAYER_ASSIGNMENT (  '', '', ( #527 ) ) ;
#489 = CARTESIAN_POINT ( 'NONE',  ( 2.250000000000000000, 0.000000000000000000, -0.7500000000000002220 ) ) ;
#490 = CIRCLE ( 'NONE', #105, 2.250000000000000000 ) ;
#491 = CARTESIAN_POINT ( 'NONE',  ( 2.078460969082651655, 3.600000000000000977, 3.250000000000000000 ) ) ;
#492 = VERTEX_POINT ( 'NONE', #178 ) ;
#493 = CARTESIAN_POINT ( 'NONE',  ( 5.000000000000000888, -7.899999999999997691, -0.7500000000000019984 ) ) ;
#494 = DIRECTION ( 'NONE',  ( -1.734723475976807587E-16, 1.000000000000000000, 0.000000000000000000 ) ) ;
#495 = ORIENTED_EDGE ( 'NONE', *, *, #514, .T. ) ;
#496 = VECTOR ( 'NONE', #536, 1000.000000000000000 ) ;
#497 = MECHANICAL_DESIGN_GEOMETRIC_PRESENTATION_REPRESENTATION (  '', ( #527 ), #17 ) ;
#498 = DIRECTION ( 'NONE',  ( -0.000000000000000000, -0.7071067811865436870, -0.7071067811865513475 ) ) ;
#499 = CLOSED_SHELL ( 'NONE', ( #23, #141, #196, #519, #440, #476, #268, #16, #229, #405, #400, #480, #312, #103, #411, #221, #10 ) ) ;
#500 = DIRECTION ( 'NONE',  ( 1.000000000000000000, 0.000000000000000000, 0.000000000000000000 ) ) ;
#501 = DIRECTION ( 'NONE',  ( -0.000000000000000000, -0.000000000000000000, 1.000000000000000000 ) ) ;
#502 = VECTOR ( 'NONE', #401, 1000.000000000000114 ) ;
#503 = CARTESIAN_POINT ( 'NONE',  ( 2.078460969082651655, 3.600000000000000977, 3.250000000000000000 ) ) ;
#504 = ORIENTED_EDGE ( 'NONE', *, *, #304, .F. ) ;
#505 = AXIS2_PLACEMENT_3D ( 'NONE', #102, #483, #354 ) ;
#506 = DIRECTION ( 'NONE',  ( -1.000000000000000000, -0.000000000000000000, -0.000000000000000000 ) ) ;
#507 = EDGE_CURVE ( 'NONE', #87, #407, #508, .T. ) ;
#508 = LINE ( 'NONE', #80, #399 ) ;
#509 = CARTESIAN_POINT ( 'NONE',  ( 0.000000000000000000, 0.000000000000000000, 3.250000000000000000 ) ) ;
#510 = ORIENTED_EDGE ( 'NONE', *, *, #320, .F. ) ;
#511 = FACE_BOUND ( 'NONE', #36, .T. ) ;
#512 =( NAMED_UNIT ( * ) SI_UNIT ( $, .STERADIAN. ) SOLID_ANGLE_UNIT ( ) );
#513 = ORIENTED_EDGE ( 'NONE', *, *, #82, .F. ) ;
#514 = EDGE_CURVE ( 'NONE', #280, #439, #118, .T. ) ;
#515 = UNCERTAINTY_MEASURE_WITH_UNIT (LENGTH_MEASURE( 1.000000000000000082E-05 ), #54, 'distance_accuracy_value', 'NONE');
#516 = VECTOR ( 'NONE', #340, 1000.000000000000000 ) ;
#517 = LINE ( 'NONE', #375, #451 ) ;
#518 = ORIENTED_EDGE ( 'NONE', *, *, #261, .F. ) ;
#519 = ADVANCED_FACE ( 'NONE', ( #244 ), #56, .F. ) ;
#520 = APPLICATION_PROTOCOL_DEFINITION ( 'draft international standard', 'automotive_design', 1998, #224 ) ;
#521 = STYLED_ITEM ( 'NONE', ( #266 ), #327 ) ;
#522 = CARTESIAN_POINT ( 'NONE',  ( -2.078460969082651655, -3.599999999999998312, 3.250000000000000000 ) ) ;
#523 = DIRECTION ( 'NONE',  ( 1.000000000000000000, 0.000000000000000000, 0.000000000000000000 ) ) ;
#524 = VECTOR ( 'NONE', #171, 1000.000000000000000 ) ;
#525 = EDGE_LOOP ( 'NONE', ( #218, #270, #172, #6 ) ) ;
#526 = CARTESIAN_POINT ( 'NONE',  ( -2.078460969082651655, -3.599999999999998312, -0.7500000000000002220 ) ) ;
#527 = STYLED_ITEM ( 'NONE', ( #437 ), #227 ) ;
#528 = VECTOR ( 'NONE', #48, 1000.000000000000000 ) ;
#529 = DIRECTION ( 'NONE',  ( 0.8660254037844387076, -0.4999999999999999445, 0.000000000000000000 ) ) ;
#530 = PLANE ( 'NONE',  #543 ) ;
#531 = VECTOR ( 'NONE', #40, 1000.000000000000000 ) ;
#532 = DIRECTION ( 'NONE',  ( 0.5000000000000003331, -0.8660254037844384856, 0.000000000000000000 ) ) ;
#533 = ORIENTED_EDGE ( 'NONE', *, *, #450, .F. ) ;
#534 = EDGE_CURVE ( 'NONE', #184, #336, #276, .T. ) ;
#535 = EDGE_CURVE ( 'NONE', #458, #165, #385, .T. ) ;
#536 = DIRECTION ( 'NONE',  ( 0.000000000000000000, -0.7071067811865435759, 0.7071067811865515695 ) ) ;
#537 = EDGE_LOOP ( 'NONE', ( #510, #256, #108, #145 ) ) ;
#538 = CARTESIAN_POINT ( 'NONE',  ( -4.156921938165305086, 4.244247045450127316E-16, 3.250000000000000000 ) ) ;
#539 = FACE_OUTER_BOUND ( 'NONE', #352, .T. ) ;
#540 = CARTESIAN_POINT ( 'NONE',  ( -4.999999999999999112, -7.900000000000003908, -3.250000000000000000 ) ) ;
#541 = EDGE_CURVE ( 'NONE', #407, #271, #52, .T. ) ;
#542 = VECTOR ( 'NONE', #277, 1000.000000000000000 ) ;
#543 = AXIS2_PLACEMENT_3D ( 'NONE', #27, #154, #24 ) ;
#544 = DIRECTION ( 'NONE',  ( 1.000000000000000000, 0.000000000000000000, -0.000000000000000000 ) ) ;
#545 = DIRECTION ( 'NONE',  ( -0.000000000000000000, -1.000000000000000000, -0.000000000000000000 ) ) ;
#546 = ORIENTED_EDGE ( 'NONE', *, *, #541, .F. ) ;
#547 = CARTESIAN_POINT ( 'NONE',  ( 5.000000000000000888, 7.899999999999997691, -0.7500000000000019984 ) ) ;
#548 = PRODUCT_DEFINITION_FORMATION_WITH_SPECIFIED_SOURCE ( 'ANY', '', #409, .NOT_KNOWN. ) ;
#549 = CARTESIAN_POINT ( 'NONE',  ( 2.078460969082651655, 3.600000000000000977, -0.7500000000000002220 ) ) ;
#550 = VECTOR ( 'NONE', #302, 999.9999999999998863 ) ;
ENDSEC;
END-ISO-10303-21;
