SolidWorks IGES file using analytic representation for surfaces         S      1
1H,,1H;,6HTR-012,74HC:\Users\PC\Documents\MecaRobotics\Proyectos\TranspoG      1
rtador\2024\TR-012.IGS,15HSolidWorks 2018,15HSolidWorks 2018,32,308,15, G      2
308,15,6HTR-012,1.,2,2HMM,50,0.125,13H240514.200705,1E-08,499990.,2HPC, G      3
,11,0,13H240514.200705;                                                 G      4
     314       1       0       0       0                        00000200D      1
     314       0       8       1       0                               0D      2
     110       2       0       0       0                        01010000D      3
     110       0       0       1       0                               0D      4
     110       3       0       0       0                        01010000D      5
     110       0       0       1       0                               0D      6
     120       4       0       0       0                        01010000D      7
     120       0       0       1       0                               0D      8
     126       5       0       0       0                        01010500D      9
     126       0       0       2       0                               0D     10
     110       7       0       0       0                        01010000D     11
     110       0       0       1       0                               0D     12
     126       8       0       0       0                        01010500D     13
     126       0       0       2       0                               0D     14
     124      10       0       0       0                        00000000D     15
     124       0       0       4       0                               0D     16
     100      14       0       0       0              15        01010000D     17
     100       0       0       1       0                               0D     18
     126      15       0       0       0                        01010500D     19
     126       0       0       2       0                               0D     20
     110      17       0       0       0                        01010000D     21
     110       0       0       1       0                               0D     22
     126      18       0       0       0                        01010500D     23
     126       0       0       2       0                               0D     24
     100      20       0       0       0                        01010000D     25
     100       0       0       1       0                               0D     26
     102      21       0       0       0                        01010500D     27
     102       0       0       1       0                               0D     28
     102      22       0       0       0                        01010000D     29
     102       0       0       1       0                               0D     30
     142      23       0       0       0                        00010500D     31
     142       0       0       1       0                               0D     32
     144      24       0       0       0                        00000000D     33
     144       0      -1       1       0                               0D     34
     128      25       0       0       0                        01010000D     35
     128       0       0       3       0                               0D     36
     126      28       0       0       0                        01010500D     37
     126       0       0       2       0                               0D     38
     110      30       0       0       0                        01010000D     39
     110       0       0       1       0                               0D     40
     126      31       0       0       0                        01010500D     41
     126       0       0       2       0                               0D     42
     110      33       0       0       0                        01010000D     43
     110       0       0       1       0                               0D     44
     126      34       0       0       0                        01010500D     45
     126       0       0       2       0                               0D     46
     110      36       0       0       0                        01010000D     47
     110       0       0       1       0                               0D     48
     126      37       0       0       0                        01010500D     49
     126       0       0       2       0                               0D     50
     110      39       0       0       0                        01010000D     51
     110       0       0       1       0                               0D     52
     126      40       0       0       0                        01010500D     53
     126       0       0       2       0                               0D     54
     110      42       0       0       0                        01010000D     55
     110       0       0       1       0                               0D     56
     126      43       0       0       0                        01010500D     57
     126       0       0       2       0                               0D     58
     110      45       0       0       0                        01010000D     59
     110       0       0       1       0                               0D     60
     102      46       0       0       0                        01010500D     61
     102       0       0       1       0                               0D     62
     102      47       0       0       0                        01010000D     63
     102       0       0       1       0                               0D     64
     142      48       0       0       0                        00010500D     65
     142       0       0       1       0                               0D     66
     144      49       0       0       0                        00000000D     67
     144       0      -1       1       0                               0D     68
     128      50       0       0       0                        01010000D     69
     128       0       0       3       0                               0D     70
     126      53       0       0       0                        01010500D     71
     126       0       0       2       0                               0D     72
     110      55       0       0       0                        01010000D     73
     110       0       0       1       0                               0D     74
     126      56       0       0       0                        01010500D     75
     126       0       0       2       0                               0D     76
     110      58       0       0       0                        01010000D     77
     110       0       0       1       0                               0D     78
     126      59       0       0       0                        01010500D     79
     126       0       0       2       0                               0D     80
     110      61       0       0       0                        01010000D     81
     110       0       0       1       0                               0D     82
     126      62       0       0       0                        01010500D     83
     126       0       0       2       0                               0D     84
     110      64       0       0       0                        01010000D     85
     110       0       0       1       0                               0D     86
     102      65       0       0       0                        01010500D     87
     102       0       0       1       0                               0D     88
     102      66       0       0       0                        01010000D     89
     102       0       0       1       0                               0D     90
     142      67       0       0       0                        00010500D     91
     142       0       0       1       0                               0D     92
     144      68       0       0       0                        00000000D     93
     144       0      -1       1       0                               0D     94
     128      69       0       0       0                        01010000D     95
     128       0       0       2       0                               0D     96
     126      71       0       0       0                        01010500D     97
     126       0       0       2       0                               0D     98
     110      73       0       0       0                        01010000D     99
     110       0       0       1       0                               0D    100
     126      74       0       0       0                        01010500D    101
     126       0       0       2       0                               0D    102
     110      76       0       0       0                        01010000D    103
     110       0       0       1       0                               0D    104
     126      77       0       0       0                        01010500D    105
     126       0       0       2       0                               0D    106
     110      79       0       0       0                        01010000D    107
     110       0       0       1       0                               0D    108
     126      80       0       0       0                        01010500D    109
     126       0       0       2       0                               0D    110
     110      82       0       0       0                        01010000D    111
     110       0       0       1       0                               0D    112
     126      83       0       0       0                        01010500D    113
     126       0       0       2       0                               0D    114
     110      85       0       0       0                        01010000D    115
     110       0       0       1       0                               0D    116
     126      86       0       0       0                        01010500D    117
     126       0       0       2       0                               0D    118
     110      88       0       0       0                        01010000D    119
     110       0       0       1       0                               0D    120
     102      89       0       0       0                        01010500D    121
     102       0       0       1       0                               0D    122
     102      90       0       0       0                        01010000D    123
     102       0       0       1       0                               0D    124
     142      91       0       0       0                        00010500D    125
     142       0       0       1       0                               0D    126
     144      92       0       0       0                        00000000D    127
     144       0      -1       1       0                               0D    128
     128      93       0       0       0                        01010000D    129
     128       0       0       2       0                               0D    130
     126      95       0       0       0                        01010500D    131
     126       0       0       2       0                               0D    132
     110      97       0       0       0                        01010000D    133
     110       0       0       1       0                               0D    134
     126      98       0       0       0                        01010500D    135
     126       0       0       2       0                               0D    136
     110     100       0       0       0                        01010000D    137
     110       0       0       1       0                               0D    138
     126     101       0       0       0                        01010500D    139
     126       0       0       2       0                               0D    140
     110     103       0       0       0                        01010000D    141
     110       0       0       1       0                               0D    142
     126     104       0       0       0                        01010500D    143
     126       0       0       2       0                               0D    144
     110     106       0       0       0                        01010000D    145
     110       0       0       1       0                               0D    146
     102     107       0       0       0                        01010500D    147
     102       0       0       1       0                               0D    148
     102     108       0       0       0                        01010000D    149
     102       0       0       1       0                               0D    150
     142     109       0       0       0                        00010500D    151
     142       0       0       1       0                               0D    152
     144     110       0       0       0                        00000000D    153
     144       0      -1       1       0                               0D    154
     128     111       0       0       0                        01010000D    155
     128       0       0       2       0                               0D    156
     126     113       0       0       0                        01010500D    157
     126       0       0       2       0                               0D    158
     110     115       0       0       0                        01010000D    159
     110       0       0       1       0                               0D    160
     126     116       0       0       0                        01010500D    161
     126       0       0       2       0                               0D    162
     110     118       0       0       0                        01010000D    163
     110       0       0       1       0                               0D    164
     126     119       0       0       0                        01010500D    165
     126       0       0       2       0                               0D    166
     110     121       0       0       0                        01010000D    167
     110       0       0       1       0                               0D    168
     126     122       0       0       0                        01010500D    169
     126       0       0       2       0                               0D    170
     110     124       0       0       0                        01010000D    171
     110       0       0       1       0                               0D    172
     102     125       0       0       0                        01010500D    173
     102       0       0       1       0                               0D    174
     102     126       0       0       0                        01010000D    175
     102       0       0       1       0                               0D    176
     142     127       0       0       0                        00010500D    177
     142       0       0       1       0                               0D    178
     126     128       0       0       0                        01010500D    179
     126       0       0       2       0                               0D    180
     110     130       0       0       0                        01010000D    181
     110       0       0       1       0                               0D    182
     126     131       0       0       0                        01010500D    183
     126       0       0       2       0                               0D    184
     110     133       0       0       0                        01010000D    185
     110       0       0       1       0                               0D    186
     126     134       0       0       0                        01010500D    187
     126       0       0       2       0                               0D    188
     110     136       0       0       0                        01010000D    189
     110       0       0       1       0                               0D    190
     126     137       0       0       0                        01010500D    191
     126       0       0       2       0                               0D    192
     110     139       0       0       0                        01010000D    193
     110       0       0       1       0                               0D    194
     126     140       0       0       0                        01010500D    195
     126       0       0       2       0                               0D    196
     110     142       0       0       0                        01010000D    197
     110       0       0       1       0                               0D    198
     126     143       0       0       0                        01010500D    199
     126       0       0       2       0                               0D    200
     110     145       0       0       0                        01010000D    201
     110       0       0       1       0                               0D    202
     102     146       0       0       0                        01010500D    203
     102       0       0       1       0                               0D    204
     102     147       0       0       0                        01010000D    205
     102       0       0       1       0                               0D    206
     142     148       0       0       0                        00010500D    207
     142       0       0       1       0                               0D    208
     144     149       0       0       0                        00000000D    209
     144       0      -1       1       0                               0D    210
     128     150       0       0       0                        01010000D    211
     128       0       0       3       0                               0D    212
     126     153       0       0       0                        01010500D    213
     126       0       0       2       0                               0D    214
     110     155       0       0       0                        01010000D    215
     110       0       0       1       0                               0D    216
     126     156       0       0       0                        01010500D    217
     126       0       0       2       0                               0D    218
     110     158       0       0       0                        01010000D    219
     110       0       0       1       0                               0D    220
     126     159       0       0       0                        01010500D    221
     126       0       0       2       0                               0D    222
     110     161       0       0       0                        01010000D    223
     110       0       0       1       0                               0D    224
     126     162       0       0       0                        01010500D    225
     126       0       0       2       0                               0D    226
     110     164       0       0       0                        01010000D    227
     110       0       0       1       0                               0D    228
     102     165       0       0       0                        01010500D    229
     102       0       0       1       0                               0D    230
     102     166       0       0       0                        01010000D    231
     102       0       0       1       0                               0D    232
     142     167       0       0       0                        00010500D    233
     142       0       0       1       0                               0D    234
     126     168       0       0       0                        01010500D    235
     126       0       0      21       0                               0D    236
     124     189       0       0       0                        00000000D    237
     124       0       0       4       0                               0D    238
     100     193       0       0       0             237        01010000D    239
     100       0       0       1       0                               0D    240
     126     194       0       0       0                        01010500D    241
     126       0       0      21       0                               0D    242
     124     215       0       0       0                        00000000D    243
     124       0       0       3       0                               0D    244
     100     218       0       0       0             243        01010000D    245
     100       0       0       1       0                               0D    246
     102     219       0       0       0                        01010500D    247
     102       0       0       1       0                               0D    248
     102     220       0       0       0                        01010000D    249
     102       0       0       1       0                               0D    250
     142     221       0       0       0                        00010500D    251
     142       0       0       1       0                               0D    252
     144     222       0       0       0                        00000000D    253
     144       0      -1       1       0                               0D    254
     128     223       0       0       0                        01010000D    255
     128       0       0       3       0                               0D    256
     126     226       0       0       0                        01010500D    257
     126       0       0       2       0                               0D    258
     110     228       0       0       0                        01010000D    259
     110       0       0       1       0                               0D    260
     126     229       0       0       0                        01010500D    261
     126       0       0       2       0                               0D    262
     110     231       0       0       0                        01010000D    263
     110       0       0       1       0                               0D    264
     126     232       0       0       0                        01010500D    265
     126       0       0       2       0                               0D    266
     110     234       0       0       0                        01010000D    267
     110       0       0       1       0                               0D    268
     126     235       0       0       0                        01010500D    269
     126       0       0       2       0                               0D    270
     110     237       0       0       0                        01010000D    271
     110       0       0       1       0                               0D    272
     102     238       0       0       0                        01010500D    273
     102       0       0       1       0                               0D    274
     102     239       0       0       0                        01010000D    275
     102       0       0       1       0                               0D    276
     142     240       0       0       0                        00010500D    277
     142       0       0       1       0                               0D    278
     144     241       0       0       0                        00000000D    279
     144       0      -1       1       0                               0D    280
     128     242       0       0       0                        01010000D    281
     128       0       0       3       0                               0D    282
     126     245       0       0       0                        01010500D    283
     126       0       0       2       0                               0D    284
     110     247       0       0       0                        01010000D    285
     110       0       0       1       0                               0D    286
     126     248       0       0       0                        01010500D    287
     126       0       0       2       0                               0D    288
     110     250       0       0       0                        01010000D    289
     110       0       0       1       0                               0D    290
     126     251       0       0       0                        01010500D    291
     126       0       0       2       0                               0D    292
     110     253       0       0       0                        01010000D    293
     110       0       0       1       0                               0D    294
     126     254       0       0       0                        01010500D    295
     126       0       0       2       0                               0D    296
     110     256       0       0       0                        01010000D    297
     110       0       0       1       0                               0D    298
     102     257       0       0       0                        01010500D    299
     102       0       0       1       0                               0D    300
     102     258       0       0       0                        01010000D    301
     102       0       0       1       0                               0D    302
     142     259       0       0       0                        00010500D    303
     142       0       0       1       0                               0D    304
     144     260       0       0       0                        00000000D    305
     144       0      -1       1       0                               0D    306
     128     261       0       0       0                        01010000D    307
     128       0       0       3       0                               0D    308
     126     264       0       0       0                        01010500D    309
     126       0       0       2       0                               0D    310
     110     266       0       0       0                        01010000D    311
     110       0       0       1       0                               0D    312
     126     267       0       0       0                        01010500D    313
     126       0       0       2       0                               0D    314
     110     269       0       0       0                        01010000D    315
     110       0       0       1       0                               0D    316
     126     270       0       0       0                        01010500D    317
     126       0       0       2       0                               0D    318
     110     272       0       0       0                        01010000D    319
     110       0       0       1       0                               0D    320
     126     273       0       0       0                        01010500D    321
     126       0       0       2       0                               0D    322
     110     275       0       0       0                        01010000D    323
     110       0       0       1       0                               0D    324
     102     276       0       0       0                        01010500D    325
     102       0       0       1       0                               0D    326
     102     277       0       0       0                        01010000D    327
     102       0       0       1       0                               0D    328
     142     278       0       0       0                        00010500D    329
     142       0       0       1       0                               0D    330
     144     279       0       0       0                        00000000D    331
     144       0      -1       1       0                               0D    332
     128     280       0       0       0                        01010000D    333
     128       0       0       3       0                               0D    334
     126     283       0       0       0                        01010500D    335
     126       0       0       2       0                               0D    336
     110     285       0       0       0                        01010000D    337
     110       0       0       1       0                               0D    338
     126     286       0       0       0                        01010500D    339
     126       0       0       2       0                               0D    340
     110     288       0       0       0                        01010000D    341
     110       0       0       1       0                               0D    342
     126     289       0       0       0                        01010500D    343
     126       0       0       2       0                               0D    344
     110     291       0       0       0                        01010000D    345
     110       0       0       1       0                               0D    346
     126     292       0       0       0                        01010500D    347
     126       0       0       2       0                               0D    348
     110     294       0       0       0                        01010000D    349
     110       0       0       1       0                               0D    350
     102     295       0       0       0                        01010500D    351
     102       0       0       1       0                               0D    352
     102     296       0       0       0                        01010000D    353
     102       0       0       1       0                               0D    354
     142     297       0       0       0                        00010500D    355
     142       0       0       1       0                               0D    356
     144     298       0       0       0                        00000000D    357
     144       0      -1       1       0                               0D    358
     128     299       0       0       0                        01010000D    359
     128       0       0       3       0                               0D    360
     126     302       0       0       0                        01010500D    361
     126       0       0       2       0                               0D    362
     110     304       0       0       0                        01010000D    363
     110       0       0       1       0                               0D    364
     126     305       0       0       0                        01010500D    365
     126       0       0       2       0                               0D    366
     110     307       0       0       0                        01010000D    367
     110       0       0       1       0                               0D    368
     126     308       0       0       0                        01010500D    369
     126       0       0       2       0                               0D    370
     110     310       0       0       0                        01010000D    371
     110       0       0       1       0                               0D    372
     126     311       0       0       0                        01010500D    373
     126       0       0       2       0                               0D    374
     110     313       0       0       0                        01010000D    375
     110       0       0       1       0                               0D    376
     102     314       0       0       0                        01010500D    377
     102       0       0       1       0                               0D    378
     102     315       0       0       0                        01010000D    379
     102       0       0       1       0                               0D    380
     142     316       0       0       0                        00010500D    381
     142       0       0       1       0                               0D    382
     144     317       0       0       0                        00000000D    383
     144       0      -1       1       0                               0D    384
     128     318       0       0       0                        01010000D    385
     128       0       0       3       0                               0D    386
     126     321       0       0       0                        01010500D    387
     126       0       0       2       0                               0D    388
     110     323       0       0       0                        01010000D    389
     110       0       0       1       0                               0D    390
     126     324       0       0       0                        01010500D    391
     126       0       0       2       0                               0D    392
     110     326       0       0       0                        01010000D    393
     110       0       0       1       0                               0D    394
     126     327       0       0       0                        01010500D    395
     126       0       0       2       0                               0D    396
     110     329       0       0       0                        01010000D    397
     110       0       0       1       0                               0D    398
     126     330       0       0       0                        01010500D    399
     126       0       0       2       0                               0D    400
     110     332       0       0       0                        01010000D    401
     110       0       0       1       0                               0D    402
     102     333       0       0       0                        01010500D    403
     102       0       0       1       0                               0D    404
     102     334       0       0       0                        01010000D    405
     102       0       0       1       0                               0D    406
     142     335       0       0       0                        00010500D    407
     142       0       0       1       0                               0D    408
     144     336       0       0       0                        00000000D    409
     144       0      -1       1       0                               0D    410
     128     337       0       0       0                        01010000D    411
     128       0       0       3       0                               0D    412
     126     340       0       0       0                        01010500D    413
     126       0       0       2       0                               0D    414
     110     342       0       0       0                        01010000D    415
     110       0       0       1       0                               0D    416
     126     343       0       0       0                        01010500D    417
     126       0       0       2       0                               0D    418
     110     345       0       0       0                        01010000D    419
     110       0       0       1       0                               0D    420
     126     346       0       0       0                        01010500D    421
     126       0       0       2       0                               0D    422
     110     348       0       0       0                        01010000D    423
     110       0       0       1       0                               0D    424
     126     349       0       0       0                        01010500D    425
     126       0       0       2       0                               0D    426
     110     351       0       0       0                        01010000D    427
     110       0       0       1       0                               0D    428
     126     352       0       0       0                        01010500D    429
     126       0       0       2       0                               0D    430
     110     354       0       0       0                        01010000D    431
     110       0       0       1       0                               0D    432
     126     355       0       0       0                        01010500D    433
     126       0       0       2       0                               0D    434
     110     357       0       0       0                        01010000D    435
     110       0       0       1       0                               0D    436
     102     358       0       0       0                        01010500D    437
     102       0       0       1       0                               0D    438
     102     359       0       0       0                        01010000D    439
     102       0       0       1       0                               0D    440
     142     360       0       0       0                        00010500D    441
     142       0       0       1       0                               0D    442
     126     361       0       0       0                        01010500D    443
     126       0       0      20       0                               0D    444
     124     381       0       0       0                        00000000D    445
     124       0       0       4       0                               0D    446
     100     385       0       0       0             445        01010000D    447
     100       0       0       1       0                               0D    448
     126     386       0       0       0                        01010500D    449
     126       0       0      20       0                               0D    450
     124     406       0       0       0                        00000000D    451
     124       0       0       4       0                               0D    452
     100     410       0       0       0             451        01010000D    453
     100       0       0       1       0                               0D    454
     102     411       0       0       0                        01010500D    455
     102       0       0       1       0                               0D    456
     102     412       0       0       0                        01010000D    457
     102       0       0       1       0                               0D    458
     142     413       0       0       0                        00010500D    459
     142       0       0       1       0                               0D    460
     144     414       0       0       0                        00000000D    461
     144       0      -1       1       0                               0D    462
     128     415       0       0       0                        01010000D    463
     128       0       0       3       0                               0D    464
     126     418       0       0       0                        01010500D    465
     126       0       0       2       0                               0D    466
     110     420       0       0       0                        01010000D    467
     110       0       0       1       0                               0D    468
     126     421       0       0       0                        01010500D    469
     126       0       0       2       0                               0D    470
     110     423       0       0       0                        01010000D    471
     110       0       0       1       0                               0D    472
     126     424       0       0       0                        01010500D    473
     126       0       0       2       0                               0D    474
     110     426       0       0       0                        01010000D    475
     110       0       0       1       0                               0D    476
     126     427       0       0       0                        01010500D    477
     126       0       0       2       0                               0D    478
     110     429       0       0       0                        01010000D    479
     110       0       0       1       0                               0D    480
     102     430       0       0       0                        01010500D    481
     102       0       0       1       0                               0D    482
     102     431       0       0       0                        01010000D    483
     102       0       0       1       0                               0D    484
     142     432       0       0       0                        00010500D    485
     142       0       0       1       0                               0D    486
     144     433       0       0       0                        00000000D    487
     144       0      -1       1       0                               0D    488
     128     434       0       0       0                        01010000D    489
     128       0       0       2       0                               0D    490
     126     436       0       0       0                        01010500D    491
     126       0       0       2       0                               0D    492
     110     438       0       0       0                        01010000D    493
     110       0       0       1       0                               0D    494
     126     439       0       0       0                        01010500D    495
     126       0       0       2       0                               0D    496
     110     441       0       0       0                        01010000D    497
     110       0       0       1       0                               0D    498
     126     442       0       0       0                        01010500D    499
     126       0       0       2       0                               0D    500
     110     444       0       0       0                        01010000D    501
     110       0       0       1       0                               0D    502
     126     445       0       0       0                        01010500D    503
     126       0       0       2       0                               0D    504
     110     447       0       0       0                        01010000D    505
     110       0       0       1       0                               0D    506
     102     448       0       0       0                        01010500D    507
     102       0       0       1       0                               0D    508
     102     449       0       0       0                        01010000D    509
     102       0       0       1       0                               0D    510
     142     450       0       0       0                        00010500D    511
     142       0       0       1       0                               0D    512
     144     451       0       0       0                        00000000D    513
     144       0      -1       1       0                               0D    514
     110     452       0       0       0                        01010000D    515
     110       0       0       1       0                               0D    516
     110     453       0       0       0                        01010000D    517
     110       0       0       1       0                               0D    518
     120     454       0       0       0                        01010000D    519
     120       0       0       1       0                               0D    520
     126     455       0       0       0                        01010500D    521
     126       0       0       2       0                               0D    522
     124     457       0       0       0                        00000000D    523
     124       0       0       4       0                               0D    524
     100     461       0       0       0             523        01010000D    525
     100       0       0       1       0                               0D    526
     126     462       0       0       0                        01010500D    527
     126       0       0       2       0                               0D    528
     110     464       0       0       0                        01010000D    529
     110       0       0       1       0                               0D    530
     126     465       0       0       0                        01010500D    531
     126       0       0       2       0                               0D    532
     100     467       0       0       0                        01010000D    533
     100       0       0       1       0                               0D    534
     126     468       0       0       0                        01010500D    535
     126       0       0       2       0                               0D    536
     110     470       0       0       0                        01010000D    537
     110       0       0       1       0                               0D    538
     102     471       0       0       0                        01010500D    539
     102       0       0       1       0                               0D    540
     102     472       0       0       0                        01010000D    541
     102       0       0       1       0                               0D    542
     142     473       0       0       0                        00010500D    543
     142       0       0       1       0                               0D    544
     144     474       0       0       0                        00000000D    545
     144       0      -1       1       0                               0D    546
314,79.2156862745098,81.9607843137255,93.3333333333333,;               1P      1
110,0.,0.,-3.25,0.,0.,996.75;                                          3P      2
110,2.25,0.,-3.25,2.25,0.,-0.75;                                       5P      3
120,3,5,0.,6.28318530717959;                                           7P      4
126,1,1,1,0,1,0,0.,0.,1.,1.,1.,1.,0.,6.283185307,0.,1.,                9P      5
6.283185307,0.,0.,1.,0.,0.,1.;                                         9P      6
110,2.25,0.,-3.25,2.25,0.,-0.75;                                      11P      7
126,1,1,1,0,1,0,0.,0.,1.,1.,1.,1.,1.,6.283185307,0.,1.,               13P      8
3.141592654,0.,0.,1.,0.,0.,1.;                                        13P      9
124,1.,-7.35035671743047E-15,8.55166289179392E-31,                    15P     10
6.41374716884548E-31,-7.35035671743047E-15,-1.,                       15P     11
6.98296267768627E-15,5.2372220082647E-15,-5.04721003363181E-29,       15P     12
-6.98296267768627E-15,-1.,-1.5;                                       15P     13
100,-0.75,0.,0.,2.25,0.,-2.25,0.;                                     17P     14
126,1,1,1,0,1,0,0.,0.,1.,1.,1.,1.,1.,3.141592654,0.,0.,               19P     15
3.141592654,0.,0.,1.,0.,0.,1.;                                        19P     16
110,-2.25,0.,-0.75,-2.25,0.,-3.25;                                    21P     17
126,1,1,1,0,1,0,0.,0.,1.,1.,1.,1.,0.,3.141592654,0.,0.,               23P     18
6.283185307,0.,0.,1.,0.,0.,1.;                                        23P     19
100,-3.25,0.,0.,-2.25,0.,2.25,0.;                                     25P     20
102,4,9,13,19,23;                                                     27P     21
102,4,11,17,21,25;                                                    29P     22
142,1,7,27,29,1;                                                      31P     23
144,7,1,0,31;                                                         33P     24
128,1,1,1,1,0,0,1,0,0,0.,0.,1.,1.,0.,0.,1.,1.,1.,1.,1.,1.,-5.,        35P     25
-7.9,3.25,-5.,-7.9,-3.25,-5.,7.9,3.25,-5.,7.9,-3.25,0.,1.,0.,         35P     26
1.;                                                                   35P     27
126,1,1,1,0,1,0,0.,0.,1.,1.,1.,1.,0.,0.253164557,0.,                  37P     28
0.615384615,0.,0.,0.,1.,0.,0.,1.;                                     37P     29
110,-5.,-3.9,3.25,-5.,-7.9,-0.75;                                     39P     30
126,1,1,1,0,1,0,0.,0.,1.,1.,1.,1.,0.615384615,0.,0.,1.,0.,0.,         41P     31
0.,1.,0.,0.,1.;                                                       41P     32
110,-5.,-7.9,-0.75,-5.,-7.9,-3.25;                                    43P     33
126,1,1,1,0,1,0,0.,0.,1.,1.,1.,1.,1.,0.,0.,1.,1.,0.,0.,1.,0.,         45P     34
0.,1.;                                                                45P     35
110,-5.,-7.9,-3.25,-5.,7.9,-3.25;                                     47P     36
126,1,1,1,0,1,0,0.,0.,1.,1.,1.,1.,1.,1.,0.,0.615384615,1.,0.,         49P     37
0.,1.,0.,0.,1.;                                                       49P     38
110,-5.,7.9,-3.25,-5.,7.9,-0.75;                                      51P     39
126,1,1,1,0,1,0,0.,0.,1.,1.,1.,1.,0.615384615,1.,0.,0.,               53P     40
0.746835443,0.,0.,1.,0.,0.,1.;                                        53P     41
110,-5.,7.9,-0.75,-5.,3.9,3.25;                                       55P     42
126,1,1,1,0,1,0,0.,0.,1.,1.,1.,1.,0.,0.746835443,0.,0.,               57P     43
0.253164557,0.,0.,1.,0.,0.,1.;                                        57P     44
110,-5.,3.9,3.25,-5.,-3.9,3.25;                                       59P     45
102,6,37,41,45,49,53,57;                                              61P     46
102,6,39,43,47,51,55,59;                                              63P     47
142,1,35,61,63,1;                                                     65P     48
144,35,1,0,65;                                                        67P     49
128,1,1,1,1,0,0,1,0,0,0.,0.,1.,1.,0.,0.,1.,1.,1.,1.,1.,1.,5.,         69P     50
-7.9,-3.25,-5.,-7.9,-3.25,5.,-7.9,-0.75,-5.,-7.9,-0.75,0.,1.,         69P     51
0.,1.;                                                                69P     52
126,1,1,1,0,1,0,0.,0.,1.,1.,1.,1.,0.,0.,0.,1.,0.,0.,0.,1.,0.,         71P     53
0.,1.;                                                                71P     54
110,5.,-7.9,-3.25,-5.,-7.9,-3.25;                                     73P     55
126,1,1,1,0,1,0,0.,0.,1.,1.,1.,1.,1.,0.,0.,1.,1.,0.,0.,1.,0.,         75P     56
0.,1.;                                                                75P     57
110,-5.,-7.9,-3.25,-5.,-7.9,-0.75;                                    77P     58
126,1,1,1,0,1,0,0.,0.,1.,1.,1.,1.,1.,1.,0.,0.,1.,0.,0.,1.,0.,         79P     59
0.,1.;                                                                79P     60
110,-5.,-7.9,-0.75,5.,-7.9,-0.75;                                     81P     61
126,1,1,1,0,1,0,0.,0.,1.,1.,1.,1.,0.,1.,0.,0.,0.,0.,0.,1.,0.,         83P     62
0.,1.;                                                                83P     63
110,5.,-7.9,-0.75,5.,-7.9,-3.25;                                      85P     64
102,4,71,75,79,83;                                                    87P     65
102,4,73,77,81,85;                                                    89P     66
142,1,69,87,89,1;                                                     91P     67
144,69,1,0,91;                                                        93P     68
128,1,1,1,1,0,0,1,0,0,0.,0.,1.,1.,0.,0.,1.,1.,1.,1.,1.,1.,5.,         95P     69
-7.9,-3.25,5.,-7.9,3.25,5.,7.9,-3.25,5.,7.9,3.25,0.,1.,0.,1.;         95P     70
126,1,1,1,0,1,0,0.,0.,1.,1.,1.,1.,0.,1.,0.,0.,0.,0.,0.,1.,0.,         97P     71
0.,1.;                                                                97P     72
110,5.,7.9,-3.25,5.,-7.9,-3.25;                                       99P     73
126,1,1,1,0,1,0,0.,0.,1.,1.,1.,1.,0.,0.,0.,0.384615385,0.,0.,        101P     74
0.,1.,0.,0.,1.;                                                      101P     75
110,5.,-7.9,-3.25,5.,-7.9,-0.75;                                     103P     76
126,1,1,1,0,1,0,0.,0.,1.,1.,1.,1.,0.384615385,0.,0.,1.,              105P     77
0.253164557,0.,0.,1.,0.,0.,1.;                                       105P     78
110,5.,-7.9,-0.75,5.,-3.9,3.25;                                      107P     79
126,1,1,1,0,1,0,0.,0.,1.,1.,1.,1.,1.,0.253164557,0.,1.,              109P     80
0.746835443,0.,0.,1.,0.,0.,1.;                                       109P     81
110,5.,-3.9,3.25,5.,3.9,3.25;                                        111P     82
126,1,1,1,0,1,0,0.,0.,1.,1.,1.,1.,1.,0.746835443,0.,                 113P     83
0.384615385,1.,0.,0.,1.,0.,0.,1.;                                    113P     84
110,5.,3.9,3.25,5.,7.9,-0.75;                                        115P     85
126,1,1,1,0,1,0,0.,0.,1.,1.,1.,1.,0.384615385,1.,0.,0.,1.,0.,        117P     86
0.,1.,0.,0.,1.;                                                      117P     87
110,5.,7.9,-0.75,5.,7.9,-3.25;                                       119P     88
102,6,97,101,105,109,113,117;                                        121P     89
102,6,99,103,107,111,115,119;                                        123P     90
142,1,95,121,123,1;                                                  125P     91
144,95,1,0,125;                                                      127P     92
128,1,1,1,1,0,0,1,0,0,0.,0.,1.,1.,0.,0.,1.,1.,1.,1.,1.,1.,-5.,       129P     93
7.9,-0.75,-5.,7.9,-3.25,5.,7.9,-0.75,5.,7.9,-3.25,0.,1.,0.,1.;       129P     94
126,1,1,1,0,1,0,0.,0.,1.,1.,1.,1.,1.,0.,0.,1.,1.,0.,0.,1.,0.,        131P     95
0.,1.;                                                               131P     96
110,-5.,7.9,-3.25,5.,7.9,-3.25;                                      133P     97
126,1,1,1,0,1,0,0.,0.,1.,1.,1.,1.,1.,1.,0.,0.,1.,0.,0.,1.,0.,        135P     98
0.,1.;                                                               135P     99
110,5.,7.9,-3.25,5.,7.9,-0.75;                                       137P    100
126,1,1,1,0,1,0,0.,0.,1.,1.,1.,1.,0.,1.,0.,0.,0.,0.,0.,1.,0.,        139P    101
0.,1.;                                                               139P    102
110,5.,7.9,-0.75,-5.,7.9,-0.75;                                      141P    103
126,1,1,1,0,1,0,0.,0.,1.,1.,1.,1.,0.,0.,0.,1.,0.,0.,0.,1.,0.,        143P    104
0.,1.;                                                               143P    105
110,-5.,7.9,-0.75,-5.,7.9,-3.25;                                     145P    106
102,4,131,135,139,143;                                               147P    107
102,4,133,137,141,145;                                               149P    108
142,1,129,147,149,1;                                                 151P    109
144,129,1,0,151;                                                     153P    110
128,1,1,1,1,0,0,1,0,0,0.,0.,1.,1.,0.,0.,1.,1.,1.,1.,1.,1.,-5.,       155P    111
-3.9,3.25,5.,-3.9,3.25,-5.,3.9,3.25,5.,3.9,3.25,0.,1.,0.,1.;         155P    112
126,1,1,1,0,1,0,0.,0.,1.,1.,1.,1.,1.,1.,0.,0.,1.,0.,0.,1.,0.,        157P    113
0.,1.;                                                               157P    114
110,5.,3.9,3.25,-5.,3.9,3.25;                                        159P    115
126,1,1,1,0,1,0,0.,0.,1.,1.,1.,1.,0.,1.,0.,0.,0.,0.,0.,1.,0.,        161P    116
0.,1.;                                                               161P    117
110,-5.,3.9,3.25,-5.,-3.9,3.25;                                      163P    118
126,1,1,1,0,1,0,0.,0.,1.,1.,1.,1.,0.,0.,0.,1.,0.,0.,0.,1.,0.,        165P    119
0.,1.;                                                               165P    120
110,-5.,-3.9,3.25,5.,-3.9,3.25;                                      167P    121
126,1,1,1,0,1,0,0.,0.,1.,1.,1.,1.,1.,0.,0.,1.,1.,0.,0.,1.,0.,        169P    122
0.,1.;                                                               169P    123
110,5.,-3.9,3.25,5.,3.9,3.25;                                        171P    124
102,4,157,161,165,169;                                               173P    125
102,4,159,163,167,171;                                               175P    126
142,1,155,173,175,1;                                                 177P    127
126,1,1,1,0,1,0,0.,0.,1.,1.,1.,1.,0.915692194,0.5,0.,                179P    128
0.707846097,0.038461538,0.,0.,1.,0.,0.,1.;                           179P    129
110,4.156921938,0.,3.25,2.078460969,-3.6,3.25;                       181P    130
126,1,1,1,0,1,0,0.,0.,1.,1.,1.,1.,0.707846097,0.038461538,0.,        183P    131
0.292153903,0.038461538,0.,0.,1.,0.,0.,1.;                           183P    132
110,2.078460969,-3.6,3.25,-2.078460969,-3.6,3.25;                    185P    133
126,1,1,1,0,1,0,0.,0.,1.,1.,1.,1.,0.292153903,0.038461538,0.,        187P    134
0.084307806,0.5,0.,0.,1.,0.,0.,1.;                                   187P    135
110,-2.078460969,-3.6,3.25,-4.156921938,0.,3.25;                     189P    136
126,1,1,1,0,1,0,0.,0.,1.,1.,1.,1.,0.084307806,0.5,0.,                191P    137
0.292153903,0.961538462,0.,0.,1.,0.,0.,1.;                           191P    138
110,-4.156921938,0.,3.25,-2.078460969,3.6,3.25;                      193P    139
126,1,1,1,0,1,0,0.,0.,1.,1.,1.,1.,0.292153903,0.961538462,0.,        195P    140
0.707846097,0.961538462,0.,0.,1.,0.,0.,1.;                           195P    141
110,-2.078460969,3.6,3.25,2.078460969,3.6,3.25;                      197P    142
126,1,1,1,0,1,0,0.,0.,1.,1.,1.,1.,0.707846097,0.961538462,0.,        199P    143
0.915692194,0.5,0.,0.,1.,0.,0.,1.;                                   199P    144
110,2.078460969,3.6,3.25,4.156921938,0.,3.25;                        201P    145
102,6,179,183,187,191,195,199;                                       203P    146
102,6,181,185,189,193,197,201;                                       205P    147
142,1,155,203,205,1;                                                 207P    148
144,155,1,1,177,207;                                                 209P    149
128,1,1,1,1,0,0,1,0,0,0.,0.,1.,1.,0.,0.,1.,1.,1.,1.,1.,1.,-5.,       211P    150
-7.9,-3.25,5.,-7.9,-3.25,-5.,7.9,-3.25,5.,7.9,-3.25,0.,1.,0.,        211P    151
1.;                                                                  211P    152
126,1,1,1,0,1,0,0.,0.,1.,1.,1.,1.,0.,0.,0.,1.,0.,0.,0.,1.,0.,        213P    153
0.,1.;                                                               213P    154
110,-5.,-7.9,-3.25,5.,-7.9,-3.25;                                    215P    155
126,1,1,1,0,1,0,0.,0.,1.,1.,1.,1.,1.,0.,0.,1.,1.,0.,0.,1.,0.,        217P    156
0.,1.;                                                               217P    157
110,5.,-7.9,-3.25,5.,7.9,-3.25;                                      219P    158
126,1,1,1,0,1,0,0.,0.,1.,1.,1.,1.,1.,1.,0.,0.,1.,0.,0.,1.,0.,        221P    159
0.,1.;                                                               221P    160
110,5.,7.9,-3.25,-5.,7.9,-3.25;                                      223P    161
126,1,1,1,0,1,0,0.,0.,1.,1.,1.,1.,0.,1.,0.,0.,0.,0.,0.,1.,0.,        225P    162
0.,1.;                                                               225P    163
110,-5.,7.9,-3.25,-5.,-7.9,-3.25;                                    227P    164
102,4,213,217,221,225;                                               229P    165
102,4,215,219,223,227;                                               231P    166
142,1,211,229,231,1;                                                 233P    167
126,32,2,1,0,1,0,0.,0.,0.,0.0625,0.0625,0.125,0.125,0.1875,          235P    168
0.1875,0.25,0.25,0.3125,0.3125,0.375,0.375,0.4375,0.4375,0.5,        235P    169
0.5,0.5625,0.5625,0.625,0.625,0.6875,0.6875,0.75,0.75,0.8125,        235P    170
0.8125,0.875,0.875,0.9375,0.9375,1.,1.,1.,1.,1.,1.,1.,1.,1.,1.,      235P    171
1.,1.,1.,1.,1.,1.,1.,1.,1.,1.,1.,1.,1.,1.,1.,1.,1.,1.,1.,1.,1.,      235P    172
1.,1.,1.,1.,1.,0.725,0.5,0.,0.725,0.485974325,0.,0.720676688,        235P    173
0.47221815,0.,0.716353376,0.458461975,0.,0.707872895,                235P    174
0.445503942,0.,0.699392413,0.432545908,0.,0.687080663,               235P    175
0.420883986,0.,0.674768912,0.409222064,0.,0.659099026,               235P    176
0.399304414,0.,0.643429139,0.389386765,0.,0.625003302,               235P    177
0.381594517,0.,0.606577465,0.37380227,0.,0.586103772,                235P    178
0.368434877,0.,0.565630079,0.363067483,0.,0.543895322,               235P    179
0.36033121,0.,0.522160566,0.357594937,0.,0.5,0.357594937,0.,         235P    180
0.477839434,0.357594937,0.,0.456104678,0.36033121,0.,                235P    181
0.434369921,0.363067483,0.,0.413896228,0.368434877,0.,               235P    182
0.393422535,0.37380227,0.,0.374996698,0.381594517,0.,                235P    183
0.356570861,0.389386765,0.,0.340900974,0.399304414,0.,               235P    184
0.325231088,0.409222064,0.,0.312919337,0.420883986,0.,               235P    185
0.300607587,0.432545908,0.,0.292127105,0.445503942,0.,               235P    186
0.283646624,0.458461975,0.,0.279323312,0.47221815,0.,0.275,          235P    187
0.485974325,0.,0.275,0.5,0.,0.,1.,0.,0.,1.;                          235P    188
124,1.,-7.35035671743047E-15,8.55166289179392E-31,                   237P    189
2.77929043983305E-30,-7.35035671743047E-15,-1.,                      237P    190
6.98296267768627E-15,2.26946287024804E-14,                           237P    191
-5.04721003363181E-29,-6.98296267768627E-15,-1.,-6.5;                237P    192
100,-3.25,0.,0.,2.25,0.,-2.25,0.;                                    239P    193
126,32,2,1,0,1,0,0.,0.,0.,0.0625,0.0625,0.125,0.125,0.1875,          241P    194
0.1875,0.25,0.25,0.3125,0.3125,0.375,0.375,0.4375,0.4375,0.5,        241P    195
0.5,0.5625,0.5625,0.625,0.625,0.6875,0.6875,0.75,0.75,0.8125,        241P    196
0.8125,0.875,0.875,0.9375,0.9375,1.,1.,1.,1.,1.,1.,1.,1.,1.,1.,      241P    197
1.,1.,1.,1.,1.,1.,1.,1.,1.,1.,1.,1.,1.,1.,1.,1.,1.,1.,1.,1.,1.,      241P    198
1.,1.,1.,1.,1.,0.275,0.5,0.,0.275,0.514025675,0.,0.279323312,        241P    199
0.52778185,0.,0.283646624,0.541538025,0.,0.292127105,                241P    200
0.554496058,0.,0.300607587,0.567454092,0.,0.312919337,               241P    201
0.579116014,0.,0.325231088,0.590777936,0.,0.340900974,               241P    202
0.600695586,0.,0.356570861,0.610613235,0.,0.374996698,               241P    203
0.618405483,0.,0.393422535,0.62619773,0.,0.413896228,                241P    204
0.631565123,0.,0.434369921,0.636932517,0.,0.456104678,               241P    205
0.63966879,0.,0.477839434,0.642405063,0.,0.5,0.642405063,0.,         241P    206
0.522160566,0.642405063,0.,0.543895322,0.63966879,0.,                241P    207
0.565630079,0.636932517,0.,0.586103772,0.631565123,0.,               241P    208
0.606577465,0.62619773,0.,0.625003302,0.618405483,0.,                241P    209
0.643429139,0.610613235,0.,0.659099026,0.600695586,0.,               241P    210
0.674768912,0.590777936,0.,0.687080663,0.579116014,0.,               241P    211
0.699392413,0.567454092,0.,0.707872895,0.554496058,0.,               241P    212
0.716353376,0.541538025,0.,0.720676688,0.52778185,0.,0.725,          241P    213
0.514025675,0.,0.725,0.5,0.,0.,1.,0.,0.,1.;                          241P    214
124,-1.,-6.98296267768627E-15,0.,0.,-6.98296267768627E-15,1.,        243P    215
-6.98296267768627E-15,-2.26946287024804E-14,                         243P    216
4.87617677579594E-29,-6.98296267768627E-15,-1.,-6.5;                 243P    217
100,-3.25,0.,0.,2.25,0.,-2.25,0.;                                    245P    218
102,2,235,241;                                                       247P    219
102,2,239,245;                                                       249P    220
142,1,211,247,249,1;                                                 251P    221
144,211,1,1,233,251;                                                 253P    222
128,1,1,1,1,0,0,1,0,0,0.,0.,1.,1.,0.,0.,1.,1.,1.,1.,1.,1.,           255P    223
2.078460969,-3.6,-0.75,4.156921938,0.,-0.75,2.078460969,-3.6,        255P    224
3.25,4.156921938,0.,3.25,0.,1.,0.,1.;                                255P    225
126,1,1,1,0,1,0,0.,0.,1.,1.,1.,1.,0.,1.,0.,0.,0.,0.,0.,1.,0.,        257P    226
0.,1.;                                                               257P    227
110,2.078460969,-3.6,3.25,2.078460969,-3.6,-0.75;                    259P    228
126,1,1,1,0,1,0,0.,0.,1.,1.,1.,1.,0.,0.,0.,1.,0.,0.,0.,1.,0.,        261P    229
0.,1.;                                                               261P    230
110,2.078460969,-3.6,-0.75,4.156921938,0.,-0.75;                     263P    231
126,1,1,1,0,1,0,0.,0.,1.,1.,1.,1.,1.,0.,0.,1.,1.,0.,0.,1.,0.,        265P    232
0.,1.;                                                               265P    233
110,4.156921938,0.,-0.75,4.156921938,0.,3.25;                        267P    234
126,1,1,1,0,1,0,0.,0.,1.,1.,1.,1.,1.,1.,0.,0.,1.,0.,0.,1.,0.,        269P    235
0.,1.;                                                               269P    236
110,4.156921938,0.,3.25,2.078460969,-3.6,3.25;                       271P    237
102,4,257,261,265,269;                                               273P    238
102,4,259,263,267,271;                                               275P    239
142,1,255,273,275,1;                                                 277P    240
144,255,1,0,277;                                                     279P    241
128,1,1,1,1,0,0,1,0,0,0.,0.,1.,1.,0.,0.,1.,1.,1.,1.,1.,1.,           281P    242
-2.078460969,-3.6,3.25,-2.078460969,-3.6,-0.75,2.078460969,          281P    243
-3.6,3.25,2.078460969,-3.6,-0.75,0.,1.,0.,1.;                        281P    244
126,1,1,1,0,1,0,0.,0.,1.,1.,1.,1.,0.,0.,0.,1.,0.,0.,0.,1.,0.,        283P    245
0.,1.;                                                               283P    246
110,-2.078460969,-3.6,3.25,-2.078460969,-3.6,-0.75;                  285P    247
126,1,1,1,0,1,0,0.,0.,1.,1.,1.,1.,1.,0.,0.,1.,1.,0.,0.,1.,0.,        287P    248
0.,1.;                                                               287P    249
110,-2.078460969,-3.6,-0.75,2.078460969,-3.6,-0.75;                  289P    250
126,1,1,1,0,1,0,0.,0.,1.,1.,1.,1.,1.,1.,0.,0.,1.,0.,0.,1.,0.,        291P    251
0.,1.;                                                               291P    252
110,2.078460969,-3.6,-0.75,2.078460969,-3.6,3.25;                    293P    253
126,1,1,1,0,1,0,0.,0.,1.,1.,1.,1.,0.,1.,0.,0.,0.,0.,0.,1.,0.,        295P    254
0.,1.;                                                               295P    255
110,2.078460969,-3.6,3.25,-2.078460969,-3.6,3.25;                    297P    256
102,4,283,287,291,295;                                               299P    257
102,4,285,289,293,297;                                               301P    258
142,1,281,299,301,1;                                                 303P    259
144,281,1,0,303;                                                     305P    260
128,1,1,1,1,0,0,1,0,0,0.,0.,1.,1.,0.,0.,1.,1.,1.,1.,1.,1.,           307P    261
-4.156921938,0.,-0.75,-2.078460969,-3.6,-0.75,-4.156921938,0.,       307P    262
3.25,-2.078460969,-3.6,3.25,0.,1.,0.,1.;                             307P    263
126,1,1,1,0,1,0,0.,0.,1.,1.,1.,1.,0.,1.,0.,0.,0.,0.,0.,1.,0.,        309P    264
0.,1.;                                                               309P    265
110,-4.156921938,0.,3.25,-4.156921938,0.,-0.75;                      311P    266
126,1,1,1,0,1,0,0.,0.,1.,1.,1.,1.,0.,0.,0.,1.,0.,0.,0.,1.,0.,        313P    267
0.,1.;                                                               313P    268
110,-4.156921938,0.,-0.75,-2.078460969,-3.6,-0.75;                   315P    269
126,1,1,1,0,1,0,0.,0.,1.,1.,1.,1.,1.,0.,0.,1.,1.,0.,0.,1.,0.,        317P    270
0.,1.;                                                               317P    271
110,-2.078460969,-3.6,-0.75,-2.078460969,-3.6,3.25;                  319P    272
126,1,1,1,0,1,0,0.,0.,1.,1.,1.,1.,1.,1.,0.,0.,1.,0.,0.,1.,0.,        321P    273
0.,1.;                                                               321P    274
110,-2.078460969,-3.6,3.25,-4.156921938,0.,3.25;                     323P    275
102,4,309,313,317,321;                                               325P    276
102,4,311,315,319,323;                                               327P    277
142,1,307,325,327,1;                                                 329P    278
144,307,1,0,329;                                                     331P    279
128,1,1,1,1,0,0,1,0,0,0.,0.,1.,1.,0.,0.,1.,1.,1.,1.,1.,1.,           333P    280
-2.078460969,3.6,-0.75,-4.156921938,0.,-0.75,-2.078460969,3.6,       333P    281
3.25,-4.156921938,0.,3.25,0.,1.,0.,1.;                               333P    282
126,1,1,1,0,1,0,0.,0.,1.,1.,1.,1.,0.,1.,0.,0.,0.,0.,0.,1.,0.,        335P    283
0.,1.;                                                               335P    284
110,-2.078460969,3.6,3.25,-2.078460969,3.6,-0.75;                    337P    285
126,1,1,1,0,1,0,0.,0.,1.,1.,1.,1.,0.,0.,0.,1.,0.,0.,0.,1.,0.,        339P    286
0.,1.;                                                               339P    287
110,-2.078460969,3.6,-0.75,-4.156921938,0.,-0.75;                    341P    288
126,1,1,1,0,1,0,0.,0.,1.,1.,1.,1.,1.,0.,0.,1.,1.,0.,0.,1.,0.,        343P    289
0.,1.;                                                               343P    290
110,-4.156921938,0.,-0.75,-4.156921938,0.,3.25;                      345P    291
126,1,1,1,0,1,0,0.,0.,1.,1.,1.,1.,1.,1.,0.,0.,1.,0.,0.,1.,0.,        347P    292
0.,1.;                                                               347P    293
110,-4.156921938,0.,3.25,-2.078460969,3.6,3.25;                      349P    294
102,4,335,339,343,347;                                               351P    295
102,4,337,341,345,349;                                               353P    296
142,1,333,351,353,1;                                                 355P    297
144,333,1,0,355;                                                     357P    298
128,1,1,1,1,0,0,1,0,0,0.,0.,1.,1.,0.,0.,1.,1.,1.,1.,1.,1.,           359P    299
-2.078460969,3.6,-0.75,-2.078460969,3.6,3.25,2.078460969,3.6,        359P    300
-0.75,2.078460969,3.6,3.25,0.,1.,0.,1.;                              359P    301
126,1,1,1,0,1,0,0.,0.,1.,1.,1.,1.,1.,1.,0.,0.,1.,0.,0.,1.,0.,        361P    302
0.,1.;                                                               361P    303
110,2.078460969,3.6,3.25,2.078460969,3.6,-0.75;                      363P    304
126,1,1,1,0,1,0,0.,0.,1.,1.,1.,1.,0.,1.,0.,0.,0.,0.,0.,1.,0.,        365P    305
0.,1.;                                                               365P    306
110,2.078460969,3.6,-0.75,-2.078460969,3.6,-0.75;                    367P    307
126,1,1,1,0,1,0,0.,0.,1.,1.,1.,1.,0.,0.,0.,1.,0.,0.,0.,1.,0.,        369P    308
0.,1.;                                                               369P    309
110,-2.078460969,3.6,-0.75,-2.078460969,3.6,3.25;                    371P    310
126,1,1,1,0,1,0,0.,0.,1.,1.,1.,1.,1.,0.,0.,1.,1.,0.,0.,1.,0.,        373P    311
0.,1.;                                                               373P    312
110,-2.078460969,3.6,3.25,2.078460969,3.6,3.25;                      375P    313
102,4,361,365,369,373;                                               377P    314
102,4,363,367,371,375;                                               379P    315
142,1,359,377,379,1;                                                 381P    316
144,359,1,0,381;                                                     383P    317
128,1,1,1,1,0,0,1,0,0,0.,0.,1.,1.,0.,0.,1.,1.,1.,1.,1.,1.,           385P    318
4.156921938,0.,-0.75,2.078460969,3.6,-0.75,4.156921938,0.,3.25,      385P    319
2.078460969,3.6,3.25,0.,1.,0.,1.;                                    385P    320
126,1,1,1,0,1,0,0.,0.,1.,1.,1.,1.,0.,1.,0.,0.,0.,0.,0.,1.,0.,        387P    321
0.,1.;                                                               387P    322
110,4.156921938,0.,3.25,4.156921938,0.,-0.75;                        389P    323
126,1,1,1,0,1,0,0.,0.,1.,1.,1.,1.,0.,0.,0.,1.,0.,0.,0.,1.,0.,        391P    324
0.,1.;                                                               391P    325
110,4.156921938,0.,-0.75,2.078460969,3.6,-0.75;                      393P    326
126,1,1,1,0,1,0,0.,0.,1.,1.,1.,1.,1.,0.,0.,1.,1.,0.,0.,1.,0.,        395P    327
0.,1.;                                                               395P    328
110,2.078460969,3.6,-0.75,2.078460969,3.6,3.25;                      397P    329
126,1,1,1,0,1,0,0.,0.,1.,1.,1.,1.,1.,1.,0.,0.,1.,0.,0.,1.,0.,        399P    330
0.,1.;                                                               399P    331
110,2.078460969,3.6,3.25,4.156921938,0.,3.25;                        401P    332
102,4,387,391,395,399;                                               403P    333
102,4,389,393,397,401;                                               405P    334
142,1,385,403,405,1;                                                 407P    335
144,385,1,0,407;                                                     409P    336
128,1,1,1,1,0,0,1,0,0,0.,0.,1.,1.,0.,0.,1.,1.,1.,1.,1.,1.,           411P    337
-4.206805001,-3.6,-0.75,4.206805001,-3.6,-0.75,-4.206805001,         411P    338
3.6,-0.75,4.206805001,3.6,-0.75,0.,1.,0.,1.;                         411P    339
126,1,1,1,0,1,0,0.,0.,1.,1.,1.,1.,0.747035573,0.,0.,                 413P    340
0.994071146,0.5,0.,0.,1.,0.,0.,1.;                                   413P    341
110,2.078460969,-3.6,-0.75,4.156921938,0.,-0.75;                     415P    342
126,1,1,1,0,1,0,0.,0.,1.,1.,1.,1.,0.994071146,0.5,0.,                417P    343
0.747035573,1.,0.,0.,1.,0.,0.,1.;                                    417P    344
110,4.156921938,0.,-0.75,2.078460969,3.6,-0.75;                      419P    345
126,1,1,1,0,1,0,0.,0.,1.,1.,1.,1.,0.747035573,1.,0.,                 421P    346
0.252964427,1.,0.,0.,1.,0.,0.,1.;                                    421P    347
110,2.078460969,3.6,-0.75,-2.078460969,3.6,-0.75;                    423P    348
126,1,1,1,0,1,0,0.,0.,1.,1.,1.,1.,0.252964427,1.,0.,                 425P    349
0.005928854,0.5,0.,0.,1.,0.,0.,1.;                                   425P    350
110,-2.078460969,3.6,-0.75,-4.156921938,0.,-0.75;                    427P    351
126,1,1,1,0,1,0,0.,0.,1.,1.,1.,1.,0.005928854,0.5,0.,                429P    352
0.252964427,0.,0.,0.,1.,0.,0.,1.;                                    429P    353
110,-4.156921938,0.,-0.75,-2.078460969,-3.6,-0.75;                   431P    354
126,1,1,1,0,1,0,0.,0.,1.,1.,1.,1.,0.252964427,0.,0.,                 433P    355
0.747035573,0.,0.,0.,1.,0.,0.,1.;                                    433P    356
110,-2.078460969,-3.6,-0.75,2.078460969,-3.6,-0.75;                  435P    357
102,6,413,417,421,425,429,433;                                       437P    358
102,6,415,419,423,427,431,435;                                       439P    359
142,1,411,437,439,1;                                                 441P    360
126,32,2,1,0,1,0,0.,0.,0.,0.0625,0.0625,0.125,0.125,0.1875,          443P    361
0.1875,0.25,0.25,0.3125,0.3125,0.375,0.375,0.4375,0.4375,0.5,        443P    362
0.5,0.5625,0.5625,0.625,0.625,0.6875,0.6875,0.75,0.75,0.8125,        443P    363
0.8125,0.875,0.875,0.9375,0.9375,1.,1.,1.,1.,1.,1.,1.,1.,1.,1.,      443P    364
1.,1.,1.,1.,1.,1.,1.,1.,1.,1.,1.,1.,1.,1.,1.,1.,1.,1.,1.,1.,1.,      443P    365
1.,1.,1.,1.,1.,0.232576148,0.5,0.,0.232576148,0.530778564,0.,        443P    366
0.237714622,0.560965726,0.,0.242853096,0.591152888,0.,               443P    367
0.252932576,0.619588573,0.,0.263012056,0.648024258,0.,               443P    368
0.277645193,0.673615698,0.,0.29227833,0.699207138,0.,                443P    369
0.31090278,0.720970869,0.,0.329527231,0.7427346,0.,0.351427268,      443P    370
0.759834254,0.,0.373327305,0.776933908,0.,0.397661322,               443P    371
0.788712354,0.,0.42199534,0.8004908,0.,0.447828195,0.8064954,        443P    372
0.,0.473661049,0.8125,0.,0.5,0.8125,0.,0.526338951,0.8125,0.,        443P    373
0.552171805,0.8064954,0.,0.57800466,0.8004908,0.,0.602338678,        443P    374
0.788712354,0.,0.626672695,0.776933908,0.,0.648572732,               443P    375
0.759834254,0.,0.670472769,0.7427346,0.,0.68909722,0.720970869,      443P    376
0.,0.70772167,0.699207138,0.,0.722354807,0.673615698,0.,             443P    377
0.736987944,0.648024258,0.,0.747067424,0.619588573,0.,               443P    378
0.757146904,0.591152888,0.,0.762285378,0.560965726,0.,               443P    379
0.767423852,0.530778564,0.,0.767423852,0.5,0.,0.,1.,0.,0.,1.;        443P    380
124,-1.,-6.98296267768627E-15,0.,5.47382212626882E-45,               445P    381
-6.98296267768627E-15,1.,-6.98296267768627E-15,                      445P    382
-5.2372220082647E-15,4.87617677579594E-29,                           445P    383
-6.98296267768627E-15,-1.,-1.5;                                      445P    384
100,-0.75,0.,0.,2.25,0.,-2.25,0.;                                    447P    385
126,32,2,1,0,1,0,0.,0.,0.,0.0625,0.0625,0.125,0.125,0.1875,          449P    386
0.1875,0.25,0.25,0.3125,0.3125,0.375,0.375,0.4375,0.4375,0.5,        449P    387
0.5,0.5625,0.5625,0.625,0.625,0.6875,0.6875,0.75,0.75,0.8125,        449P    388
0.8125,0.875,0.875,0.9375,0.9375,1.,1.,1.,1.,1.,1.,1.,1.,1.,1.,      449P    389
1.,1.,1.,1.,1.,1.,1.,1.,1.,1.,1.,1.,1.,1.,1.,1.,1.,1.,1.,1.,1.,      449P    390
1.,1.,1.,1.,1.,0.767423852,0.5,0.,0.767423852,0.469221436,0.,        449P    391
0.762285378,0.439034274,0.,0.757146904,0.408847112,0.,               449P    392
0.747067424,0.380411427,0.,0.736987944,0.351975742,0.,               449P    393
0.722354807,0.326384302,0.,0.70772167,0.300792862,0.,                449P    394
0.68909722,0.279029131,0.,0.670472769,0.2572654,0.,0.648572732,      449P    395
0.240165746,0.,0.626672695,0.223066092,0.,0.602338678,               449P    396
0.211287646,0.,0.57800466,0.1995092,0.,0.552171805,0.1935046,        449P    397
0.,0.526338951,0.1875,0.,0.5,0.1875,0.,0.473661049,0.1875,0.,        449P    398
0.447828195,0.1935046,0.,0.42199534,0.1995092,0.,0.397661322,        449P    399
0.211287646,0.,0.373327305,0.223066092,0.,0.351427268,               449P    400
0.240165746,0.,0.329527231,0.2572654,0.,0.31090278,0.279029131,      449P    401
0.,0.29227833,0.300792862,0.,0.277645193,0.326384302,0.,             449P    402
0.263012056,0.351975742,0.,0.252932576,0.380411427,0.,               449P    403
0.242853096,0.408847112,0.,0.237714622,0.439034274,0.,               449P    404
0.232576148,0.469221436,0.,0.232576148,0.5,0.,0.,1.,0.,0.,1.;        449P    405
124,1.,-7.35035671743047E-15,8.55166289179392E-31,                   451P    406
6.41374716884548E-31,-7.35035671743047E-15,-1.,                      451P    407
6.98296267768627E-15,5.2372220082647E-15,-5.04721003363181E-29,      451P    408
-6.98296267768627E-15,-1.,-1.5;                                      451P    409
100,-0.75,0.,0.,2.25,0.,-2.25,0.;                                    453P    410
102,2,443,449;                                                       455P    411
102,2,447,453;                                                       457P    412
142,1,411,455,457,1;                                                 459P    413
144,411,1,1,441,459;                                                 461P    414
128,1,1,1,1,0,0,1,0,0,0.,0.,1.,1.,0.,0.,1.,1.,1.,1.,1.,1.,-5.,       463P    415
-7.9,-0.75,-5.,-3.9,3.25,5.,-7.9,-0.75,5.,-3.9,3.25,0.,1.,0.,        463P    416
1.;                                                                  463P    417
126,1,1,1,0,1,0,0.,0.,1.,1.,1.,1.,1.,0.,0.,1.,1.,0.,0.,1.,0.,        465P    418
0.,1.;                                                               465P    419
110,-5.,-3.9,3.25,5.,-3.9,3.25;                                      467P    420
126,1,1,1,0,1,0,0.,0.,1.,1.,1.,1.,1.,1.,0.,0.,1.,0.,0.,1.,0.,        469P    421
0.,1.;                                                               469P    422
110,5.,-3.9,3.25,5.,-7.9,-0.75;                                      471P    423
126,1,1,1,0,1,0,0.,0.,1.,1.,1.,1.,0.,1.,0.,0.,0.,0.,0.,1.,0.,        473P    424
0.,1.;                                                               473P    425
110,5.,-7.9,-0.75,-5.,-7.9,-0.75;                                    475P    426
126,1,1,1,0,1,0,0.,0.,1.,1.,1.,1.,0.,0.,0.,1.,0.,0.,0.,1.,0.,        477P    427
0.,1.;                                                               477P    428
110,-5.,-7.9,-0.75,-5.,-3.9,3.25;                                    479P    429
102,4,465,469,473,477;                                               481P    430
102,4,467,471,475,479;                                               483P    431
142,1,463,481,483,1;                                                 485P    432
144,463,1,0,485;                                                     487P    433
128,1,1,1,1,0,0,1,0,0,0.,0.,1.,1.,0.,0.,1.,1.,1.,1.,1.,1.,-5.,       489P    434
3.9,3.25,-5.,7.9,-0.75,5.,3.9,3.25,5.,7.9,-0.75,0.,1.,0.,1.;         489P    435
126,1,1,1,0,1,0,0.,0.,1.,1.,1.,1.,1.,0.,0.,1.,1.,0.,0.,1.,0.,        491P    436
0.,1.;                                                               491P    437
110,-5.,7.9,-0.75,5.,7.9,-0.75;                                      493P    438
126,1,1,1,0,1,0,0.,0.,1.,1.,1.,1.,1.,1.,0.,0.,1.,0.,0.,1.,0.,        495P    439
0.,1.;                                                               495P    440
110,5.,7.9,-0.75,5.,3.9,3.25;                                        497P    441
126,1,1,1,0,1,0,0.,0.,1.,1.,1.,1.,0.,1.,0.,0.,0.,0.,0.,1.,0.,        499P    442
0.,1.;                                                               499P    443
110,5.,3.9,3.25,-5.,3.9,3.25;                                        501P    444
126,1,1,1,0,1,0,0.,0.,1.,1.,1.,1.,0.,0.,0.,1.,0.,0.,0.,1.,0.,        503P    445
0.,1.;                                                               503P    446
110,-5.,3.9,3.25,-5.,7.9,-0.75;                                      505P    447
102,4,491,495,499,503;                                               507P    448
102,4,493,497,501,505;                                               509P    449
142,1,489,507,509,1;                                                 511P    450
144,489,1,0,511;                                                     513P    451
110,0.,0.,-3.25,0.,0.,996.75;                                        515P    452
110,2.25,0.,-3.25,2.25,0.,-0.75;                                     517P    453
120,515,517,0.,6.28318530717959;                                     519P    454
126,1,1,1,0,1,0,0.,0.,1.,1.,1.,1.,1.,3.141592654,0.,1.,0.,0.,        521P    455
0.,1.,0.,0.,1.;                                                      521P    456
124,-1.,-6.98296267768627E-15,0.,5.47382212626882E-45,               523P    457
-6.98296267768627E-15,1.,-6.98296267768627E-15,                      523P    458
-5.2372220082647E-15,4.87617677579594E-29,                           523P    459
-6.98296267768627E-15,-1.,-1.5;                                      523P    460
100,-0.75,0.,0.,2.25,0.,-2.25,0.;                                    525P    461
126,1,1,1,0,1,0,0.,0.,1.,1.,1.,1.,1.,0.,0.,0.,0.,0.,0.,1.,0.,        527P    462
0.,1.;                                                               527P    463
110,2.25,0.,-0.75,2.25,0.,-3.25;                                     529P    464
126,1,1,1,0,1,0,0.,0.,1.,1.,1.,1.,0.,0.,0.,0.,3.141592654,0.,        531P    465
0.,1.,0.,0.,1.;                                                      531P    466
100,-3.25,0.,0.,2.25,0.,-2.25,0.;                                    533P    467
126,1,1,1,0,1,0,0.,0.,1.,1.,1.,1.,0.,3.141592654,0.,1.,              535P    468
3.141592654,0.,0.,1.,0.,0.,1.;                                       535P    469
110,-2.25,0.,-3.25,-2.25,0.,-0.75;                                   537P    470
102,4,521,527,531,535;                                               539P    471
102,4,525,529,533,537;                                               541P    472
142,1,519,539,541,1;                                                 543P    473
144,519,1,0,543;                                                     545P    474
S      1G      4D    546P    474                                        T      1
